<?xml version="1.0" encoding="utf-8" standalone="no"?>
<!DOCTYPE svg PUBLIC "-//W3C//DTD SVG 1.1//EN"
  "http://www.w3.org/Graphics/SVG/1.1/DTD/svg11.dtd">
<svg xmlns:xlink="http://www.w3.org/1999/xlink" width="675.439531pt" height="331.992934pt" viewBox="0 0 675.439531 331.992934" xmlns="http://www.w3.org/2000/svg" version="1.1">
 <metadata>
  <rdf:RDF xmlns:dc="http://purl.org/dc/elements/1.1/" xmlns:cc="http://creativecommons.org/ns#" xmlns:rdf="http://www.w3.org/1999/02/22-rdf-syntax-ns#">
   <cc:Work>
    <dc:type rdf:resource="http://purl.org/dc/dcmitype/StillImage"/>
    <dc:date>2026-04-29T10:11:27.676310</dc:date>
    <dc:format>image/svg+xml</dc:format>
    <dc:creator>
     <cc:Agent>
      <dc:title>Matplotlib v3.10.8, https://matplotlib.org/</dc:title>
     </cc:Agent>
    </dc:creator>
   </cc:Work>
  </rdf:RDF>
 </metadata>
 <defs>
  <style type="text/css">*{stroke-linejoin: round; stroke-linecap: butt}</style>
 </defs>
 <g id="figure_1">
  <g id="patch_1">
   <path d="M 0 331.992934 
L 675.439531 331.992934 
L 675.439531 0 
L 0 0 
z
" style="fill: #ffffff"/>
  </g>
  <g id="axes_1">
   <g id="patch_2">
    <path d="M 43.279531 288.617156 
L 668.239531 288.617156 
L 668.239531 22.505156 
L 43.279531 22.505156 
z
" style="fill: #ffffff"/>
   </g>
   <g id="matplotlib.axis_1">
    <g id="xtick_1">
     <g id="line2d_1">
      <defs>
       <path id="me591127199" d="M 0 0 
L 0 3.5 
" style="stroke: #000000; stroke-width: 0.8"/>
      </defs>
      <g>
       <use xlink:href="#me591127199" x="49.613585" y="288.617156" style="stroke: #000000; stroke-width: 0.8"/>
      </g>
     </g>
     <g id="text_1">
      <!-- 2024-01 -->
      <g transform="translate(24.993011 323.525114) rotate(-45) scale(0.09 -0.09)">
       <defs>
        <path id="ArialUnicodeMS-32" d="M 3231 0 
L 197 0 
Q 197 388 467 784 
Q 738 1181 1478 1778 
Q 1931 2141 2287 2539 
Q 2644 2938 2644 3341 
Q 2644 3688 2398 3914 
Q 2153 4141 1778 4141 
Q 1400 4141 1144 3908 
Q 888 3675 884 3213 
L 306 3278 
Q 359 3922 764 4262 
Q 1169 4603 1791 4603 
Q 2466 4603 2842 4229 
Q 3219 3856 3219 3328 
Q 3219 2888 2901 2436 
Q 2584 1984 1638 1228 
Q 1141 831 978 544 
L 3231 544 
L 3231 0 
z
" transform="scale(0.015625)"/>
        <path id="ArialUnicodeMS-30" d="M 1778 4603 
Q 3272 4603 3272 2259 
Q 3272 1075 2886 498 
Q 2500 -78 1778 -78 
Q 288 -78 288 2259 
Q 288 3444 673 4023 
Q 1059 4603 1778 4603 
z
M 1778 384 
Q 2231 384 2462 823 
Q 2694 1263 2694 2259 
Q 2694 2953 2592 3351 
Q 2491 3750 2286 3945 
Q 2081 4141 1772 4141 
Q 1319 4141 1091 3694 
Q 863 3247 863 2259 
Q 863 1575 966 1175 
Q 1069 775 1272 579 
Q 1475 384 1778 384 
z
" transform="scale(0.015625)"/>
        <path id="ArialUnicodeMS-34" d="M 3263 1094 
L 2644 1094 
L 2644 0 
L 2081 0 
L 2081 1094 
L 97 1094 
L 97 1613 
L 2181 4581 
L 2644 4581 
L 2644 1613 
L 3263 1613 
L 3263 1094 
z
M 2081 1613 
L 2081 3681 
L 2069 3681 
L 647 1613 
L 2081 1613 
z
" transform="scale(0.015625)"/>
        <path id="ArialUnicodeMS-2d" d="M 1925 1375 
L 206 1375 
L 206 1941 
L 1925 1941 
L 1925 1375 
z
" transform="scale(0.015625)"/>
        <path id="ArialUnicodeMS-31" d="M 2400 0 
L 1838 0 
L 1838 3584 
Q 1416 3184 709 2906 
L 709 3450 
Q 1681 3916 2034 4603 
L 2400 4603 
L 2400 0 
z
" transform="scale(0.015625)"/>
       </defs>
       <use xlink:href="#ArialUnicodeMS-32"/>
       <use xlink:href="#ArialUnicodeMS-30" transform="translate(55.615234 0)"/>
       <use xlink:href="#ArialUnicodeMS-32" transform="translate(111.230469 0)"/>
       <use xlink:href="#ArialUnicodeMS-34" transform="translate(166.845703 0)"/>
       <use xlink:href="#ArialUnicodeMS-2d" transform="translate(222.460938 0)"/>
       <use xlink:href="#ArialUnicodeMS-30" transform="translate(255.761719 0)"/>
       <use xlink:href="#ArialUnicodeMS-31" transform="translate(311.376953 0)"/>
      </g>
     </g>
    </g>
    <g id="xtick_2">
     <g id="line2d_2">
      <g>
       <use xlink:href="#me591127199" x="91.840612" y="288.617156" style="stroke: #000000; stroke-width: 0.8"/>
      </g>
     </g>
     <g id="text_2">
      <!-- 2024-03 -->
      <g transform="translate(67.220038 323.525114) rotate(-45) scale(0.09 -0.09)">
       <defs>
        <path id="ArialUnicodeMS-33" d="M 2425 2478 
Q 2850 2397 3067 2067 
Q 3284 1738 3284 1350 
Q 3284 725 2829 323 
Q 2375 -78 1741 -78 
Q 1134 -78 740 275 
Q 347 628 281 1209 
L 844 1288 
Q 928 834 1151 609 
Q 1375 384 1741 384 
Q 2134 384 2407 661 
Q 2681 938 2681 1338 
Q 2681 1722 2432 1975 
Q 2184 2228 1784 2228 
Q 1622 2228 1388 2169 
L 1453 2663 
Q 1678 2663 1809 2684 
Q 1941 2706 2103 2790 
Q 2266 2875 2372 3033 
Q 2478 3191 2478 3425 
Q 2478 3766 2251 3953 
Q 2025 4141 1728 4141 
Q 1388 4141 1173 3925 
Q 959 3709 903 3309 
L 341 3413 
Q 450 4009 823 4306 
Q 1197 4603 1716 4603 
Q 2288 4603 2670 4258 
Q 3053 3913 3053 3413 
Q 3053 2772 2425 2491 
L 2425 2478 
z
" transform="scale(0.015625)"/>
       </defs>
       <use xlink:href="#ArialUnicodeMS-32"/>
       <use xlink:href="#ArialUnicodeMS-30" transform="translate(55.615234 0)"/>
       <use xlink:href="#ArialUnicodeMS-32" transform="translate(111.230469 0)"/>
       <use xlink:href="#ArialUnicodeMS-34" transform="translate(166.845703 0)"/>
       <use xlink:href="#ArialUnicodeMS-2d" transform="translate(222.460938 0)"/>
       <use xlink:href="#ArialUnicodeMS-30" transform="translate(255.761719 0)"/>
       <use xlink:href="#ArialUnicodeMS-33" transform="translate(311.376953 0)"/>
      </g>
     </g>
    </g>
    <g id="xtick_3">
     <g id="line2d_3">
      <g>
       <use xlink:href="#me591127199" x="134.067639" y="288.617156" style="stroke: #000000; stroke-width: 0.8"/>
      </g>
     </g>
     <g id="text_3">
      <!-- 2024-05 -->
      <g transform="translate(109.447065 323.525114) rotate(-45) scale(0.09 -0.09)">
       <defs>
        <path id="ArialUnicodeMS-35" d="M 1013 2753 
Q 1431 3041 1881 3041 
Q 2453 3041 2878 2636 
Q 3303 2231 3303 1556 
Q 3303 875 2872 398 
Q 2441 -78 1741 -78 
Q 1169 -78 750 245 
Q 331 569 269 1203 
L 856 1247 
Q 928 813 1162 598 
Q 1397 384 1741 384 
Q 2169 384 2434 707 
Q 2700 1031 2700 1503 
Q 2700 1984 2428 2262 
Q 2156 2541 1728 2541 
Q 1188 2541 897 2100 
L 366 2163 
L 813 4519 
L 3084 4519 
L 3084 3975 
L 1259 3975 
L 1013 2753 
z
" transform="scale(0.015625)"/>
       </defs>
       <use xlink:href="#ArialUnicodeMS-32"/>
       <use xlink:href="#ArialUnicodeMS-30" transform="translate(55.615234 0)"/>
       <use xlink:href="#ArialUnicodeMS-32" transform="translate(111.230469 0)"/>
       <use xlink:href="#ArialUnicodeMS-34" transform="translate(166.845703 0)"/>
       <use xlink:href="#ArialUnicodeMS-2d" transform="translate(222.460938 0)"/>
       <use xlink:href="#ArialUnicodeMS-30" transform="translate(255.761719 0)"/>
       <use xlink:href="#ArialUnicodeMS-35" transform="translate(311.376953 0)"/>
      </g>
     </g>
    </g>
    <g id="xtick_4">
     <g id="line2d_4">
      <g>
       <use xlink:href="#me591127199" x="176.294666" y="288.617156" style="stroke: #000000; stroke-width: 0.8"/>
      </g>
     </g>
     <g id="text_4">
      <!-- 2024-07 -->
      <g transform="translate(151.674092 323.525114) rotate(-45) scale(0.09 -0.09)">
       <defs>
        <path id="ArialUnicodeMS-37" d="M 3272 4084 
Q 2597 3344 2103 2253 
Q 1609 1163 1522 0 
L 947 0 
Q 969 934 1408 2051 
Q 1847 3169 2547 3975 
L 306 3975 
L 306 4519 
L 3272 4519 
L 3272 4084 
z
" transform="scale(0.015625)"/>
       </defs>
       <use xlink:href="#ArialUnicodeMS-32"/>
       <use xlink:href="#ArialUnicodeMS-30" transform="translate(55.615234 0)"/>
       <use xlink:href="#ArialUnicodeMS-32" transform="translate(111.230469 0)"/>
       <use xlink:href="#ArialUnicodeMS-34" transform="translate(166.845703 0)"/>
       <use xlink:href="#ArialUnicodeMS-2d" transform="translate(222.460938 0)"/>
       <use xlink:href="#ArialUnicodeMS-30" transform="translate(255.761719 0)"/>
       <use xlink:href="#ArialUnicodeMS-37" transform="translate(311.376953 0)"/>
      </g>
     </g>
    </g>
    <g id="xtick_5">
     <g id="line2d_5">
      <g>
       <use xlink:href="#me591127199" x="218.521693" y="288.617156" style="stroke: #000000; stroke-width: 0.8"/>
      </g>
     </g>
     <g id="text_5">
      <!-- 2024-09 -->
      <g transform="translate(193.901119 323.525114) rotate(-45) scale(0.09 -0.09)">
       <defs>
        <path id="ArialUnicodeMS-39" d="M 2713 2156 
Q 2547 1888 2258 1722 
Q 1969 1556 1631 1556 
Q 1066 1556 670 1970 
Q 275 2384 275 3053 
Q 275 3734 678 4168 
Q 1081 4603 1716 4603 
Q 2353 4603 2818 4106 
Q 3284 3609 3284 2388 
Q 3284 1147 2859 534 
Q 2434 -78 1644 -78 
Q 1128 -78 781 205 
Q 434 488 359 1063 
L 897 1106 
Q 1025 384 1656 384 
Q 2175 384 2450 857 
Q 2725 1331 2725 2156 
L 2713 2156 
z
M 1766 2047 
Q 2178 2047 2420 2339 
Q 2663 2631 2663 3078 
Q 2663 3531 2414 3836 
Q 2166 4141 1778 4141 
Q 1388 4141 1119 3817 
Q 850 3494 850 3034 
Q 850 2600 1114 2323 
Q 1378 2047 1766 2047 
z
" transform="scale(0.015625)"/>
       </defs>
       <use xlink:href="#ArialUnicodeMS-32"/>
       <use xlink:href="#ArialUnicodeMS-30" transform="translate(55.615234 0)"/>
       <use xlink:href="#ArialUnicodeMS-32" transform="translate(111.230469 0)"/>
       <use xlink:href="#ArialUnicodeMS-34" transform="translate(166.845703 0)"/>
       <use xlink:href="#ArialUnicodeMS-2d" transform="translate(222.460938 0)"/>
       <use xlink:href="#ArialUnicodeMS-30" transform="translate(255.761719 0)"/>
       <use xlink:href="#ArialUnicodeMS-39" transform="translate(311.376953 0)"/>
      </g>
     </g>
    </g>
    <g id="xtick_6">
     <g id="line2d_6">
      <g>
       <use xlink:href="#me591127199" x="260.74872" y="288.617156" style="stroke: #000000; stroke-width: 0.8"/>
      </g>
     </g>
     <g id="text_6">
      <!-- 2024-11 -->
      <g transform="translate(236.128146 323.525114) rotate(-45) scale(0.09 -0.09)">
       <use xlink:href="#ArialUnicodeMS-32"/>
       <use xlink:href="#ArialUnicodeMS-30" transform="translate(55.615234 0)"/>
       <use xlink:href="#ArialUnicodeMS-32" transform="translate(111.230469 0)"/>
       <use xlink:href="#ArialUnicodeMS-34" transform="translate(166.845703 0)"/>
       <use xlink:href="#ArialUnicodeMS-2d" transform="translate(222.460938 0)"/>
       <use xlink:href="#ArialUnicodeMS-31" transform="translate(255.761719 0)"/>
       <use xlink:href="#ArialUnicodeMS-31" transform="translate(311.376953 0)"/>
      </g>
     </g>
    </g>
    <g id="xtick_7">
     <g id="line2d_7">
      <g>
       <use xlink:href="#me591127199" x="302.975747" y="288.617156" style="stroke: #000000; stroke-width: 0.8"/>
      </g>
     </g>
     <g id="text_7">
      <!-- 2025-01 -->
      <g transform="translate(278.355173 323.525114) rotate(-45) scale(0.09 -0.09)">
       <use xlink:href="#ArialUnicodeMS-32"/>
       <use xlink:href="#ArialUnicodeMS-30" transform="translate(55.615234 0)"/>
       <use xlink:href="#ArialUnicodeMS-32" transform="translate(111.230469 0)"/>
       <use xlink:href="#ArialUnicodeMS-35" transform="translate(166.845703 0)"/>
       <use xlink:href="#ArialUnicodeMS-2d" transform="translate(222.460938 0)"/>
       <use xlink:href="#ArialUnicodeMS-30" transform="translate(255.761719 0)"/>
       <use xlink:href="#ArialUnicodeMS-31" transform="translate(311.376953 0)"/>
      </g>
     </g>
    </g>
    <g id="xtick_8">
     <g id="line2d_8">
      <g>
       <use xlink:href="#me591127199" x="345.202774" y="288.617156" style="stroke: #000000; stroke-width: 0.8"/>
      </g>
     </g>
     <g id="text_8">
      <!-- 2025-03 -->
      <g transform="translate(320.5822 323.525114) rotate(-45) scale(0.09 -0.09)">
       <use xlink:href="#ArialUnicodeMS-32"/>
       <use xlink:href="#ArialUnicodeMS-30" transform="translate(55.615234 0)"/>
       <use xlink:href="#ArialUnicodeMS-32" transform="translate(111.230469 0)"/>
       <use xlink:href="#ArialUnicodeMS-35" transform="translate(166.845703 0)"/>
       <use xlink:href="#ArialUnicodeMS-2d" transform="translate(222.460938 0)"/>
       <use xlink:href="#ArialUnicodeMS-30" transform="translate(255.761719 0)"/>
       <use xlink:href="#ArialUnicodeMS-33" transform="translate(311.376953 0)"/>
      </g>
     </g>
    </g>
    <g id="xtick_9">
     <g id="line2d_9">
      <g>
       <use xlink:href="#me591127199" x="387.429802" y="288.617156" style="stroke: #000000; stroke-width: 0.8"/>
      </g>
     </g>
     <g id="text_9">
      <!-- 2025-05 -->
      <g transform="translate(362.809227 323.525114) rotate(-45) scale(0.09 -0.09)">
       <use xlink:href="#ArialUnicodeMS-32"/>
       <use xlink:href="#ArialUnicodeMS-30" transform="translate(55.615234 0)"/>
       <use xlink:href="#ArialUnicodeMS-32" transform="translate(111.230469 0)"/>
       <use xlink:href="#ArialUnicodeMS-35" transform="translate(166.845703 0)"/>
       <use xlink:href="#ArialUnicodeMS-2d" transform="translate(222.460938 0)"/>
       <use xlink:href="#ArialUnicodeMS-30" transform="translate(255.761719 0)"/>
       <use xlink:href="#ArialUnicodeMS-35" transform="translate(311.376953 0)"/>
      </g>
     </g>
    </g>
    <g id="xtick_10">
     <g id="line2d_10">
      <g>
       <use xlink:href="#me591127199" x="429.656829" y="288.617156" style="stroke: #000000; stroke-width: 0.8"/>
      </g>
     </g>
     <g id="text_10">
      <!-- 2025-07 -->
      <g transform="translate(405.036254 323.525114) rotate(-45) scale(0.09 -0.09)">
       <use xlink:href="#ArialUnicodeMS-32"/>
       <use xlink:href="#ArialUnicodeMS-30" transform="translate(55.615234 0)"/>
       <use xlink:href="#ArialUnicodeMS-32" transform="translate(111.230469 0)"/>
       <use xlink:href="#ArialUnicodeMS-35" transform="translate(166.845703 0)"/>
       <use xlink:href="#ArialUnicodeMS-2d" transform="translate(222.460938 0)"/>
       <use xlink:href="#ArialUnicodeMS-30" transform="translate(255.761719 0)"/>
       <use xlink:href="#ArialUnicodeMS-37" transform="translate(311.376953 0)"/>
      </g>
     </g>
    </g>
    <g id="xtick_11">
     <g id="line2d_11">
      <g>
       <use xlink:href="#me591127199" x="471.883856" y="288.617156" style="stroke: #000000; stroke-width: 0.8"/>
      </g>
     </g>
     <g id="text_11">
      <!-- 2025-09 -->
      <g transform="translate(447.263281 323.525114) rotate(-45) scale(0.09 -0.09)">
       <use xlink:href="#ArialUnicodeMS-32"/>
       <use xlink:href="#ArialUnicodeMS-30" transform="translate(55.615234 0)"/>
       <use xlink:href="#ArialUnicodeMS-32" transform="translate(111.230469 0)"/>
       <use xlink:href="#ArialUnicodeMS-35" transform="translate(166.845703 0)"/>
       <use xlink:href="#ArialUnicodeMS-2d" transform="translate(222.460938 0)"/>
       <use xlink:href="#ArialUnicodeMS-30" transform="translate(255.761719 0)"/>
       <use xlink:href="#ArialUnicodeMS-39" transform="translate(311.376953 0)"/>
      </g>
     </g>
    </g>
    <g id="xtick_12">
     <g id="line2d_12">
      <g>
       <use xlink:href="#me591127199" x="514.110883" y="288.617156" style="stroke: #000000; stroke-width: 0.8"/>
      </g>
     </g>
     <g id="text_12">
      <!-- 2025-11 -->
      <g transform="translate(489.490308 323.525114) rotate(-45) scale(0.09 -0.09)">
       <use xlink:href="#ArialUnicodeMS-32"/>
       <use xlink:href="#ArialUnicodeMS-30" transform="translate(55.615234 0)"/>
       <use xlink:href="#ArialUnicodeMS-32" transform="translate(111.230469 0)"/>
       <use xlink:href="#ArialUnicodeMS-35" transform="translate(166.845703 0)"/>
       <use xlink:href="#ArialUnicodeMS-2d" transform="translate(222.460938 0)"/>
       <use xlink:href="#ArialUnicodeMS-31" transform="translate(255.761719 0)"/>
       <use xlink:href="#ArialUnicodeMS-31" transform="translate(311.376953 0)"/>
      </g>
     </g>
    </g>
    <g id="xtick_13">
     <g id="line2d_13">
      <g>
       <use xlink:href="#me591127199" x="556.33791" y="288.617156" style="stroke: #000000; stroke-width: 0.8"/>
      </g>
     </g>
     <g id="text_13">
      <!-- 2026-01 -->
      <g transform="translate(531.717335 323.525114) rotate(-45) scale(0.09 -0.09)">
       <defs>
        <path id="ArialUnicodeMS-36" d="M 838 2363 
Q 1225 2969 1941 2969 
Q 2503 2969 2897 2553 
Q 3291 2138 3291 1491 
Q 3291 838 2898 380 
Q 2506 -78 1856 -78 
Q 1197 -78 733 409 
Q 269 897 269 2144 
Q 269 3369 689 3986 
Q 1109 4603 1906 4603 
Q 2422 4603 2778 4315 
Q 3134 4028 3213 3463 
L 2650 3413 
Q 2497 4141 1875 4141 
Q 1444 4141 1134 3712 
Q 825 3284 825 2363 
L 838 2363 
z
M 1844 384 
Q 2231 384 2472 696 
Q 2713 1009 2713 1453 
Q 2713 1897 2472 2187 
Q 2231 2478 1825 2478 
Q 1453 2478 1184 2204 
Q 916 1931 916 1484 
Q 916 1028 1180 706 
Q 1444 384 1844 384 
z
" transform="scale(0.015625)"/>
       </defs>
       <use xlink:href="#ArialUnicodeMS-32"/>
       <use xlink:href="#ArialUnicodeMS-30" transform="translate(55.615234 0)"/>
       <use xlink:href="#ArialUnicodeMS-32" transform="translate(111.230469 0)"/>
       <use xlink:href="#ArialUnicodeMS-36" transform="translate(166.845703 0)"/>
       <use xlink:href="#ArialUnicodeMS-2d" transform="translate(222.460938 0)"/>
       <use xlink:href="#ArialUnicodeMS-30" transform="translate(255.761719 0)"/>
       <use xlink:href="#ArialUnicodeMS-31" transform="translate(311.376953 0)"/>
      </g>
     </g>
    </g>
    <g id="xtick_14">
     <g id="line2d_14">
      <g>
       <use xlink:href="#me591127199" x="598.564937" y="288.617156" style="stroke: #000000; stroke-width: 0.8"/>
      </g>
     </g>
     <g id="text_14">
      <!-- 2026-03 -->
      <g transform="translate(573.944362 323.525114) rotate(-45) scale(0.09 -0.09)">
       <use xlink:href="#ArialUnicodeMS-32"/>
       <use xlink:href="#ArialUnicodeMS-30" transform="translate(55.615234 0)"/>
       <use xlink:href="#ArialUnicodeMS-32" transform="translate(111.230469 0)"/>
       <use xlink:href="#ArialUnicodeMS-36" transform="translate(166.845703 0)"/>
       <use xlink:href="#ArialUnicodeMS-2d" transform="translate(222.460938 0)"/>
       <use xlink:href="#ArialUnicodeMS-30" transform="translate(255.761719 0)"/>
       <use xlink:href="#ArialUnicodeMS-33" transform="translate(311.376953 0)"/>
      </g>
     </g>
    </g>
    <g id="xtick_15">
     <g id="line2d_15">
      <g>
       <use xlink:href="#me591127199" x="640.791964" y="288.617156" style="stroke: #000000; stroke-width: 0.8"/>
      </g>
     </g>
     <g id="text_15">
      <!-- 2026-05 -->
      <g transform="translate(616.171389 323.525114) rotate(-45) scale(0.09 -0.09)">
       <use xlink:href="#ArialUnicodeMS-32"/>
       <use xlink:href="#ArialUnicodeMS-30" transform="translate(55.615234 0)"/>
       <use xlink:href="#ArialUnicodeMS-32" transform="translate(111.230469 0)"/>
       <use xlink:href="#ArialUnicodeMS-36" transform="translate(166.845703 0)"/>
       <use xlink:href="#ArialUnicodeMS-2d" transform="translate(222.460938 0)"/>
       <use xlink:href="#ArialUnicodeMS-30" transform="translate(255.761719 0)"/>
       <use xlink:href="#ArialUnicodeMS-35" transform="translate(311.376953 0)"/>
      </g>
     </g>
    </g>
    <g id="xtick_16">
     <g id="line2d_16">
      <g>
       <use xlink:href="#me591127199" x="661.905477" y="288.617156" style="stroke: #000000; stroke-width: 0.8"/>
      </g>
     </g>
     <g id="text_16">
      <!-- 2026-06 -->
      <g transform="translate(637.284903 323.525114) rotate(-45) scale(0.09 -0.09)">
       <use xlink:href="#ArialUnicodeMS-32"/>
       <use xlink:href="#ArialUnicodeMS-30" transform="translate(55.615234 0)"/>
       <use xlink:href="#ArialUnicodeMS-32" transform="translate(111.230469 0)"/>
       <use xlink:href="#ArialUnicodeMS-36" transform="translate(166.845703 0)"/>
       <use xlink:href="#ArialUnicodeMS-2d" transform="translate(222.460938 0)"/>
       <use xlink:href="#ArialUnicodeMS-30" transform="translate(255.761719 0)"/>
       <use xlink:href="#ArialUnicodeMS-36" transform="translate(311.376953 0)"/>
      </g>
     </g>
    </g>
   </g>
   <g id="matplotlib.axis_2">
    <g id="ytick_1">
     <g id="line2d_17">
      <path d="M 43.279531 276.521156 
L 668.239531 276.521156 
" clip-path="url(#p694acf1dfd)" style="fill: none; stroke-dasharray: 2.96,1.28; stroke-dashoffset: 0; stroke: #d6dadf; stroke-opacity: 0.7; stroke-width: 0.8"/>
     </g>
     <g id="line2d_18">
      <defs>
       <path id="m35475d799c" d="M 0 0 
L -3.5 0 
" style="stroke: #000000; stroke-width: 0.8"/>
      </defs>
      <g>
       <use xlink:href="#m35475d799c" x="43.279531" y="276.521156" style="stroke: #000000; stroke-width: 0.8"/>
      </g>
     </g>
     <g id="text_17">
      <!-- 0 -->
      <g transform="translate(31.274688 279.742172) scale(0.09 -0.09)">
       <use xlink:href="#ArialUnicodeMS-30"/>
      </g>
     </g>
    </g>
    <g id="ytick_2">
     <g id="line2d_19">
      <path d="M 43.279531 241.358366 
L 668.239531 241.358366 
" clip-path="url(#p694acf1dfd)" style="fill: none; stroke-dasharray: 2.96,1.28; stroke-dashoffset: 0; stroke: #d6dadf; stroke-opacity: 0.7; stroke-width: 0.8"/>
     </g>
     <g id="line2d_20">
      <g>
       <use xlink:href="#m35475d799c" x="43.279531" y="241.358366" style="stroke: #000000; stroke-width: 0.8"/>
      </g>
     </g>
     <g id="text_18">
      <!-- 25 -->
      <g transform="translate(26.269844 244.579381) scale(0.09 -0.09)">
       <use xlink:href="#ArialUnicodeMS-32"/>
       <use xlink:href="#ArialUnicodeMS-35" transform="translate(55.615234 0)"/>
      </g>
     </g>
    </g>
    <g id="ytick_3">
     <g id="line2d_21">
      <path d="M 43.279531 206.195575 
L 668.239531 206.195575 
" clip-path="url(#p694acf1dfd)" style="fill: none; stroke-dasharray: 2.96,1.28; stroke-dashoffset: 0; stroke: #d6dadf; stroke-opacity: 0.7; stroke-width: 0.8"/>
     </g>
     <g id="line2d_22">
      <g>
       <use xlink:href="#m35475d799c" x="43.279531" y="206.195575" style="stroke: #000000; stroke-width: 0.8"/>
      </g>
     </g>
     <g id="text_19">
      <!-- 50 -->
      <g transform="translate(26.269844 209.41659) scale(0.09 -0.09)">
       <use xlink:href="#ArialUnicodeMS-35"/>
       <use xlink:href="#ArialUnicodeMS-30" transform="translate(55.615234 0)"/>
      </g>
     </g>
    </g>
    <g id="ytick_4">
     <g id="line2d_23">
      <path d="M 43.279531 171.032784 
L 668.239531 171.032784 
" clip-path="url(#p694acf1dfd)" style="fill: none; stroke-dasharray: 2.96,1.28; stroke-dashoffset: 0; stroke: #d6dadf; stroke-opacity: 0.7; stroke-width: 0.8"/>
     </g>
     <g id="line2d_24">
      <g>
       <use xlink:href="#m35475d799c" x="43.279531" y="171.032784" style="stroke: #000000; stroke-width: 0.8"/>
      </g>
     </g>
     <g id="text_20">
      <!-- 75 -->
      <g transform="translate(26.269844 174.2538) scale(0.09 -0.09)">
       <use xlink:href="#ArialUnicodeMS-37"/>
       <use xlink:href="#ArialUnicodeMS-35" transform="translate(55.615234 0)"/>
      </g>
     </g>
    </g>
    <g id="ytick_5">
     <g id="line2d_25">
      <path d="M 43.279531 135.869993 
L 668.239531 135.869993 
" clip-path="url(#p694acf1dfd)" style="fill: none; stroke-dasharray: 2.96,1.28; stroke-dashoffset: 0; stroke: #d6dadf; stroke-opacity: 0.7; stroke-width: 0.8"/>
     </g>
     <g id="line2d_26">
      <g>
       <use xlink:href="#m35475d799c" x="43.279531" y="135.869993" style="stroke: #000000; stroke-width: 0.8"/>
      </g>
     </g>
     <g id="text_21">
      <!-- 100 -->
      <g transform="translate(21.265 139.091009) scale(0.09 -0.09)">
       <use xlink:href="#ArialUnicodeMS-31"/>
       <use xlink:href="#ArialUnicodeMS-30" transform="translate(55.615234 0)"/>
       <use xlink:href="#ArialUnicodeMS-30" transform="translate(111.230469 0)"/>
      </g>
     </g>
    </g>
    <g id="ytick_6">
     <g id="line2d_27">
      <path d="M 43.279531 100.707203 
L 668.239531 100.707203 
" clip-path="url(#p694acf1dfd)" style="fill: none; stroke-dasharray: 2.96,1.28; stroke-dashoffset: 0; stroke: #d6dadf; stroke-opacity: 0.7; stroke-width: 0.8"/>
     </g>
     <g id="line2d_28">
      <g>
       <use xlink:href="#m35475d799c" x="43.279531" y="100.707203" style="stroke: #000000; stroke-width: 0.8"/>
      </g>
     </g>
     <g id="text_22">
      <!-- 125 -->
      <g transform="translate(21.265 103.928218) scale(0.09 -0.09)">
       <use xlink:href="#ArialUnicodeMS-31"/>
       <use xlink:href="#ArialUnicodeMS-32" transform="translate(55.615234 0)"/>
       <use xlink:href="#ArialUnicodeMS-35" transform="translate(111.230469 0)"/>
      </g>
     </g>
    </g>
    <g id="ytick_7">
     <g id="line2d_29">
      <path d="M 43.279531 65.544412 
L 668.239531 65.544412 
" clip-path="url(#p694acf1dfd)" style="fill: none; stroke-dasharray: 2.96,1.28; stroke-dashoffset: 0; stroke: #d6dadf; stroke-opacity: 0.7; stroke-width: 0.8"/>
     </g>
     <g id="line2d_30">
      <g>
       <use xlink:href="#m35475d799c" x="43.279531" y="65.544412" style="stroke: #000000; stroke-width: 0.8"/>
      </g>
     </g>
     <g id="text_23">
      <!-- 150 -->
      <g transform="translate(21.265 68.765428) scale(0.09 -0.09)">
       <use xlink:href="#ArialUnicodeMS-31"/>
       <use xlink:href="#ArialUnicodeMS-35" transform="translate(55.615234 0)"/>
       <use xlink:href="#ArialUnicodeMS-30" transform="translate(111.230469 0)"/>
      </g>
     </g>
    </g>
    <g id="ytick_8">
     <g id="line2d_31">
      <path d="M 43.279531 30.381621 
L 668.239531 30.381621 
" clip-path="url(#p694acf1dfd)" style="fill: none; stroke-dasharray: 2.96,1.28; stroke-dashoffset: 0; stroke: #d6dadf; stroke-opacity: 0.7; stroke-width: 0.8"/>
     </g>
     <g id="line2d_32">
      <g>
       <use xlink:href="#m35475d799c" x="43.279531" y="30.381621" style="stroke: #000000; stroke-width: 0.8"/>
      </g>
     </g>
     <g id="text_24">
      <!-- 175 -->
      <g transform="translate(21.265 33.602637) scale(0.09 -0.09)">
       <use xlink:href="#ArialUnicodeMS-31"/>
       <use xlink:href="#ArialUnicodeMS-37" transform="translate(55.615234 0)"/>
       <use xlink:href="#ArialUnicodeMS-35" transform="translate(111.230469 0)"/>
      </g>
     </g>
    </g>
    <g id="text_25">
     <!-- 帖子数 -->
     <g transform="translate(15.073594 172.061156) rotate(-90) scale(0.11 -0.11)">
      <defs>
       <path id="ArialUnicodeMS-5e16" d="M 2791 1606 
Q 2791 1131 2400 1131 
L 2081 1131 
L 1953 1528 
L 1953 -422 
L 1466 -422 
L 1466 3603 
L 1069 3603 
L 1069 1063 
L 616 1063 
L 616 4072 
L 1466 4072 
L 1466 5331 
L 1953 5331 
L 1953 4072 
L 2791 4072 
L 2791 1606 
z
M 2338 1703 
L 2338 3603 
L 1953 3603 
L 1953 1613 
L 2241 1581 
Q 2338 1581 2338 1703 
z
M 6034 3653 
L 4416 3653 
L 4416 2322 
L 5563 2322 
L 5563 -422 
L 5075 -422 
L 5075 91 
L 3450 91 
L 3450 -422 
L 2963 -422 
L 2963 2322 
L 3928 2322 
L 3928 5306 
L 4416 5306 
L 4416 4122 
L 6034 4122 
L 6034 3653 
z
M 5075 556 
L 5075 1856 
L 3450 1856 
L 3450 556 
L 5075 556 
z
" transform="scale(0.015625)"/>
       <path id="ArialUnicodeMS-5b50" d="M 5894 2328 
L 3566 2328 
L 3566 191 
Q 3566 -31 3425 -172 
Q 3284 -313 3034 -313 
L 2247 -313 
L 2016 184 
L 2822 147 
Q 3078 138 3078 447 
L 3078 2328 
L 628 2328 
L 628 2797 
L 3078 2797 
L 3078 3438 
Q 3856 3947 4403 4569 
L 1416 4569 
L 1416 5038 
L 5100 5038 
L 5100 4678 
Q 4438 3794 3566 3200 
L 3566 2797 
L 5894 2797 
L 5894 2328 
z
" transform="scale(0.015625)"/>
       <path id="ArialUnicodeMS-6570" d="M 6138 19 
L 5806 -378 
Q 5031 194 4697 716 
Q 4344 144 3328 -441 
L 2981 -50 
Q 3966 434 4403 1153 
Q 4038 1834 3866 2753 
Q 3678 2356 3353 1919 
L 2950 2203 
Q 3838 3172 3963 5253 
L 4409 5125 
Q 4341 4384 4269 4006 
L 5984 4006 
L 5984 3547 
L 5619 3541 
L 5594 3341 
Q 5441 2113 4978 1191 
Q 5281 672 6138 19 
z
M 5166 3541 
L 4172 3541 
Q 4297 2419 4691 1650 
Q 5038 2513 5166 3541 
z
M 3438 3653 
L 2209 3653 
L 2209 2338 
L 1919 2338 
Q 1900 2269 1753 1931 
L 3225 1931 
L 3225 1472 
L 2913 1472 
Q 2763 991 2503 666 
Q 2947 353 3103 184 
L 2747 -172 
Q 2463 138 2150 313 
Q 1322 -225 563 -428 
L 269 6 
Q 1106 163 1684 563 
Q 1291 756 703 884 
L 1038 1472 
L 403 1472 
L 403 1931 
L 1259 1931 
Q 1328 2056 1466 2553 
L 1747 2484 
L 1747 3653 
L 1716 3653 
Q 1413 2881 678 2456 
L 378 2803 
Q 938 3091 1241 3653 
L 403 3653 
L 403 4122 
L 1747 4122 
L 1747 5228 
L 2209 5228 
L 2209 4122 
L 3438 4122 
L 3438 3653 
z
M 2406 1472 
L 1538 1472 
Q 1422 1241 1369 1153 
Q 1388 1159 2069 884 
Q 2219 1031 2406 1472 
z
M 1625 4441 
L 1288 4159 
Q 1022 4547 575 4813 
L 878 5075 
Q 1394 4844 1625 4441 
z
M 3384 4844 
Q 3097 4409 2669 4172 
L 2322 4481 
Q 2806 4759 3047 5069 
L 3384 4844 
z
M 3303 2888 
L 2944 2578 
Q 2706 3025 2291 3297 
L 2584 3566 
Q 2988 3359 3303 2888 
z
" transform="scale(0.015625)"/>
      </defs>
      <use xlink:href="#ArialUnicodeMS-5e16"/>
      <use xlink:href="#ArialUnicodeMS-5b50" transform="translate(100 0)"/>
      <use xlink:href="#ArialUnicodeMS-6570" transform="translate(200 0)"/>
     </g>
    </g>
   </g>
   <g id="line2d_33">
    <path d="M 49.613585 273.708133 
L 70.727099 272.301621 
L 91.840612 272.301621 
L 112.954126 276.521156 
L 134.067639 269.488598 
L 155.181153 270.89511 
L 176.294666 273.708133 
L 197.40818 275.114645 
L 218.521693 268.082086 
L 239.635207 268.082086 
L 260.74872 265.269063 
L 281.862234 255.423482 
L 302.975747 255.423482 
L 324.089261 237.138831 
L 345.202774 218.85418 
L 366.316288 249.797435 
L 387.429802 242.764877 
L 408.543315 252.610459 
L 429.656829 238.545342 
L 450.770342 245.5779 
L 471.883856 242.764877 
L 492.997369 252.610459 
L 514.110883 216.041156 
L 535.224396 217.447668 
L 556.33791 213.228133 
L 577.451423 176.658831 
L 598.564937 34.601156 
L 619.67845 203.382552 
L 640.791964 276.521156 
L 661.905477 276.521156 
" clip-path="url(#p694acf1dfd)" style="fill: none; stroke: #355070; stroke-width: 2.3; stroke-linecap: square"/>
    <defs>
     <path id="m02516e5531" d="M 0 1.8 
C 0.477366 1.8 0.935244 1.610341 1.272792 1.272792 
C 1.610341 0.935244 1.8 0.477366 1.8 0 
C 1.8 -0.477366 1.610341 -0.935244 1.272792 -1.272792 
C 0.935244 -1.610341 0.477366 -1.8 0 -1.8 
C -0.477366 -1.8 -0.935244 -1.610341 -1.272792 -1.272792 
C -1.610341 -0.935244 -1.8 -0.477366 -1.8 0 
C -1.8 0.477366 -1.610341 0.935244 -1.272792 1.272792 
C -0.935244 1.610341 -0.477366 1.8 0 1.8 
z
" style="stroke: #355070"/>
    </defs>
    <g clip-path="url(#p694acf1dfd)">
     <use xlink:href="#m02516e5531" x="49.613585" y="273.708133" style="fill: #355070; stroke: #355070"/>
     <use xlink:href="#m02516e5531" x="70.727099" y="272.301621" style="fill: #355070; stroke: #355070"/>
     <use xlink:href="#m02516e5531" x="91.840612" y="272.301621" style="fill: #355070; stroke: #355070"/>
     <use xlink:href="#m02516e5531" x="112.954126" y="276.521156" style="fill: #355070; stroke: #355070"/>
     <use xlink:href="#m02516e5531" x="134.067639" y="269.488598" style="fill: #355070; stroke: #355070"/>
     <use xlink:href="#m02516e5531" x="155.181153" y="270.89511" style="fill: #355070; stroke: #355070"/>
     <use xlink:href="#m02516e5531" x="176.294666" y="273.708133" style="fill: #355070; stroke: #355070"/>
     <use xlink:href="#m02516e5531" x="197.40818" y="275.114645" style="fill: #355070; stroke: #355070"/>
     <use xlink:href="#m02516e5531" x="218.521693" y="268.082086" style="fill: #355070; stroke: #355070"/>
     <use xlink:href="#m02516e5531" x="239.635207" y="268.082086" style="fill: #355070; stroke: #355070"/>
     <use xlink:href="#m02516e5531" x="260.74872" y="265.269063" style="fill: #355070; stroke: #355070"/>
     <use xlink:href="#m02516e5531" x="281.862234" y="255.423482" style="fill: #355070; stroke: #355070"/>
     <use xlink:href="#m02516e5531" x="302.975747" y="255.423482" style="fill: #355070; stroke: #355070"/>
     <use xlink:href="#m02516e5531" x="324.089261" y="237.138831" style="fill: #355070; stroke: #355070"/>
     <use xlink:href="#m02516e5531" x="345.202774" y="218.85418" style="fill: #355070; stroke: #355070"/>
     <use xlink:href="#m02516e5531" x="366.316288" y="249.797435" style="fill: #355070; stroke: #355070"/>
     <use xlink:href="#m02516e5531" x="387.429802" y="242.764877" style="fill: #355070; stroke: #355070"/>
     <use xlink:href="#m02516e5531" x="408.543315" y="252.610459" style="fill: #355070; stroke: #355070"/>
     <use xlink:href="#m02516e5531" x="429.656829" y="238.545342" style="fill: #355070; stroke: #355070"/>
     <use xlink:href="#m02516e5531" x="450.770342" y="245.5779" style="fill: #355070; stroke: #355070"/>
     <use xlink:href="#m02516e5531" x="471.883856" y="242.764877" style="fill: #355070; stroke: #355070"/>
     <use xlink:href="#m02516e5531" x="492.997369" y="252.610459" style="fill: #355070; stroke: #355070"/>
     <use xlink:href="#m02516e5531" x="514.110883" y="216.041156" style="fill: #355070; stroke: #355070"/>
     <use xlink:href="#m02516e5531" x="535.224396" y="217.447668" style="fill: #355070; stroke: #355070"/>
     <use xlink:href="#m02516e5531" x="556.33791" y="213.228133" style="fill: #355070; stroke: #355070"/>
     <use xlink:href="#m02516e5531" x="577.451423" y="176.658831" style="fill: #355070; stroke: #355070"/>
     <use xlink:href="#m02516e5531" x="598.564937" y="34.601156" style="fill: #355070; stroke: #355070"/>
     <use xlink:href="#m02516e5531" x="619.67845" y="203.382552" style="fill: #355070; stroke: #355070"/>
     <use xlink:href="#m02516e5531" x="640.791964" y="276.521156" style="fill: #355070; stroke: #355070"/>
     <use xlink:href="#m02516e5531" x="661.905477" y="276.521156" style="fill: #355070; stroke: #355070"/>
    </g>
   </g>
   <g id="line2d_34">
    <path d="M 49.613585 273.708133 
L 70.727099 273.004877 
L 91.840612 272.770459 
L 112.954126 273.708133 
L 134.067639 272.770459 
L 155.181153 272.301621 
L 176.294666 271.363947 
L 197.40818 273.239296 
L 218.521693 272.301621 
L 239.635207 270.426273 
L 260.74872 267.144412 
L 281.862234 262.924877 
L 302.975747 258.705342 
L 324.089261 249.328598 
L 345.202774 237.138831 
L 366.316288 235.263482 
L 387.429802 237.138831 
L 408.543315 248.390924 
L 429.656829 244.640226 
L 450.770342 245.5779 
L 471.883856 242.29604 
L 492.997369 246.984412 
L 514.110883 237.138831 
L 535.224396 228.699761 
L 556.33791 215.572319 
L 577.451423 202.444877 
L 598.564937 141.49604 
L 619.67845 138.21418 
L 640.791964 171.501621 
L 661.905477 252.141621 
" clip-path="url(#p694acf1dfd)" style="fill: none; stroke-dasharray: 6.66,2.88; stroke-dashoffset: 0; stroke: #b56576; stroke-width: 1.8"/>
   </g>
   <g id="patch_3">
    <path d="M 43.279531 288.617156 
L 43.279531 22.505156 
" style="fill: none; stroke: #5a6570; stroke-width: 0.8; stroke-linejoin: miter; stroke-linecap: square"/>
   </g>
   <g id="patch_4">
    <path d="M 43.279531 288.617156 
L 668.239531 288.617156 
" style="fill: none; stroke: #5a6570; stroke-width: 0.8; stroke-linejoin: miter; stroke-linecap: square"/>
   </g>
   <g id="text_26">
    <!-- 月度正式帖子趋势 -->
    <g transform="translate(303.759531 16.505156) scale(0.13 -0.13)">
     <defs>
      <path id="ArialUnicodeMS-6708" d="M 5044 206 
Q 5044 -19 4897 -150 
Q 4750 -281 4500 -281 
L 3725 -281 
L 3531 231 
L 4359 206 
Q 4519 197 4519 341 
L 4519 1594 
L 2363 1594 
Q 2119 463 941 -488 
L 550 -91 
Q 1172 356 1520 920 
Q 1869 1484 1869 2053 
L 1869 5013 
L 5044 5013 
L 5044 206 
z
M 4519 3541 
L 4519 4544 
L 2375 4544 
L 2375 3541 
L 4519 3541 
z
M 4519 2059 
L 4519 3072 
L 2388 3072 
L 2375 2059 
L 4519 2059 
z
" transform="scale(0.015625)"/>
      <path id="ArialUnicodeMS-5ea6" d="M 5913 4269 
L 1363 4269 
L 1363 2278 
Q 1363 1144 1180 528 
Q 997 -88 684 -434 
L 294 -147 
Q 669 378 773 940 
Q 878 1503 878 2350 
L 878 4738 
L 3200 4738 
L 3200 5288 
L 3706 5288 
L 3706 4738 
L 5913 4738 
L 5913 4269 
z
M 5778 3194 
L 4728 3194 
L 4728 2303 
L 2350 2303 
L 2350 3194 
L 1472 3194 
L 1472 3659 
L 2350 3659 
L 2350 4147 
L 2828 4147 
L 2828 3659 
L 4244 3659 
L 4244 4147 
L 4728 4147 
L 4728 3659 
L 5778 3659 
L 5778 3194 
z
M 4244 2747 
L 4244 3194 
L 2834 3194 
L 2834 2747 
L 4244 2747 
z
M 6081 72 
L 5819 -397 
Q 4484 -216 3531 263 
Q 2494 -234 1388 -397 
L 1088 44 
Q 2078 134 3034 550 
Q 2509 934 2113 1528 
L 1625 1528 
L 1625 1972 
L 5159 1972 
L 5159 1544 
Q 4819 1025 4044 538 
Q 4963 166 6081 72 
z
M 4544 1528 
L 2700 1528 
Q 3125 1038 3531 781 
Q 4194 1159 4544 1528 
z
" transform="scale(0.015625)"/>
      <path id="ArialUnicodeMS-6b63" d="M 5888 -31 
L 641 -31 
L 641 434 
L 1428 434 
L 1428 3328 
L 1913 3328 
L 1913 434 
L 3091 434 
L 3091 4372 
L 819 4372 
L 819 4838 
L 5656 4838 
L 5656 4372 
L 3597 4372 
L 3597 2778 
L 5331 2778 
L 5331 2309 
L 3597 2309 
L 3597 434 
L 5888 434 
L 5888 -31 
z
" transform="scale(0.015625)"/>
      <path id="ArialUnicodeMS-5f0f" d="M 6041 903 
Q 5941 256 5798 -70 
Q 5656 -397 5394 -397 
Q 4959 -397 4350 570 
Q 3741 1538 3513 3634 
L 475 3634 
L 475 4103 
L 3469 4103 
Q 3441 4381 3391 5319 
L 3897 5338 
Q 3934 4459 3975 4103 
L 5819 4103 
L 5819 3634 
L 4025 3634 
Q 4091 2678 4333 1870 
Q 4575 1063 4892 614 
Q 5209 166 5325 166 
Q 5472 166 5550 1113 
L 6041 903 
z
M 5509 4513 
L 5166 4147 
Q 4781 4616 4038 4800 
L 4422 5166 
Q 5066 5025 5509 4513 
z
M 3675 800 
L 756 63 
L 575 519 
L 1881 838 
L 1881 2369 
L 863 2369 
L 863 2834 
L 3359 2834 
L 3359 2369 
L 2369 2369 
L 2369 972 
L 3641 1269 
L 3675 800 
z
" transform="scale(0.015625)"/>
      <path id="ArialUnicodeMS-8d8b" d="M 5588 422 
L 5100 422 
L 5100 684 
L 2881 684 
L 2881 1147 
L 5100 1147 
L 5100 1766 
L 3181 1766 
L 3181 2247 
L 5100 2247 
L 5100 2809 
L 3059 2809 
L 3059 3272 
L 4341 3272 
Q 4541 3550 4763 4013 
L 3788 4013 
Q 3544 3606 3150 3347 
L 2797 3706 
Q 3575 4272 3775 5275 
L 4206 5069 
Q 4178 4922 4112 4720 
Q 4047 4519 4038 4475 
L 5344 4475 
L 5344 4103 
Q 5009 3466 4897 3272 
L 5588 3272 
L 5588 422 
z
M 6003 281 
L 5831 -197 
L 4856 -225 
L 3097 -225 
Q 2422 -225 1978 -36 
Q 1534 153 1113 622 
Q 928 47 575 -459 
L 166 -122 
Q 581 450 681 917 
Q 781 1384 813 2363 
L 1269 2284 
Q 1269 1788 1209 1191 
Q 1459 869 1581 763 
L 1581 2675 
L 391 2675 
L 391 3156 
L 1394 3156 
L 1394 3891 
L 519 3891 
L 519 4372 
L 1394 4372 
L 1394 5247 
L 1881 5247 
L 1881 4372 
L 2784 4372 
L 2784 3891 
L 1881 3891 
L 1881 3156 
L 2906 3156 
L 2906 2675 
L 2069 2675 
L 2069 1931 
L 2906 1931 
L 2906 1472 
L 2069 1472 
L 2069 447 
Q 2497 238 3059 238 
L 4750 238 
L 6003 281 
z
" transform="scale(0.015625)"/>
      <path id="ArialUnicodeMS-52bf" d="M 6088 2772 
Q 5925 2363 5792 2206 
Q 5659 2050 5516 2050 
Q 5228 2050 5017 2598 
Q 4806 3147 4806 4134 
L 4213 4134 
Q 4172 3519 4025 3219 
Q 4241 3056 4563 2753 
L 4231 2431 
Q 3809 2825 3794 2828 
Q 3459 2425 2619 2100 
L 2322 2497 
Q 3125 2731 3391 3109 
Q 3103 3331 2834 3425 
L 3091 3788 
Q 3234 3734 3406 3628 
Q 3578 3522 3628 3500 
Q 3725 3688 3750 4134 
L 2869 4134 
L 2869 4603 
L 3750 4603 
L 3750 5331 
L 4213 5331 
L 4213 4603 
L 5269 4603 
Q 5284 3666 5318 3314 
Q 5353 2963 5538 2619 
Q 5616 2834 5672 3084 
L 6088 2772 
z
M 2694 3450 
L 2034 3278 
L 2034 2566 
Q 2034 2369 1921 2228 
Q 1809 2088 1625 2088 
L 1069 2088 
L 916 2559 
L 1428 2534 
Q 1463 2534 1506 2570 
Q 1550 2606 1550 2644 
L 1550 3163 
L 647 2950 
L 372 3397 
Q 981 3500 1550 3641 
L 1550 4238 
L 609 4238 
L 609 4703 
L 1550 4703 
L 1550 5331 
L 2034 5331 
L 2034 4703 
L 2656 4703 
L 2656 4238 
L 2034 4238 
L 2034 3731 
L 2694 3897 
L 2694 3450 
z
M 5434 1825 
Q 5434 1313 5343 689 
Q 5253 66 5083 -139 
Q 4913 -344 4634 -344 
Q 4488 -344 3928 -263 
L 3769 250 
L 4231 134 
Q 4403 128 4519 128 
Q 4666 128 4692 137 
Q 4719 147 4776 278 
Q 4834 409 4863 672 
L 4941 1356 
L 3450 1356 
Q 3038 -91 781 -366 
L 569 116 
Q 2350 209 2950 1356 
L 728 1356 
L 728 1825 
L 3041 1825 
L 3078 2181 
L 3553 2100 
L 3506 1825 
L 5434 1825 
z
" transform="scale(0.015625)"/>
     </defs>
     <use xlink:href="#ArialUnicodeMS-6708"/>
     <use xlink:href="#ArialUnicodeMS-5ea6" transform="translate(100 0)"/>
     <use xlink:href="#ArialUnicodeMS-6b63" transform="translate(200 0)"/>
     <use xlink:href="#ArialUnicodeMS-5f0f" transform="translate(300 0)"/>
     <use xlink:href="#ArialUnicodeMS-5e16" transform="translate(400 0)"/>
     <use xlink:href="#ArialUnicodeMS-5b50" transform="translate(500 0)"/>
     <use xlink:href="#ArialUnicodeMS-8d8b" transform="translate(600 0)"/>
     <use xlink:href="#ArialUnicodeMS-52bf" transform="translate(700 0)"/>
    </g>
   </g>
   <g id="legend_1">
    <g id="line2d_35">
     <path d="M 51.379531 33.897187 
L 60.379531 33.897187 
L 69.379531 33.897187 
" style="fill: none; stroke: #355070; stroke-width: 2.3; stroke-linecap: square"/>
     <g>
      <use xlink:href="#m02516e5531" x="60.379531" y="33.897187" style="fill: #355070; stroke: #355070"/>
     </g>
    </g>
    <g id="text_27">
     <!-- 正式帖子数 -->
     <g transform="translate(76.579531 37.047187) scale(0.09 -0.09)">
      <use xlink:href="#ArialUnicodeMS-6b63"/>
      <use xlink:href="#ArialUnicodeMS-5f0f" transform="translate(100 0)"/>
      <use xlink:href="#ArialUnicodeMS-5e16" transform="translate(200 0)"/>
      <use xlink:href="#ArialUnicodeMS-5b50" transform="translate(300 0)"/>
      <use xlink:href="#ArialUnicodeMS-6570" transform="translate(400 0)"/>
     </g>
    </g>
    <g id="line2d_36">
     <path d="M 51.379531 46.675781 
L 60.379531 46.675781 
L 69.379531 46.675781 
" style="fill: none; stroke-dasharray: 6.66,2.88; stroke-dashoffset: 0; stroke: #b56576; stroke-width: 1.8"/>
    </g>
    <g id="text_28">
     <!-- 3个月滚动均值 -->
     <g transform="translate(76.579531 49.825781) scale(0.09 -0.09)">
      <defs>
       <path id="ArialUnicodeMS-4e2a" d="M 6113 2503 
L 5728 2163 
Q 3956 3153 3200 4469 
Q 2788 3750 2070 3109 
Q 1353 2469 609 2156 
L 191 2491 
Q 2191 3438 3116 5325 
L 3547 5125 
L 3463 4947 
Q 4066 3694 6113 2503 
z
M 3406 -447 
L 2919 -447 
L 2919 3531 
L 3406 3531 
L 3406 -447 
z
" transform="scale(0.015625)"/>
       <path id="ArialUnicodeMS-6eda" d="M 5894 4275 
L 1888 4275 
L 1888 4744 
L 3647 4744 
Q 3434 4928 3047 5019 
L 3341 5381 
Q 3850 5266 4281 4884 
L 4147 4744 
L 5894 4744 
L 5894 4275 
z
M 1753 4097 
L 1319 3769 
Q 1063 4384 416 4800 
L 800 5106 
Q 1384 4756 1753 4097 
z
M 3372 3878 
Q 2853 3347 1875 3003 
L 1522 3397 
Q 2566 3706 3028 4184 
L 3372 3878 
z
M 6069 3372 
L 5716 3009 
Q 5138 3628 4184 3828 
L 4519 4178 
Q 5372 4016 6069 3372 
z
M 6150 141 
L 5819 -281 
Q 4288 291 3547 1734 
Q 3409 1569 3231 1409 
L 3231 178 
L 4206 616 
L 4206 116 
L 2919 -506 
L 2638 -116 
Q 2747 -9 2747 91 
L 2747 984 
Q 2216 500 1766 238 
L 1422 634 
Q 2416 1169 3256 2181 
Q 2994 2159 2547 2059 
L 2309 2522 
Q 3022 2881 3719 3809 
L 4147 3525 
Q 3625 2922 3116 2606 
L 4703 2706 
Q 4531 2834 4134 3009 
L 4506 3278 
Q 5250 3003 5747 2234 
L 5363 1972 
L 5644 1709 
Q 5103 1166 4703 966 
Q 5175 491 6150 141 
z
M 5300 2028 
Q 5175 2241 5075 2322 
L 3950 2241 
L 3853 2100 
Q 4103 1613 4422 1288 
Q 4875 1553 5300 2028 
z
M 1588 2797 
L 1172 2472 
Q 856 3109 281 3469 
L 634 3763 
Q 1213 3459 1588 2797 
z
M 1728 2028 
Q 1369 413 709 -359 
L 313 -44 
Q 994 788 1294 2259 
L 1728 2028 
z
" transform="scale(0.015625)"/>
       <path id="ArialUnicodeMS-52a8" d="M 5678 3834 
Q 5613 2631 5508 1595 
Q 5403 559 5328 262 
Q 5253 -34 5048 -161 
Q 4844 -288 4591 -288 
Q 4416 -288 4097 -256 
Q 4016 25 3944 238 
Q 4550 172 4644 172 
Q 4703 172 4812 456 
Q 4922 741 5023 1741 
Q 5125 2741 5159 3391 
L 4359 3391 
Q 4366 1738 3883 889 
Q 3400 41 2528 -384 
L 2156 25 
Q 2716 300 3009 634 
Q 2913 850 2719 1075 
Q 1478 731 763 475 
L 428 959 
Q 678 1172 1014 1786 
Q 1350 2400 1503 2906 
L 353 2906 
L 353 3372 
L 3144 3372 
L 3144 2906 
L 2041 2906 
Q 1500 1597 1125 1125 
L 1141 1113 
L 2444 1484 
Q 2397 1556 2125 1797 
L 2478 2047 
Q 3131 1475 3359 997 
Q 3528 1178 3697 1742 
Q 3866 2306 3866 2888 
L 3866 3391 
L 3194 3391 
L 3194 3834 
L 3866 3834 
L 3866 5319 
L 4353 5325 
L 4353 3834 
L 5678 3834 
z
M 2881 4219 
L 603 4219 
L 603 4659 
L 2881 4659 
L 2881 4219 
z
" transform="scale(0.015625)"/>
       <path id="ArialUnicodeMS-5747" d="M 5797 4459 
Q 5772 1716 5730 978 
Q 5688 241 5458 -81 
Q 5228 -403 4744 -403 
Q 4606 -403 4006 -306 
L 3847 250 
Q 4413 128 4788 128 
Q 5022 128 5133 340 
Q 5244 553 5283 1968 
Q 5322 3384 5306 3994 
L 3347 3994 
Q 3056 3181 2559 2650 
L 2156 2944 
Q 2253 3025 2344 3128 
L 1728 3128 
L 1728 1441 
L 2541 1766 
L 2541 1259 
L 641 538 
L 319 978 
L 1241 1288 
L 1241 3128 
L 488 3128 
L 488 3597 
L 1241 3597 
L 1241 5100 
L 1728 5100 
L 1728 3597 
L 2413 3597 
L 2413 3231 
Q 3006 4097 3194 5319 
L 3675 5166 
Q 3572 4644 3494 4459 
L 5797 4459 
z
M 4813 2566 
L 2888 2566 
L 2888 3041 
L 4813 3041 
L 4813 2566 
z
M 4959 1900 
L 4959 1409 
Q 4266 1156 2706 709 
L 2431 1153 
Q 4391 1697 4959 1900 
z
" transform="scale(0.015625)"/>
       <path id="ArialUnicodeMS-503c" d="M 6034 -172 
L 1791 -172 
L 1791 294 
L 2344 294 
L 2344 3853 
L 3425 3853 
Q 3544 4109 3609 4341 
L 1925 4341 
L 1919 4672 
Q 1841 4369 1691 3981 
L 1544 3622 
L 1544 -434 
L 1056 -434 
L 1056 2753 
Q 859 2466 634 2241 
L 238 2516 
Q 1222 3619 1588 5325 
L 2028 5172 
Q 2009 5038 1953 4806 
L 3731 4806 
Q 3772 4997 3781 5338 
L 4275 5253 
Q 4275 5013 4225 4806 
L 5813 4806 
L 5813 4341 
L 4134 4341 
Q 4091 4188 3956 3853 
L 5409 3853 
L 5409 294 
L 6034 294 
L 6034 -172 
z
M 4922 2994 
L 4922 3384 
L 2828 3384 
L 2828 2994 
L 4922 2994 
z
M 4922 2138 
L 4922 2584 
L 2828 2584 
L 2828 2138 
L 4922 2138 
z
M 4922 1241 
L 4922 1716 
L 2828 1716 
L 2828 1241 
L 4922 1241 
z
M 4922 294 
L 4922 825 
L 2828 825 
L 2828 294 
L 4922 294 
z
" transform="scale(0.015625)"/>
      </defs>
      <use xlink:href="#ArialUnicodeMS-33"/>
      <use xlink:href="#ArialUnicodeMS-4e2a" transform="translate(55.615234 0)"/>
      <use xlink:href="#ArialUnicodeMS-6708" transform="translate(155.615234 0)"/>
      <use xlink:href="#ArialUnicodeMS-6eda" transform="translate(255.615234 0)"/>
      <use xlink:href="#ArialUnicodeMS-52a8" transform="translate(355.615234 0)"/>
      <use xlink:href="#ArialUnicodeMS-5747" transform="translate(455.615234 0)"/>
      <use xlink:href="#ArialUnicodeMS-503c" transform="translate(555.615234 0)"/>
     </g>
    </g>
   </g>
  </g>
 </g>
 <defs>
  <clipPath id="p694acf1dfd">
   <rect x="43.279531" y="22.505156" width="624.96" height="266.112"/>
  </clipPath>
 </defs>
</svg>
