<?xml version="1.0" encoding="utf-8" standalone="no"?>
<!DOCTYPE svg PUBLIC "-//W3C//DTD SVG 1.1//EN"
  "http://www.w3.org/Graphics/SVG/1.1/DTD/svg11.dtd">
<svg xmlns:xlink="http://www.w3.org/1999/xlink" width="542.916875pt" height="312.178562pt" viewBox="0 0 542.916875 312.178562" xmlns="http://www.w3.org/2000/svg" version="1.1">
 <metadata>
  <rdf:RDF xmlns:dc="http://purl.org/dc/elements/1.1/" xmlns:cc="http://creativecommons.org/ns#" xmlns:rdf="http://www.w3.org/1999/02/22-rdf-syntax-ns#">
   <cc:Work>
    <dc:type rdf:resource="http://purl.org/dc/dcmitype/StillImage"/>
    <dc:date>2026-04-16T02:44:56.472035</dc:date>
    <dc:format>image/svg+xml</dc:format>
    <dc:creator>
     <cc:Agent>
      <dc:title>Matplotlib v3.10.8, https://matplotlib.org/</dc:title>
     </cc:Agent>
    </dc:creator>
   </cc:Work>
  </rdf:RDF>
 </metadata>
 <defs>
  <style type="text/css">*{stroke-linejoin: round; stroke-linecap: butt}</style>
 </defs>
 <g id="figure_1">
  <g id="patch_1">
   <path d="M 0 312.178562 
L 542.916875 312.178562 
L 542.916875 0 
L 0 0 
z
" style="fill: #ffffff"/>
  </g>
  <g id="axes_1">
   <g id="patch_2">
    <path d="M 44.676875 288.617156 
L 535.716875 288.617156 
L 535.716875 22.505156 
L 44.676875 22.505156 
z
" style="fill: #ffffff"/>
   </g>
   <g id="patch_3">
    <path d="M 66.996875 288.617156 
L 135.09179 288.617156 
L 135.09179 29.166721 
L 66.996875 29.166721 
z
" clip-path="url(#p1de54cc0fb)" style="fill: #6c7a89"/>
   </g>
   <g id="patch_4">
    <path d="M 161.573146 288.617156 
L 229.668061 288.617156 
L 229.668061 34.982701 
L 161.573146 34.982701 
z
" clip-path="url(#p1de54cc0fb)" style="fill: #6c7a89"/>
   </g>
   <g id="patch_5">
    <path d="M 256.149417 288.617156 
L 324.244333 288.617156 
L 324.244333 31.507785 
L 256.149417 31.507785 
z
" clip-path="url(#p1de54cc0fb)" style="fill: #6c7a89"/>
   </g>
   <g id="patch_6">
    <path d="M 350.725689 288.617156 
L 418.820604 288.617156 
L 418.820604 31.663369 
L 350.725689 31.663369 
z
" clip-path="url(#p1de54cc0fb)" style="fill: #6c7a89"/>
   </g>
   <g id="patch_7">
    <path d="M 445.30196 288.617156 
L 513.396875 288.617156 
L 513.396875 32.103172 
L 445.30196 32.103172 
z
" clip-path="url(#p1de54cc0fb)" style="fill: #6c7a89"/>
   </g>
   <g id="patch_8">
    <path d="M 66.996875 29.166721 
L 135.09179 29.166721 
L 135.09179 28.465504 
L 66.996875 28.465504 
z
" clip-path="url(#p1de54cc0fb)" style="fill: #c89b3c"/>
   </g>
   <g id="patch_9">
    <path d="M 161.573146 34.982701 
L 229.668061 34.982701 
L 229.668061 33.167785 
L 161.573146 33.167785 
z
" clip-path="url(#p1de54cc0fb)" style="fill: #c89b3c"/>
   </g>
   <g id="patch_10">
    <path d="M 256.149417 31.507785 
L 324.244333 31.507785 
L 324.244333 30.771422 
L 256.149417 30.771422 
z
" clip-path="url(#p1de54cc0fb)" style="fill: #c89b3c"/>
   </g>
   <g id="patch_11">
    <path d="M 350.725689 31.663369 
L 418.820604 31.663369 
L 418.820604 31.21178 
L 350.725689 31.21178 
z
" clip-path="url(#p1de54cc0fb)" style="fill: #c89b3c"/>
   </g>
   <g id="patch_12">
    <path d="M 445.30196 32.103172 
L 513.396875 32.103172 
L 513.396875 31.360352 
L 445.30196 31.360352 
z
" clip-path="url(#p1de54cc0fb)" style="fill: #c89b3c"/>
   </g>
   <g id="patch_13">
    <path d="M 66.996875 28.465504 
L 135.09179 28.465504 
L 135.09179 24.2582 
L 66.996875 24.2582 
z
" clip-path="url(#p1de54cc0fb)" style="fill: #2f7f6f"/>
   </g>
   <g id="patch_14">
    <path d="M 161.573146 33.167785 
L 229.668061 33.167785 
L 229.668061 28.063335 
L 161.573146 28.063335 
z
" clip-path="url(#p1de54cc0fb)" style="fill: #2f7f6f"/>
   </g>
   <g id="patch_15">
    <path d="M 256.149417 30.771422 
L 324.244333 30.771422 
L 324.244333 26.519521 
L 256.149417 26.519521 
z
" clip-path="url(#p1de54cc0fb)" style="fill: #2f7f6f"/>
   </g>
   <g id="patch_16">
    <path d="M 350.725689 31.21178 
L 418.820604 31.21178 
L 418.820604 26.948786 
L 350.725689 26.948786 
z
" clip-path="url(#p1de54cc0fb)" style="fill: #2f7f6f"/>
   </g>
   <g id="patch_17">
    <path d="M 445.30196 31.360352 
L 513.396875 31.360352 
L 513.396875 26.251836 
L 445.30196 26.251836 
z
" clip-path="url(#p1de54cc0fb)" style="fill: #2f7f6f"/>
   </g>
   <g id="patch_18">
    <path d="M 66.996875 24.2582 
L 135.09179 24.2582 
L 135.09179 23.907591 
L 66.996875 23.907591 
z
" clip-path="url(#p1de54cc0fb)" style="fill: #c05a5a"/>
   </g>
   <g id="patch_19">
    <path d="M 161.573146 28.063335 
L 229.668061 28.063335 
L 229.668061 25.340962 
L 161.573146 25.340962 
z
" clip-path="url(#p1de54cc0fb)" style="fill: #c05a5a"/>
   </g>
   <g id="patch_20">
    <path d="M 256.149417 26.519521 
L 324.244333 26.519521 
L 324.244333 25.118056 
L 256.149417 25.118056 
z
" clip-path="url(#p1de54cc0fb)" style="fill: #c05a5a"/>
   </g>
   <g id="patch_21">
    <path d="M 350.725689 26.948786 
L 418.820604 26.948786 
L 418.820604 25.142432 
L 350.725689 25.142432 
z
" clip-path="url(#p1de54cc0fb)" style="fill: #c05a5a"/>
   </g>
   <g id="patch_22">
    <path d="M 445.30196 26.251836 
L 513.396875 26.251836 
L 513.396875 24.688004 
L 445.30196 24.688004 
z
" clip-path="url(#p1de54cc0fb)" style="fill: #c05a5a"/>
   </g>
   <g id="patch_23">
    <path d="M 66.996875 23.907591 
L 135.09179 23.907591 
L 135.09179 22.505156 
L 66.996875 22.505156 
z
" clip-path="url(#p1de54cc0fb)" style="fill: #7e4a65"/>
   </g>
   <g id="patch_24">
    <path d="M 161.573146 25.340962 
L 229.668061 25.340962 
L 229.668061 22.505156 
L 161.573146 22.505156 
z
" clip-path="url(#p1de54cc0fb)" style="fill: #7e4a65"/>
   </g>
   <g id="patch_25">
    <path d="M 256.149417 25.118056 
L 324.244333 25.118056 
L 324.244333 22.505156 
L 256.149417 22.505156 
z
" clip-path="url(#p1de54cc0fb)" style="fill: #7e4a65"/>
   </g>
   <g id="patch_26">
    <path d="M 350.725689 25.142432 
L 418.820604 25.142432 
L 418.820604 22.505156 
L 350.725689 22.505156 
z
" clip-path="url(#p1de54cc0fb)" style="fill: #7e4a65"/>
   </g>
   <g id="patch_27">
    <path d="M 445.30196 24.688004 
L 513.396875 24.688004 
L 513.396875 22.505156 
L 445.30196 22.505156 
z
" clip-path="url(#p1de54cc0fb)" style="fill: #7e4a65"/>
   </g>
   <g id="matplotlib.axis_1">
    <g id="xtick_1">
     <g id="line2d_1">
      <defs>
       <path id="m46b2297e33" d="M 0 0 
L 0 3.5 
" style="stroke: #000000; stroke-width: 0.8"/>
      </defs>
      <g>
       <use xlink:href="#m46b2297e33" x="101.044333" y="288.617156" style="stroke: #000000; stroke-width: 0.8"/>
      </g>
     </g>
     <g id="text_1">
      <!-- 2024H1 -->
      <g transform="translate(85.28238 302.059187) scale(0.09 -0.09)">
       <defs>
        <path id="ArialUnicodeMS-32" d="M 3231 0 
L 197 0 
Q 197 388 467 784 
Q 738 1181 1478 1778 
Q 1931 2141 2287 2539 
Q 2644 2938 2644 3341 
Q 2644 3688 2398 3914 
Q 2153 4141 1778 4141 
Q 1400 4141 1144 3908 
Q 888 3675 884 3213 
L 306 3278 
Q 359 3922 764 4262 
Q 1169 4603 1791 4603 
Q 2466 4603 2842 4229 
Q 3219 3856 3219 3328 
Q 3219 2888 2901 2436 
Q 2584 1984 1638 1228 
Q 1141 831 978 544 
L 3231 544 
L 3231 0 
z
" transform="scale(0.015625)"/>
        <path id="ArialUnicodeMS-30" d="M 1778 4603 
Q 3272 4603 3272 2259 
Q 3272 1075 2886 498 
Q 2500 -78 1778 -78 
Q 288 -78 288 2259 
Q 288 3444 673 4023 
Q 1059 4603 1778 4603 
z
M 1778 384 
Q 2231 384 2462 823 
Q 2694 1263 2694 2259 
Q 2694 2953 2592 3351 
Q 2491 3750 2286 3945 
Q 2081 4141 1772 4141 
Q 1319 4141 1091 3694 
Q 863 3247 863 2259 
Q 863 1575 966 1175 
Q 1069 775 1272 579 
Q 1475 384 1778 384 
z
" transform="scale(0.015625)"/>
        <path id="ArialUnicodeMS-34" d="M 3263 1094 
L 2644 1094 
L 2644 0 
L 2081 0 
L 2081 1094 
L 97 1094 
L 97 1613 
L 2181 4581 
L 2644 4581 
L 2644 1613 
L 3263 1613 
L 3263 1094 
z
M 2081 1613 
L 2081 3681 
L 2069 3681 
L 647 1613 
L 2081 1613 
z
" transform="scale(0.015625)"/>
        <path id="ArialUnicodeMS-48" d="M 4109 0 
L 3500 0 
L 3500 2156 
L 1119 2156 
L 1119 0 
L 513 0 
L 513 4581 
L 1119 4581 
L 1119 2700 
L 3500 2700 
L 3500 4581 
L 4109 4581 
L 4109 0 
z
" transform="scale(0.015625)"/>
        <path id="ArialUnicodeMS-31" d="M 2400 0 
L 1838 0 
L 1838 3584 
Q 1416 3184 709 2906 
L 709 3450 
Q 1681 3916 2034 4603 
L 2400 4603 
L 2400 0 
z
" transform="scale(0.015625)"/>
       </defs>
       <use xlink:href="#ArialUnicodeMS-32"/>
       <use xlink:href="#ArialUnicodeMS-30" transform="translate(55.615234 0)"/>
       <use xlink:href="#ArialUnicodeMS-32" transform="translate(111.230469 0)"/>
       <use xlink:href="#ArialUnicodeMS-34" transform="translate(166.845703 0)"/>
       <use xlink:href="#ArialUnicodeMS-48" transform="translate(222.460938 0)"/>
       <use xlink:href="#ArialUnicodeMS-31" transform="translate(294.677734 0)"/>
      </g>
     </g>
    </g>
    <g id="xtick_2">
     <g id="line2d_2">
      <g>
       <use xlink:href="#m46b2297e33" x="195.620604" y="288.617156" style="stroke: #000000; stroke-width: 0.8"/>
      </g>
     </g>
     <g id="text_2">
      <!-- 2024H2 -->
      <g transform="translate(179.858651 302.059187) scale(0.09 -0.09)">
       <use xlink:href="#ArialUnicodeMS-32"/>
       <use xlink:href="#ArialUnicodeMS-30" transform="translate(55.615234 0)"/>
       <use xlink:href="#ArialUnicodeMS-32" transform="translate(111.230469 0)"/>
       <use xlink:href="#ArialUnicodeMS-34" transform="translate(166.845703 0)"/>
       <use xlink:href="#ArialUnicodeMS-48" transform="translate(222.460938 0)"/>
       <use xlink:href="#ArialUnicodeMS-32" transform="translate(294.677734 0)"/>
      </g>
     </g>
    </g>
    <g id="xtick_3">
     <g id="line2d_3">
      <g>
       <use xlink:href="#m46b2297e33" x="290.196875" y="288.617156" style="stroke: #000000; stroke-width: 0.8"/>
      </g>
     </g>
     <g id="text_3">
      <!-- 2025H1 -->
      <g transform="translate(274.434922 302.059187) scale(0.09 -0.09)">
       <defs>
        <path id="ArialUnicodeMS-35" d="M 1013 2753 
Q 1431 3041 1881 3041 
Q 2453 3041 2878 2636 
Q 3303 2231 3303 1556 
Q 3303 875 2872 398 
Q 2441 -78 1741 -78 
Q 1169 -78 750 245 
Q 331 569 269 1203 
L 856 1247 
Q 928 813 1162 598 
Q 1397 384 1741 384 
Q 2169 384 2434 707 
Q 2700 1031 2700 1503 
Q 2700 1984 2428 2262 
Q 2156 2541 1728 2541 
Q 1188 2541 897 2100 
L 366 2163 
L 813 4519 
L 3084 4519 
L 3084 3975 
L 1259 3975 
L 1013 2753 
z
" transform="scale(0.015625)"/>
       </defs>
       <use xlink:href="#ArialUnicodeMS-32"/>
       <use xlink:href="#ArialUnicodeMS-30" transform="translate(55.615234 0)"/>
       <use xlink:href="#ArialUnicodeMS-32" transform="translate(111.230469 0)"/>
       <use xlink:href="#ArialUnicodeMS-35" transform="translate(166.845703 0)"/>
       <use xlink:href="#ArialUnicodeMS-48" transform="translate(222.460938 0)"/>
       <use xlink:href="#ArialUnicodeMS-31" transform="translate(294.677734 0)"/>
      </g>
     </g>
    </g>
    <g id="xtick_4">
     <g id="line2d_4">
      <g>
       <use xlink:href="#m46b2297e33" x="384.773146" y="288.617156" style="stroke: #000000; stroke-width: 0.8"/>
      </g>
     </g>
     <g id="text_4">
      <!-- 2025H2 -->
      <g transform="translate(369.011193 302.059187) scale(0.09 -0.09)">
       <use xlink:href="#ArialUnicodeMS-32"/>
       <use xlink:href="#ArialUnicodeMS-30" transform="translate(55.615234 0)"/>
       <use xlink:href="#ArialUnicodeMS-32" transform="translate(111.230469 0)"/>
       <use xlink:href="#ArialUnicodeMS-35" transform="translate(166.845703 0)"/>
       <use xlink:href="#ArialUnicodeMS-48" transform="translate(222.460938 0)"/>
       <use xlink:href="#ArialUnicodeMS-32" transform="translate(294.677734 0)"/>
      </g>
     </g>
    </g>
    <g id="xtick_5">
     <g id="line2d_5">
      <g>
       <use xlink:href="#m46b2297e33" x="479.349417" y="288.617156" style="stroke: #000000; stroke-width: 0.8"/>
      </g>
     </g>
     <g id="text_5">
      <!-- 2026H1(部分) -->
      <g transform="translate(451.590745 303.088562) scale(0.09 -0.09)">
       <defs>
        <path id="ArialUnicodeMS-36" d="M 838 2363 
Q 1225 2969 1941 2969 
Q 2503 2969 2897 2553 
Q 3291 2138 3291 1491 
Q 3291 838 2898 380 
Q 2506 -78 1856 -78 
Q 1197 -78 733 409 
Q 269 897 269 2144 
Q 269 3369 689 3986 
Q 1109 4603 1906 4603 
Q 2422 4603 2778 4315 
Q 3134 4028 3213 3463 
L 2650 3413 
Q 2497 4141 1875 4141 
Q 1444 4141 1134 3712 
Q 825 3284 825 2363 
L 838 2363 
z
M 1844 384 
Q 2231 384 2472 696 
Q 2713 1009 2713 1453 
Q 2713 1897 2472 2187 
Q 2231 2478 1825 2478 
Q 1453 2478 1184 2204 
Q 916 1931 916 1484 
Q 916 1028 1180 706 
Q 1444 384 1844 384 
z
" transform="scale(0.015625)"/>
        <path id="ArialUnicodeMS-28" d="M 1900 -1344 
L 1497 -1344 
Q 978 -681 681 103 
Q 384 888 384 1656 
Q 384 2528 700 3275 
Q 1016 4022 1497 4659 
L 1900 4659 
Q 1344 3747 1155 3059 
Q 966 2372 966 1663 
Q 966 153 1900 -1344 
z
" transform="scale(0.015625)"/>
        <path id="ArialUnicodeMS-90e8" d="M 3681 4134 
L 622 4134 
L 622 4603 
L 1941 4603 
L 1941 5313 
L 2444 5313 
L 2444 4603 
L 3681 4603 
L 3681 4134 
z
M 5306 2875 
Q 6038 2188 6038 1400 
Q 6038 922 5795 634 
Q 5553 347 5166 384 
L 4756 422 
L 4628 959 
Q 5088 878 5166 878 
Q 5556 878 5556 1356 
Q 5556 2181 4794 2778 
Q 5006 3238 5416 4581 
L 4544 4581 
L 4544 -428 
L 4056 -428 
L 4056 5050 
L 5906 5050 
L 5906 4622 
Q 5484 3350 5306 2875 
z
M 3909 2450 
L 378 2450 
L 378 2919 
L 1588 2919 
Q 1363 3609 997 3922 
L 1422 4097 
Q 1822 3700 2047 3078 
L 1722 2919 
L 2222 2919 
Q 2700 3578 2797 4116 
L 3244 3922 
Q 3106 3459 2753 2919 
L 3909 2919 
L 3909 2450 
z
M 3316 -403 
L 2828 -403 
L 2828 38 
L 1394 38 
L 1394 -403 
L 909 -403 
L 909 1953 
L 3316 1953 
L 3316 -403 
z
M 2828 506 
L 2828 1484 
L 1394 1484 
L 1394 506 
L 2828 506 
z
" transform="scale(0.015625)"/>
        <path id="ArialUnicodeMS-5206" d="M 5991 3003 
L 5684 2553 
Q 4856 3041 4451 3534 
Q 4047 4028 3781 4831 
L 4319 4984 
Q 4375 4356 4829 3825 
Q 5284 3294 5991 3003 
z
M 2613 4697 
Q 2169 3484 800 2547 
L 416 2919 
Q 1731 3741 2188 4934 
L 2613 4697 
z
M 4872 2931 
Q 4844 1956 4730 1092 
Q 4616 228 4430 7 
Q 4244 -213 3847 -213 
Q 3469 -213 2894 -78 
L 2747 481 
Q 3503 269 3834 269 
Q 4013 269 4128 639 
Q 4244 1009 4341 2463 
L 3138 2463 
Q 2869 263 831 -441 
L 525 -31 
Q 2372 478 2631 2463 
L 1556 2463 
L 1556 2931 
L 4872 2931 
z
" transform="scale(0.015625)"/>
        <path id="ArialUnicodeMS-29" d="M 634 4659 
Q 1153 3997 1450 3212 
Q 1747 2428 1747 1656 
Q 1747 788 1431 41 
Q 1116 -706 634 -1344 
L 231 -1344 
Q 788 -431 977 255 
Q 1166 941 1166 1650 
Q 1166 3163 231 4659 
L 634 4659 
z
" transform="scale(0.015625)"/>
       </defs>
       <use xlink:href="#ArialUnicodeMS-32"/>
       <use xlink:href="#ArialUnicodeMS-30" transform="translate(55.615234 0)"/>
       <use xlink:href="#ArialUnicodeMS-32" transform="translate(111.230469 0)"/>
       <use xlink:href="#ArialUnicodeMS-36" transform="translate(166.845703 0)"/>
       <use xlink:href="#ArialUnicodeMS-48" transform="translate(222.460938 0)"/>
       <use xlink:href="#ArialUnicodeMS-31" transform="translate(294.677734 0)"/>
       <use xlink:href="#ArialUnicodeMS-28" transform="translate(350.292969 0)"/>
       <use xlink:href="#ArialUnicodeMS-90e8" transform="translate(383.59375 0)"/>
       <use xlink:href="#ArialUnicodeMS-5206" transform="translate(483.59375 0)"/>
       <use xlink:href="#ArialUnicodeMS-29" transform="translate(583.59375 0)"/>
      </g>
     </g>
    </g>
   </g>
   <g id="matplotlib.axis_2">
    <g id="ytick_1">
     <g id="line2d_6">
      <path d="M 44.676875 288.617156 
L 535.716875 288.617156 
" clip-path="url(#p1de54cc0fb)" style="fill: none; stroke-dasharray: 2.96,1.28; stroke-dashoffset: 0; stroke: #d6dadf; stroke-opacity: 0.7; stroke-width: 0.8"/>
     </g>
     <g id="line2d_7">
      <defs>
       <path id="m155a2ac302" d="M 0 0 
L -3.5 0 
" style="stroke: #000000; stroke-width: 0.8"/>
      </defs>
      <g>
       <use xlink:href="#m155a2ac302" x="44.676875" y="288.617156" style="stroke: #000000; stroke-width: 0.8"/>
      </g>
     </g>
     <g id="text_6">
      <!-- 0 -->
      <g transform="translate(32.672031 291.838172) scale(0.09 -0.09)">
       <use xlink:href="#ArialUnicodeMS-30"/>
      </g>
     </g>
    </g>
    <g id="ytick_2">
     <g id="line2d_8">
      <path d="M 44.676875 235.394756 
L 535.716875 235.394756 
" clip-path="url(#p1de54cc0fb)" style="fill: none; stroke-dasharray: 2.96,1.28; stroke-dashoffset: 0; stroke: #d6dadf; stroke-opacity: 0.7; stroke-width: 0.8"/>
     </g>
     <g id="line2d_9">
      <g>
       <use xlink:href="#m155a2ac302" x="44.676875" y="235.394756" style="stroke: #000000; stroke-width: 0.8"/>
      </g>
     </g>
     <g id="text_7">
      <!-- 20 -->
      <g transform="translate(27.667188 238.615772) scale(0.09 -0.09)">
       <use xlink:href="#ArialUnicodeMS-32"/>
       <use xlink:href="#ArialUnicodeMS-30" transform="translate(55.615234 0)"/>
      </g>
     </g>
    </g>
    <g id="ytick_3">
     <g id="line2d_10">
      <path d="M 44.676875 182.172356 
L 535.716875 182.172356 
" clip-path="url(#p1de54cc0fb)" style="fill: none; stroke-dasharray: 2.96,1.28; stroke-dashoffset: 0; stroke: #d6dadf; stroke-opacity: 0.7; stroke-width: 0.8"/>
     </g>
     <g id="line2d_11">
      <g>
       <use xlink:href="#m155a2ac302" x="44.676875" y="182.172356" style="stroke: #000000; stroke-width: 0.8"/>
      </g>
     </g>
     <g id="text_8">
      <!-- 40 -->
      <g transform="translate(27.667188 185.393372) scale(0.09 -0.09)">
       <use xlink:href="#ArialUnicodeMS-34"/>
       <use xlink:href="#ArialUnicodeMS-30" transform="translate(55.615234 0)"/>
      </g>
     </g>
    </g>
    <g id="ytick_4">
     <g id="line2d_12">
      <path d="M 44.676875 128.949956 
L 535.716875 128.949956 
" clip-path="url(#p1de54cc0fb)" style="fill: none; stroke-dasharray: 2.96,1.28; stroke-dashoffset: 0; stroke: #d6dadf; stroke-opacity: 0.7; stroke-width: 0.8"/>
     </g>
     <g id="line2d_13">
      <g>
       <use xlink:href="#m155a2ac302" x="44.676875" y="128.949956" style="stroke: #000000; stroke-width: 0.8"/>
      </g>
     </g>
     <g id="text_9">
      <!-- 60 -->
      <g transform="translate(27.667188 132.170972) scale(0.09 -0.09)">
       <use xlink:href="#ArialUnicodeMS-36"/>
       <use xlink:href="#ArialUnicodeMS-30" transform="translate(55.615234 0)"/>
      </g>
     </g>
    </g>
    <g id="ytick_5">
     <g id="line2d_14">
      <path d="M 44.676875 75.727556 
L 535.716875 75.727556 
" clip-path="url(#p1de54cc0fb)" style="fill: none; stroke-dasharray: 2.96,1.28; stroke-dashoffset: 0; stroke: #d6dadf; stroke-opacity: 0.7; stroke-width: 0.8"/>
     </g>
     <g id="line2d_15">
      <g>
       <use xlink:href="#m155a2ac302" x="44.676875" y="75.727556" style="stroke: #000000; stroke-width: 0.8"/>
      </g>
     </g>
     <g id="text_10">
      <!-- 80 -->
      <g transform="translate(27.667188 78.948572) scale(0.09 -0.09)">
       <defs>
        <path id="ArialUnicodeMS-38" d="M 2425 2478 
Q 3284 2203 3284 1306 
Q 3284 716 2862 319 
Q 2441 -78 1778 -78 
Q 1109 -78 689 322 
Q 269 722 269 1325 
Q 269 1759 505 2084 
Q 741 2409 1141 2478 
L 1141 2491 
Q 453 2703 453 3419 
Q 453 3925 815 4264 
Q 1178 4603 1766 4603 
Q 2363 4603 2730 4253 
Q 3097 3903 3097 3406 
Q 3097 2731 2425 2491 
L 2425 2478 
z
M 1778 2700 
Q 2094 2700 2308 2901 
Q 2522 3103 2522 3406 
Q 2522 3716 2305 3928 
Q 2088 4141 1772 4141 
Q 1450 4141 1240 3931 
Q 1031 3722 1031 3438 
Q 1031 3097 1247 2898 
Q 1463 2700 1778 2700 
z
M 1778 384 
Q 2175 384 2440 640 
Q 2706 897 2706 1306 
Q 2706 1716 2432 1978 
Q 2159 2241 1766 2241 
Q 1356 2241 1100 1970 
Q 844 1700 844 1319 
Q 844 922 1108 653 
Q 1372 384 1778 384 
z
" transform="scale(0.015625)"/>
       </defs>
       <use xlink:href="#ArialUnicodeMS-38"/>
       <use xlink:href="#ArialUnicodeMS-30" transform="translate(55.615234 0)"/>
      </g>
     </g>
    </g>
    <g id="ytick_6">
     <g id="line2d_16">
      <path d="M 44.676875 22.505156 
L 535.716875 22.505156 
" clip-path="url(#p1de54cc0fb)" style="fill: none; stroke-dasharray: 2.96,1.28; stroke-dashoffset: 0; stroke: #d6dadf; stroke-opacity: 0.7; stroke-width: 0.8"/>
     </g>
     <g id="line2d_17">
      <g>
       <use xlink:href="#m155a2ac302" x="44.676875" y="22.505156" style="stroke: #000000; stroke-width: 0.8"/>
      </g>
     </g>
     <g id="text_11">
      <!-- 100 -->
      <g transform="translate(22.662344 25.726172) scale(0.09 -0.09)">
       <use xlink:href="#ArialUnicodeMS-31"/>
       <use xlink:href="#ArialUnicodeMS-30" transform="translate(55.615234 0)"/>
       <use xlink:href="#ArialUnicodeMS-30" transform="translate(111.230469 0)"/>
      </g>
     </g>
    </g>
    <g id="text_12">
     <!-- 占比（%） -->
     <g transform="translate(16.352344 182.451859) rotate(-90) scale(0.11 -0.11)">
      <defs>
       <path id="ArialUnicodeMS-5360" d="M 5778 3731 
L 3072 3731 
L 3072 2431 
L 5319 2431 
L 5319 -422 
L 4813 -422 
L 4813 103 
L 1684 103 
L 1684 -447 
L 1178 -447 
L 1178 2431 
L 2566 2431 
L 2566 5325 
L 3072 5325 
L 3072 4219 
L 5778 4219 
L 5778 3731 
z
M 4813 588 
L 4813 1947 
L 1684 1947 
L 1684 588 
L 4813 588 
z
" transform="scale(0.015625)"/>
       <path id="ArialUnicodeMS-6bd4" d="M 6119 1100 
Q 5975 -197 5300 -197 
L 4103 -197 
Q 3828 -197 3658 -42 
Q 3488 113 3488 378 
L 3488 5191 
L 3994 5191 
L 3994 2906 
Q 4775 3172 5600 3916 
L 5984 3584 
Q 5013 2703 3994 2388 
L 3994 506 
Q 4022 269 4225 269 
L 5153 269 
Q 5375 269 5464 464 
Q 5553 659 5625 1325 
L 6119 1100 
z
M 3238 306 
L 653 -231 
L 378 250 
L 1131 391 
L 1131 5166 
L 1638 5166 
L 1638 3450 
L 3238 3450 
L 3238 2981 
L 1638 2981 
L 1638 500 
L 3238 819 
L 3238 306 
z
" transform="scale(0.015625)"/>
       <path id="ArialUnicodeMS-ff08" d="M 3964 -1344 
L 3561 -1344 
Q 3042 -681 2745 103 
Q 2448 888 2448 1656 
Q 2448 2528 2764 3275 
Q 3080 4022 3561 4659 
L 3964 4659 
Q 3408 3747 3219 3059 
Q 3030 2372 3030 1663 
Q 3030 153 3964 -1344 
z
" transform="scale(0.015625)"/>
       <path id="ArialUnicodeMS-25" d="M 4325 4659 
L 1838 -159 
L 1369 -159 
L 3872 4659 
L 4325 4659 
z
M 1428 4653 
Q 1856 4653 2137 4343 
Q 2419 4034 2419 3438 
Q 2419 2850 2131 2539 
Q 1844 2228 1434 2228 
Q 1009 2228 739 2540 
Q 469 2853 469 3475 
Q 469 3984 722 4318 
Q 975 4653 1428 4653 
z
M 1441 2619 
Q 1931 2619 1931 3463 
Q 1931 4269 1441 4269 
Q 953 4269 953 3419 
Q 953 2619 1441 2619 
z
M 4250 2253 
Q 4681 2253 4961 1943 
Q 5241 1634 5241 1038 
Q 5241 600 5087 328 
Q 4934 56 4709 -58 
Q 4484 -172 4256 -172 
Q 3831 -172 3561 140 
Q 3291 453 3291 1075 
Q 3291 1584 3544 1918 
Q 3797 2253 4250 2253 
z
M 4263 219 
Q 4756 219 4756 1063 
Q 4756 1869 4263 1869 
Q 3775 1869 3775 1019 
Q 3775 219 4263 219 
z
" transform="scale(0.015625)"/>
       <path id="ArialUnicodeMS-ff09" d="M 2850 4659 
Q 3369 3997 3666 3212 
Q 3963 2428 3963 1656 
Q 3963 788 3647 41 
Q 3332 -706 2850 -1344 
L 2447 -1344 
Q 3004 -431 3193 255 
Q 3382 941 3382 1650 
Q 3382 3163 2447 4659 
L 2850 4659 
z
" transform="scale(0.015625)"/>
      </defs>
      <use xlink:href="#ArialUnicodeMS-5360"/>
      <use xlink:href="#ArialUnicodeMS-6bd4" transform="translate(100 0)"/>
      <use xlink:href="#ArialUnicodeMS-ff08" transform="translate(200 0)"/>
      <use xlink:href="#ArialUnicodeMS-25" transform="translate(300 0)"/>
      <use xlink:href="#ArialUnicodeMS-ff09" transform="translate(388.916016 0)"/>
     </g>
    </g>
   </g>
   <g id="patch_28">
    <path d="M 44.676875 288.617156 
L 44.676875 22.505156 
" style="fill: none; stroke: #5a6570; stroke-width: 0.8; stroke-linejoin: miter; stroke-linecap: square"/>
   </g>
   <g id="patch_29">
    <path d="M 44.676875 288.617156 
L 535.716875 288.617156 
" style="fill: none; stroke: #5a6570; stroke-width: 0.8; stroke-linejoin: miter; stroke-linecap: square"/>
   </g>
   <g id="text_13">
    <!-- 半年度评论态度结构 -->
    <g transform="translate(231.696875 16.505156) scale(0.13 -0.13)">
     <defs>
      <path id="ArialUnicodeMS-534a" d="M 5819 1288 
L 3406 1288 
L 3406 -428 
L 2913 -428 
L 2913 1281 
L 494 1281 
L 488 1753 
L 2913 1753 
L 2913 2491 
L 903 2491 
L 903 2950 
L 2913 2950 
L 2913 5275 
L 3406 5275 
L 3406 2950 
L 5403 2950 
L 5403 2491 
L 3413 2491 
L 3406 1753 
L 5819 1753 
L 5819 1288 
z
M 5478 4775 
Q 5206 3997 4300 3238 
L 3872 3578 
Q 4756 4178 5050 5056 
L 5478 4775 
z
M 2309 3456 
L 1888 3156 
Q 1463 4272 738 4684 
L 1166 4984 
Q 1819 4591 2309 3456 
z
" transform="scale(0.015625)"/>
      <path id="ArialUnicodeMS-5e74" d="M 5869 1409 
L 3659 1409 
L 3659 -434 
L 3156 -434 
L 3156 1409 
L 659 1409 
L 659 1875 
L 1459 1875 
L 1459 3384 
L 3156 3384 
L 3156 4219 
L 1838 4219 
Q 1425 3363 953 2931 
L 550 3256 
Q 1381 3994 1734 5381 
L 2144 5184 
Q 2122 4997 2022 4684 
L 5606 4684 
L 5606 4219 
L 3659 4219 
L 3659 3384 
L 5294 3384 
L 5294 2919 
L 3659 2919 
L 3659 1875 
L 5869 1875 
L 5869 1409 
z
M 3156 1875 
L 3156 2919 
L 1947 2919 
L 1947 1875 
L 3156 1875 
z
" transform="scale(0.015625)"/>
      <path id="ArialUnicodeMS-5ea6" d="M 5913 4269 
L 1363 4269 
L 1363 2278 
Q 1363 1144 1180 528 
Q 997 -88 684 -434 
L 294 -147 
Q 669 378 773 940 
Q 878 1503 878 2350 
L 878 4738 
L 3200 4738 
L 3200 5288 
L 3706 5288 
L 3706 4738 
L 5913 4738 
L 5913 4269 
z
M 5778 3194 
L 4728 3194 
L 4728 2303 
L 2350 2303 
L 2350 3194 
L 1472 3194 
L 1472 3659 
L 2350 3659 
L 2350 4147 
L 2828 4147 
L 2828 3659 
L 4244 3659 
L 4244 4147 
L 4728 4147 
L 4728 3659 
L 5778 3659 
L 5778 3194 
z
M 4244 2747 
L 4244 3194 
L 2834 3194 
L 2834 2747 
L 4244 2747 
z
M 6081 72 
L 5819 -397 
Q 4484 -216 3531 263 
Q 2494 -234 1388 -397 
L 1088 44 
Q 2078 134 3034 550 
Q 2509 934 2113 1528 
L 1625 1528 
L 1625 1972 
L 5159 1972 
L 5159 1544 
Q 4819 1025 4044 538 
Q 4963 166 6081 72 
z
M 4544 1528 
L 2700 1528 
Q 3125 1038 3531 781 
Q 4194 1159 4544 1528 
z
" transform="scale(0.015625)"/>
      <path id="ArialUnicodeMS-8bc4" d="M 2034 4397 
L 1631 4091 
Q 1334 4688 825 5056 
L 1166 5350 
Q 1703 4981 2034 4397 
z
M 6028 1856 
L 4447 1856 
L 4447 -428 
L 3963 -428 
L 3963 1856 
L 2369 1856 
L 2369 2322 
L 3963 2322 
L 3963 4563 
L 2566 4563 
L 2566 5031 
L 5797 5031 
L 5797 4563 
L 4447 4563 
L 4447 2322 
L 6028 2322 
L 6028 1856 
z
M 5684 4197 
Q 5584 3163 5147 2463 
L 4728 2694 
Q 5197 3441 5259 4359 
L 5684 4197 
z
M 3675 2700 
L 3225 2509 
Q 3031 3553 2631 4116 
L 3047 4325 
Q 3509 3625 3675 2700 
z
M 2759 341 
L 1619 -288 
L 1331 122 
Q 1375 175 1375 384 
L 1375 3103 
L 500 3103 
L 500 3572 
L 1863 3572 
L 1863 384 
L 2759 872 
L 2759 341 
z
" transform="scale(0.015625)"/>
      <path id="ArialUnicodeMS-8bba" d="M 6169 2809 
L 5806 2406 
Q 4478 3422 4006 4341 
Q 3475 3256 2203 2356 
L 1863 2741 
Q 2438 3113 2852 3559 
Q 3266 4006 3441 4301 
Q 3616 4597 3909 5300 
L 4353 5081 
L 4244 4813 
Q 4669 3881 6169 2809 
z
M 1984 4244 
L 1575 3909 
Q 1247 4531 691 4922 
L 1063 5241 
Q 1563 4963 1984 4244 
z
M 2463 519 
L 1216 -122 
L 991 275 
Q 1050 322 1050 403 
L 1050 2875 
L 331 2875 
L 331 3341 
L 1528 3341 
L 1528 550 
L 2463 1031 
L 2463 519 
z
M 5959 775 
Q 5719 -191 5313 -191 
L 3603 -191 
Q 2981 -191 2981 384 
L 2981 2731 
L 3463 2731 
L 3463 1691 
Q 4366 1950 5178 2656 
L 5522 2291 
Q 4625 1550 3463 1222 
L 3463 416 
Q 3463 250 3597 250 
L 5147 250 
Q 5278 250 5350 415 
Q 5422 581 5484 1044 
L 5959 775 
z
" transform="scale(0.015625)"/>
      <path id="ArialUnicodeMS-6001" d="M 5978 2075 
L 5672 1650 
Q 3828 2550 3213 3969 
L 3116 3969 
Q 3003 3581 2841 3309 
Q 3538 2913 3891 2425 
L 3506 2131 
Q 3125 2700 2613 2963 
Q 1934 2106 563 1684 
L 231 2138 
Q 1431 2503 1923 2934 
Q 2416 3366 2613 3969 
L 391 3969 
L 391 4409 
L 2741 4409 
Q 2766 4503 2834 5166 
L 3291 5100 
Q 3281 4706 3213 4409 
L 5831 4409 
L 5831 3969 
L 3713 3969 
Q 4350 2806 5978 2075 
z
M 3847 1081 
L 3438 781 
Q 3213 1431 2663 1875 
L 3053 2156 
Q 3644 1650 3847 1081 
z
M 4838 738 
Q 4719 128 4594 -76 
Q 4469 -281 4244 -281 
L 2413 -281 
Q 2234 -281 2100 -159 
Q 1966 -38 1966 122 
L 1966 1894 
L 2450 1894 
L 2450 288 
Q 2450 253 2500 218 
Q 2550 184 2559 184 
L 4147 184 
Q 4209 184 4264 284 
Q 4319 384 4331 519 
L 4372 928 
L 4838 738 
z
M 1819 1388 
Q 1481 641 666 19 
L 281 372 
Q 1056 947 1459 1638 
L 1819 1388 
z
M 5997 359 
L 5644 -6 
Q 5234 706 4488 1228 
L 4819 1556 
Q 5531 1078 5997 359 
z
" transform="scale(0.015625)"/>
      <path id="ArialUnicodeMS-7ed3" d="M 5972 3847 
L 4434 3847 
L 4434 2969 
L 5650 2969 
L 5650 2509 
L 2753 2509 
L 2753 2969 
L 3950 2969 
L 3950 3847 
L 2516 3847 
L 2516 4306 
L 3950 4306 
L 3950 5356 
L 4434 5356 
L 4434 4306 
L 5972 4306 
L 5972 3847 
z
M 2613 1728 
Q 2266 1631 1628 1482 
Q 991 1334 684 1234 
L 453 1663 
Q 1106 2319 1363 2725 
Q 863 2600 672 2534 
L 428 2975 
Q 925 3784 1503 5259 
L 1941 5056 
Q 1375 3766 1013 3116 
Q 1150 3134 1684 3250 
Q 1888 3556 2088 3956 
L 2516 3725 
Q 1875 2516 1247 1894 
L 1259 1881 
L 2613 2188 
L 2613 1728 
z
M 5466 -422 
L 4978 -422 
L 4978 19 
L 3413 19 
L 3413 -422 
L 2925 -422 
L 2925 1894 
L 5466 1894 
L 5466 -422 
z
M 4978 481 
L 4978 1434 
L 3413 1434 
L 3413 481 
L 4978 481 
z
M 2700 709 
L 703 31 
L 469 475 
Q 2447 1119 2700 1197 
L 2700 709 
z
" transform="scale(0.015625)"/>
      <path id="ArialUnicodeMS-6784" d="M 5881 4581 
L 5869 3028 
Q 5869 2181 5725 1093 
Q 5581 6 5389 -191 
Q 5197 -388 4941 -388 
Q 4788 -388 4384 -263 
L 4225 306 
Q 4341 275 4573 183 
Q 4806 91 4928 91 
Q 5066 91 5106 366 
L 5259 1369 
Q 5322 1784 5344 2297 
L 5409 4122 
L 3322 4122 
Q 3125 3428 2681 2803 
L 2259 3084 
Q 2956 4022 3059 5388 
L 3519 5234 
Q 3513 5059 3425 4581 
L 5881 4581 
z
M 2778 2088 
L 2369 1838 
Q 2175 2353 1856 2613 
L 1856 -378 
L 1375 -378 
L 1375 2203 
L 1363 2203 
Q 1194 1634 684 1038 
L 288 1338 
Q 1078 2188 1313 3628 
L 531 3628 
L 531 4097 
L 1369 4097 
L 1369 5338 
L 1856 5338 
L 1856 4097 
L 2584 4097 
L 2584 3634 
L 1856 3634 
L 1856 3022 
L 2022 3116 
Q 2672 2516 2778 2088 
z
M 5178 878 
L 4709 634 
Q 4669 1056 4628 1141 
Q 3647 997 3066 781 
L 2638 1241 
Q 3528 2541 3694 3719 
L 4172 3488 
Q 3866 2281 3475 1691 
L 3278 1388 
L 4475 1594 
Q 4456 1650 4345 1806 
Q 4234 1963 4184 2041 
L 4581 2259 
Q 5094 1675 5178 878 
z
" transform="scale(0.015625)"/>
     </defs>
     <use xlink:href="#ArialUnicodeMS-534a"/>
     <use xlink:href="#ArialUnicodeMS-5e74" transform="translate(100 0)"/>
     <use xlink:href="#ArialUnicodeMS-5ea6" transform="translate(200 0)"/>
     <use xlink:href="#ArialUnicodeMS-8bc4" transform="translate(300 0)"/>
     <use xlink:href="#ArialUnicodeMS-8bba" transform="translate(400 0)"/>
     <use xlink:href="#ArialUnicodeMS-6001" transform="translate(500 0)"/>
     <use xlink:href="#ArialUnicodeMS-5ea6" transform="translate(600 0)"/>
     <use xlink:href="#ArialUnicodeMS-7ed3" transform="translate(700 0)"/>
     <use xlink:href="#ArialUnicodeMS-6784" transform="translate(800 0)"/>
    </g>
   </g>
   <g id="legend_1">
    <g id="patch_30">
     <path d="M 52.776875 37.090781 
L 70.776875 37.090781 
L 70.776875 30.790781 
L 52.776875 30.790781 
z
" style="fill: #6c7a89"/>
    </g>
    <g id="text_14">
     <!-- 中性经验帖 -->
     <g transform="translate(77.976875 37.090781) scale(0.09 -0.09)">
      <defs>
       <path id="ArialUnicodeMS-4e2d" d="M 5503 1306 
L 4997 1306 
L 4997 1741 
L 3431 1741 
L 3431 -416 
L 2925 -416 
L 2925 1741 
L 1356 1741 
L 1344 1281 
L 838 1281 
L 838 4116 
L 2925 4116 
L 2925 5288 
L 3438 5288 
L 3425 4116 
L 5503 4116 
L 5503 1306 
z
M 4997 2209 
L 4997 3647 
L 3431 3647 
L 3431 2209 
L 4997 2209 
z
M 2925 2209 
L 2925 3647 
L 1344 3647 
L 1344 2209 
L 2925 2209 
z
" transform="scale(0.015625)"/>
       <path id="ArialUnicodeMS-6027" d="M 6088 6 
L 2322 6 
L 2322 475 
L 3928 475 
L 3928 1778 
L 2669 1778 
L 2669 2247 
L 3928 2247 
L 3928 3463 
L 3169 3463 
Q 2978 2881 2606 2375 
L 2113 2597 
Q 2363 2838 2438 3003 
L 2203 2900 
Q 2078 3494 1766 3866 
L 1766 -434 
L 1281 -434 
L 1281 5281 
L 1766 5281 
L 1766 3928 
L 2138 4128 
Q 2413 3813 2597 3347 
Q 2844 3763 2894 4775 
L 3378 4647 
Q 3363 4338 3291 3928 
L 3928 3928 
L 3928 5294 
L 4416 5294 
L 4416 3928 
L 5759 3928 
L 5759 3463 
L 4416 3463 
L 4416 2247 
L 5569 2247 
L 5569 1778 
L 4416 1778 
L 4416 475 
L 6088 475 
L 6088 6 
z
M 1241 3897 
Q 1175 2956 763 2344 
L 347 2528 
Q 819 3406 819 4025 
L 1241 3897 
z
" transform="scale(0.015625)"/>
       <path id="ArialUnicodeMS-7ecf" d="M 2828 3713 
Q 1481 1931 1125 1625 
L 1141 1613 
L 2516 1900 
L 2516 1472 
L 588 1038 
L 366 1466 
Q 622 1703 981 2126 
Q 1341 2550 1497 2725 
Q 1250 2694 581 2553 
L 366 2981 
Q 925 3763 1703 5241 
L 2100 4966 
Q 1428 3766 978 3091 
Q 1022 3091 1345 3145 
Q 1669 3200 1881 3213 
Q 2056 3450 2425 4000 
L 2828 3713 
z
M 6003 2328 
L 5672 1991 
Q 4900 2625 4097 2956 
Q 3525 2397 2503 2059 
L 2194 2472 
Q 3884 3034 4659 4500 
L 2509 4500 
L 2509 4941 
L 5288 4941 
L 5288 4531 
Q 4906 3850 4428 3322 
Q 5606 2741 6003 2328 
z
M 5991 -213 
L 2169 -213 
L 2169 231 
L 3794 231 
L 3794 1544 
L 2650 1544 
L 2650 2009 
L 5422 2009 
L 5422 1544 
L 4281 1544 
L 4281 231 
L 5991 231 
L 5991 -213 
z
M 2694 659 
L 647 -128 
L 372 347 
Q 950 519 1694 789 
Q 2438 1059 2694 1147 
L 2694 659 
z
" transform="scale(0.015625)"/>
       <path id="ArialUnicodeMS-9a8c" d="M 6034 2994 
L 5638 2650 
Q 5191 2994 5106 3072 
L 5100 2869 
L 3034 2869 
L 3034 3047 
Q 2850 2884 2472 2694 
L 2163 3128 
Q 3228 3622 3750 4806 
L 3988 5344 
L 4441 5178 
Q 4406 5022 4306 4825 
Q 5116 3509 6034 2994 
z
M 4838 3334 
Q 4313 3991 4116 4453 
Q 3781 3797 3328 3334 
L 4838 3334 
z
M 2444 2606 
Q 2253 166 2075 -118 
Q 1897 -403 1494 -403 
Q 1288 -403 916 -325 
Q 900 -266 869 -97 
Q 838 72 794 184 
Q 913 169 1152 116 
Q 1391 63 1519 63 
Q 1628 63 1695 238 
Q 1763 413 1959 2138 
L 525 2138 
L 525 2606 
Q 744 3528 744 4397 
L 1228 4219 
Q 1209 3416 1025 2606 
L 1569 2606 
Q 1722 3563 1722 4563 
L 403 4563 
L 403 5031 
L 2181 5031 
Q 2181 4103 2022 2606 
L 2444 2606 
z
M 4366 1275 
L 3903 1056 
Q 3866 1653 3372 2591 
L 3769 2766 
Q 4247 1969 4366 1275 
z
M 5900 -109 
L 2322 -109 
L 2322 359 
L 4347 359 
Q 4788 1172 4984 2619 
L 5459 2425 
Q 5219 1147 4850 359 
L 5900 359 
L 5900 -109 
z
M 3616 769 
L 3128 506 
Q 3078 1359 2522 2247 
L 2956 2431 
Q 3481 1738 3616 769 
z
M 1747 1269 
Q 1484 1119 494 691 
L 213 1178 
Q 691 1291 1747 1753 
L 1747 1269 
z
" transform="scale(0.015625)"/>
       <path id="ArialUnicodeMS-5e16" d="M 2791 1606 
Q 2791 1131 2400 1131 
L 2081 1131 
L 1953 1528 
L 1953 -422 
L 1466 -422 
L 1466 3603 
L 1069 3603 
L 1069 1063 
L 616 1063 
L 616 4072 
L 1466 4072 
L 1466 5331 
L 1953 5331 
L 1953 4072 
L 2791 4072 
L 2791 1606 
z
M 2338 1703 
L 2338 3603 
L 1953 3603 
L 1953 1613 
L 2241 1581 
Q 2338 1581 2338 1703 
z
M 6034 3653 
L 4416 3653 
L 4416 2322 
L 5563 2322 
L 5563 -422 
L 5075 -422 
L 5075 91 
L 3450 91 
L 3450 -422 
L 2963 -422 
L 2963 2322 
L 3928 2322 
L 3928 5306 
L 4416 5306 
L 4416 4122 
L 6034 4122 
L 6034 3653 
z
M 5075 556 
L 5075 1856 
L 3450 1856 
L 3450 556 
L 5075 556 
z
" transform="scale(0.015625)"/>
      </defs>
      <use xlink:href="#ArialUnicodeMS-4e2d"/>
      <use xlink:href="#ArialUnicodeMS-6027" transform="translate(100 0)"/>
      <use xlink:href="#ArialUnicodeMS-7ecf" transform="translate(200 0)"/>
      <use xlink:href="#ArialUnicodeMS-9a8c" transform="translate(300 0)"/>
      <use xlink:href="#ArialUnicodeMS-5e16" transform="translate(400 0)"/>
     </g>
    </g>
    <g id="patch_31">
     <path d="M 52.776875 49.825781 
L 70.776875 49.825781 
L 70.776875 43.525781 
L 52.776875 43.525781 
z
" style="fill: #c89b3c"/>
    </g>
    <g id="text_15">
     <!-- 积极但保留 -->
     <g transform="translate(77.976875 49.825781) scale(0.09 -0.09)">
      <defs>
       <path id="ArialUnicodeMS-79ef" d="M 2778 1753 
L 2350 1522 
Q 2106 2225 1797 2584 
L 1797 -397 
L 1313 -397 
L 1313 2253 
L 1306 2253 
Q 1069 1594 519 1025 
L 153 1369 
Q 953 2247 1253 3272 
L 347 3272 
L 347 3731 
L 1313 3731 
L 1313 4434 
Q 1128 4394 550 4325 
L 306 4806 
Q 1300 4828 2328 5313 
L 2584 4941 
Q 2013 4653 1797 4581 
L 1797 3731 
L 2656 3731 
L 2656 3272 
L 1797 3272 
L 1797 2894 
L 2047 3003 
Q 2466 2575 2778 1753 
z
M 5588 1941 
L 2816 1941 
L 2816 4934 
L 5588 4934 
L 5588 1941 
z
M 5100 2400 
L 5100 4475 
L 3303 4475 
L 3303 2400 
L 5100 2400 
z
M 3816 1491 
Q 3388 284 2631 -341 
L 2253 -6 
Q 2941 588 3419 1703 
L 3816 1491 
z
M 6009 -31 
L 5594 -319 
Q 5266 547 4453 1416 
L 4825 1678 
Q 5600 922 6009 -31 
z
" transform="scale(0.015625)"/>
       <path id="ArialUnicodeMS-6781" d="M 6222 -91 
L 5797 -469 
Q 4819 78 4475 475 
Q 3747 -184 3175 -453 
L 2828 -91 
Q 3834 481 4153 863 
Q 3713 1453 3488 2053 
Q 3488 2059 3491 2056 
Q 3494 2050 3450 1828 
Q 3347 1284 3097 778 
Q 2841 256 2478 -128 
L 2259 -359 
L 1894 -56 
L 1894 -403 
L 1416 -409 
L 1416 2169 
L 1403 2169 
Q 1244 1688 691 1050 
L 288 1369 
Q 1134 2266 1344 3597 
L 513 3597 
L 513 4063 
L 1416 4063 
L 1416 5306 
L 1894 5306 
L 1894 4063 
L 2688 4063 
L 2688 3597 
L 1900 3597 
L 1900 2944 
L 2034 3041 
Q 2684 2434 2809 1972 
L 2375 1684 
Q 2278 2113 1894 2491 
L 1894 25 
Q 2519 681 2764 1229 
Q 3009 1778 3009 2950 
L 3009 4550 
L 2478 4550 
L 2478 5025 
L 5484 5025 
L 5484 4538 
Q 5219 3819 4991 3397 
L 5734 3397 
Q 5725 1919 4813 844 
Q 5278 316 6222 -91 
z
M 5253 2938 
L 4409 2938 
L 4403 3372 
Q 4756 3966 4966 4550 
L 3506 4550 
L 3506 3519 
Q 3809 2106 4459 1247 
Q 5094 1891 5253 2938 
z
" transform="scale(0.015625)"/>
       <path id="ArialUnicodeMS-4f46" d="M 2163 5184 
Q 2066 4784 1847 4228 
L 1625 3688 
L 1625 -469 
L 1159 -469 
L 1159 2913 
Q 994 2619 575 2203 
L 197 2528 
Q 1269 3541 1722 5369 
L 2163 5184 
z
M 5338 953 
L 2516 953 
L 2516 4800 
L 5338 4800 
L 5338 953 
z
M 4831 3122 
L 4831 4331 
L 3003 4331 
L 3003 3122 
L 4831 3122 
z
M 4831 1422 
L 4831 2656 
L 3003 2656 
L 3003 1422 
L 4831 1422 
z
M 5978 -178 
L 1856 -178 
L 1856 288 
L 5978 288 
L 5978 -178 
z
" transform="scale(0.015625)"/>
       <path id="ArialUnicodeMS-4fdd" d="M 2125 5125 
Q 2084 4753 1897 4197 
L 1709 3653 
L 1709 -469 
L 1222 -469 
L 1222 2803 
Q 831 2284 581 2053 
L 225 2400 
Q 1444 3638 1684 5325 
L 2125 5125 
z
M 6175 366 
L 5797 6 
Q 4650 559 4122 1869 
L 4122 -447 
L 3634 -447 
L 3634 1753 
Q 3206 625 2100 -13 
L 1741 359 
Q 2656 794 3231 1972 
L 1925 1972 
L 1925 2438 
L 3634 2438 
L 3634 2950 
L 2375 2950 
L 2375 5019 
L 5325 5019 
L 5325 2950 
L 4122 2950 
L 4122 2438 
L 5797 2438 
L 5797 1972 
L 4575 1972 
Q 4928 988 6175 366 
z
M 4838 3419 
L 4838 4550 
L 2859 4550 
L 2859 3419 
L 4838 3419 
z
" transform="scale(0.015625)"/>
       <path id="ArialUnicodeMS-7559" d="M 5741 5019 
Q 5666 3128 5442 2879 
Q 5219 2631 4959 2631 
Q 4856 2631 4331 2772 
L 4275 3278 
Q 4738 3097 4909 3097 
Q 5153 3097 5184 3641 
L 5241 4550 
L 4391 4550 
Q 4303 3022 3109 2547 
L 2869 2847 
L 2528 2688 
Q 2475 2938 2431 3003 
L 728 2559 
L 481 3028 
L 891 3116 
L 891 4666 
Q 2113 4803 2809 5234 
L 3138 4897 
Q 2259 4422 1369 4288 
L 1369 3194 
L 2297 3406 
Q 2109 3738 1953 3884 
L 2363 4091 
Q 2756 3669 2963 3003 
Q 3841 3400 3909 4550 
L 3250 4550 
L 3250 5019 
L 5741 5019 
z
M 5269 -403 
L 4781 -403 
L 4781 -25 
L 1625 -25 
L 1625 -434 
L 1141 -434 
L 1141 2463 
L 5269 2463 
L 5269 -403 
z
M 4781 1472 
L 4781 1997 
L 3450 1997 
L 3450 1472 
L 4781 1472 
z
M 2963 1472 
L 2963 1997 
L 1625 1997 
L 1625 1472 
L 2963 1472 
z
M 4781 441 
L 4781 1006 
L 3450 1006 
L 3450 441 
L 4781 441 
z
M 2963 441 
L 2963 1006 
L 1625 1006 
L 1625 441 
L 2963 441 
z
" transform="scale(0.015625)"/>
      </defs>
      <use xlink:href="#ArialUnicodeMS-79ef"/>
      <use xlink:href="#ArialUnicodeMS-6781" transform="translate(100 0)"/>
      <use xlink:href="#ArialUnicodeMS-4f46" transform="translate(200 0)"/>
      <use xlink:href="#ArialUnicodeMS-4fdd" transform="translate(300 0)"/>
      <use xlink:href="#ArialUnicodeMS-7559" transform="translate(400 0)"/>
     </g>
    </g>
    <g id="patch_32">
     <path d="M 140.976875 37.090781 
L 158.976875 37.090781 
L 158.976875 30.790781 
L 140.976875 30.790781 
z
" style="fill: #2f7f6f"/>
    </g>
    <g id="text_16">
     <!-- 积极采用 -->
     <g transform="translate(166.176875 37.090781) scale(0.09 -0.09)">
      <defs>
       <path id="ArialUnicodeMS-91c7" d="M 5656 4928 
Q 4188 4256 934 4250 
L 738 4722 
Q 1975 4694 3336 4844 
Q 4697 4994 5350 5306 
L 5656 4928 
z
M 5363 4341 
Q 5247 3666 4531 2853 
L 4103 3097 
Q 4763 3759 4928 4525 
L 5363 4341 
z
M 3781 3103 
L 3303 2938 
Q 3175 3659 2700 4078 
L 3206 4256 
Q 3628 3747 3781 3103 
z
M 2284 2931 
L 1831 2713 
Q 1631 3503 1019 3922 
L 1491 4172 
Q 2013 3709 2284 2931 
z
M 6119 531 
L 5831 78 
Q 3900 763 3463 1813 
L 3463 -434 
L 2975 -434 
L 2975 1778 
L 2969 1778 
Q 2231 619 647 31 
L 331 475 
Q 1869 963 2541 1931 
L 703 1931 
L 703 2400 
L 2975 2400 
L 2975 2888 
L 3463 2888 
L 3463 2400 
L 5772 2400 
L 5772 1931 
L 3938 1931 
Q 4563 959 6119 531 
z
" transform="scale(0.015625)"/>
       <path id="ArialUnicodeMS-7528" d="M 5472 159 
Q 5472 -66 5340 -219 
Q 5209 -372 5013 -372 
L 4347 -372 
L 4191 128 
L 4722 113 
Q 4966 113 4966 256 
L 4966 1722 
L 3572 1722 
L 3572 13 
L 3084 13 
L 3084 1722 
L 1678 1722 
Q 1584 466 744 -469 
L 331 -159 
Q 794 394 1001 936 
Q 1209 1478 1209 2194 
L 1209 5044 
L 5472 5044 
L 5472 159 
z
M 4966 3641 
L 4966 4575 
L 3572 4575 
L 3572 3641 
L 4966 3641 
z
M 3084 3641 
L 3084 4575 
L 1697 4575 
L 1697 3641 
L 3084 3641 
z
M 4966 2188 
L 4966 3175 
L 3572 3175 
L 3572 2188 
L 4966 2188 
z
M 3084 2188 
L 3084 3175 
L 1697 3175 
L 1697 2188 
L 3084 2188 
z
" transform="scale(0.015625)"/>
      </defs>
      <use xlink:href="#ArialUnicodeMS-79ef"/>
      <use xlink:href="#ArialUnicodeMS-6781" transform="translate(100 0)"/>
      <use xlink:href="#ArialUnicodeMS-91c7" transform="translate(200 0)"/>
      <use xlink:href="#ArialUnicodeMS-7528" transform="translate(300 0)"/>
     </g>
    </g>
    <g id="patch_33">
     <path d="M 140.976875 49.825781 
L 158.976875 49.825781 
L 158.976875 43.525781 
L 140.976875 43.525781 
z
" style="fill: #c05a5a"/>
    </g>
    <g id="text_17">
     <!-- 批判/担忧 -->
     <g transform="translate(166.176875 49.825781) scale(0.09 -0.09)">
      <defs>
       <path id="ArialUnicodeMS-6279" d="M 2484 2203 
L 1791 1925 
L 1791 56 
Q 1791 -444 1166 -453 
L 756 -459 
L 556 56 
Q 969 31 1056 31 
Q 1288 31 1288 225 
L 1288 1753 
L 544 1447 
L 288 1888 
L 1288 2247 
L 1288 3553 
L 525 3553 
L 525 4019 
L 1288 4019 
L 1288 5269 
L 1791 5269 
L 1791 4019 
L 2456 4019 
L 2456 3553 
L 1791 3553 
L 1791 2425 
L 2484 2694 
L 2484 2203 
z
M 6150 966 
Q 6013 56 5806 -78 
Q 5600 -213 5363 -213 
L 4800 -213 
Q 4256 -213 4256 372 
L 4256 5147 
L 4744 5147 
L 4744 3194 
Q 5213 3391 5716 3916 
L 6053 3553 
Q 5563 2991 4744 2681 
L 4744 447 
Q 4744 256 4947 256 
L 5363 256 
Q 5484 256 5536 392 
Q 5588 528 5650 1184 
L 6150 966 
z
M 4056 184 
L 2234 -397 
L 1984 91 
L 2644 269 
L 2644 5147 
L 3128 5147 
L 3128 3463 
L 4031 3463 
L 4031 2994 
L 3128 2994 
L 3128 409 
L 4056 722 
L 4056 184 
z
" transform="scale(0.015625)"/>
       <path id="ArialUnicodeMS-5224" d="M 5747 219 
Q 5747 -447 5147 -428 
L 4494 -409 
L 4341 84 
L 4931 9 
Q 5259 9 5259 197 
L 5259 5325 
L 5747 5325 
L 5747 219 
z
M 4038 1409 
L 2534 1409 
L 2534 -441 
L 2047 -441 
L 2047 1409 
L 372 1409 
L 372 1875 
L 2047 1875 
L 2047 2694 
L 800 2694 
L 800 3163 
L 2047 3163 
L 2047 5288 
L 2534 5288 
L 2534 3163 
L 3750 3163 
L 3750 2694 
L 2534 2694 
L 2534 1875 
L 4038 1875 
L 4038 1409 
z
M 3897 4659 
Q 3672 3788 3250 3250 
L 2803 3481 
Q 3203 3928 3469 4831 
L 3897 4659 
z
M 1650 3391 
L 1166 3238 
Q 966 4053 531 4641 
L 953 4825 
Q 1506 4131 1650 3391 
z
M 4666 878 
L 4178 878 
L 4178 4513 
L 4666 4513 
L 4666 878 
z
" transform="scale(0.015625)"/>
       <path id="ArialUnicodeMS-2f" d="M 1778 4581 
L 453 -153 
L 0 -153 
L 1325 4581 
L 1778 4581 
z
" transform="scale(0.015625)"/>
       <path id="ArialUnicodeMS-62c5" d="M 2528 2463 
L 1825 2069 
L 1825 134 
Q 1800 -116 1631 -248 
Q 1463 -381 1094 -378 
L 763 -378 
L 556 122 
Q 909 97 1100 97 
Q 1225 97 1281 155 
Q 1338 213 1338 256 
L 1338 1831 
L 647 1484 
L 281 1856 
L 1338 2363 
L 1338 3647 
L 409 3647 
L 409 4116 
L 1338 4116 
L 1338 5350 
L 1825 5350 
L 1825 4116 
L 2528 4116 
L 2528 3647 
L 1825 3647 
L 1825 2625 
L 2528 2981 
L 2528 2463 
z
M 5594 1063 
L 2669 1063 
L 2669 5025 
L 5594 5025 
L 5594 1063 
z
M 5106 3322 
L 5106 4556 
L 3156 4556 
L 3156 3322 
L 5106 3322 
z
M 5106 1528 
L 5106 2853 
L 3156 2853 
L 3156 1528 
L 5106 1528 
z
M 6100 -50 
L 2188 -50 
L 2188 416 
L 6100 416 
L 6100 -50 
z
" transform="scale(0.015625)"/>
       <path id="ArialUnicodeMS-5fe7" d="M 5941 703 
Q 5853 184 5745 -11 
Q 5638 -206 5434 -206 
L 4616 -206 
Q 4425 -206 4279 -87 
Q 4134 31 4134 213 
L 4134 3175 
L 3822 3175 
Q 3859 1872 3500 1026 
Q 3141 181 2394 -475 
L 2016 -128 
Q 2716 481 3028 1197 
Q 3341 1913 3341 3175 
L 2572 3175 
L 2572 3641 
L 3334 3641 
L 3334 5253 
L 3822 5253 
L 3822 3641 
L 5888 3641 
L 5888 3175 
L 4622 3175 
L 4622 372 
Q 4622 263 4728 263 
L 5259 263 
Q 5400 263 5416 384 
L 5472 897 
L 5941 703 
z
M 2547 2719 
L 2081 2528 
Q 2022 3216 1759 3634 
L 1741 3634 
L 1741 -459 
L 1253 -459 
L 1253 5253 
L 1741 5253 
L 1741 3847 
L 2047 3988 
Q 2350 3563 2547 2719 
z
M 5472 4166 
L 5075 3859 
Q 4697 4400 4147 4722 
L 4513 5019 
Q 5097 4709 5472 4166 
z
M 1119 3963 
Q 1019 2928 722 2356 
L 306 2584 
Q 666 3234 722 4044 
L 1119 3963 
z
" transform="scale(0.015625)"/>
      </defs>
      <use xlink:href="#ArialUnicodeMS-6279"/>
      <use xlink:href="#ArialUnicodeMS-5224" transform="translate(100 0)"/>
      <use xlink:href="#ArialUnicodeMS-2f" transform="translate(200 0)"/>
      <use xlink:href="#ArialUnicodeMS-62c5" transform="translate(227.783203 0)"/>
      <use xlink:href="#ArialUnicodeMS-5fe7" transform="translate(327.783203 0)"/>
     </g>
    </g>
    <g id="patch_34">
     <path d="M 222.677188 37.090781 
L 240.677188 37.090781 
L 240.677188 30.790781 
L 222.677188 30.790781 
z
" style="fill: #7e4a65"/>
    </g>
    <g id="text_18">
     <!-- 明确拒绝 -->
     <g transform="translate(247.877187 37.090781) scale(0.09 -0.09)">
      <defs>
       <path id="ArialUnicodeMS-660e" d="M 5563 219 
Q 5563 34 5388 -117 
Q 5213 -269 5075 -269 
L 4384 -263 
L 4225 238 
Q 4616 197 4775 197 
Q 5075 197 5075 366 
L 5075 1656 
L 3641 1656 
Q 3525 422 2322 -416 
L 1966 -56 
Q 2647 422 2914 944 
Q 3181 1466 3181 2613 
L 3181 5038 
L 5563 5038 
L 5563 219 
z
M 5075 3609 
L 5075 4569 
L 3669 4569 
L 3669 3609 
L 5075 3609 
z
M 5075 2125 
L 5075 3144 
L 3669 3144 
L 3669 2125 
L 5075 2125 
z
M 2650 1131 
L 2163 1131 
L 2163 1363 
L 1184 1363 
L 1184 959 
L 697 959 
L 697 4647 
L 2650 4647 
L 2650 1131 
z
M 2138 3291 
L 2138 4178 
L 1184 4178 
L 1184 3291 
L 2138 3291 
z
M 2163 1831 
L 2163 2822 
L 1184 2822 
L 1184 1831 
L 2163 1831 
z
" transform="scale(0.015625)"/>
       <path id="ArialUnicodeMS-786e" d="M 5806 3859 
L 5806 238 
Q 5806 22 5643 -143 
Q 5481 -309 5170 -292 
Q 4859 -275 4697 -288 
L 4531 225 
Q 4747 172 5228 172 
Q 5272 172 5325 250 
L 5325 1075 
L 2894 1075 
Q 2628 216 1966 -366 
L 1594 -13 
Q 1959 284 2163 628 
L 1697 628 
L 1697 813 
L 1344 806 
L 1344 391 
L 856 384 
L 856 2100 
L 844 2100 
L 738 1888 
L 325 2169 
Q 956 3031 1081 4122 
Q 1103 4316 1131 4441 
L 422 4441 
L 422 4909 
L 2606 4909 
L 2606 4441 
L 1600 4441 
Q 1438 3438 1416 3334 
L 2156 3341 
L 2156 628 
Q 2425 1047 2479 1469 
Q 2534 1891 2534 3347 
Q 2450 3278 2309 3188 
L 1997 3553 
Q 2900 4184 3519 5453 
L 3922 5269 
L 3738 4844 
L 5172 4844 
L 5166 4428 
Q 4797 3997 4659 3859 
L 5806 3859 
z
M 4500 4384 
L 3444 4384 
Q 3428 4325 3041 3878 
L 4019 3878 
Q 4200 4034 4500 4384 
z
M 5325 2741 
L 5325 3397 
L 4409 3397 
L 4409 2741 
L 5325 2741 
z
M 3922 3397 
L 3028 3397 
L 3028 2741 
L 3916 2741 
L 3922 3397 
z
M 1697 1288 
L 1697 2875 
L 1344 2875 
L 1344 1288 
L 1697 1288 
z
M 5325 1528 
L 5325 2291 
L 4403 2291 
L 4403 1528 
L 5325 1528 
z
M 3922 1528 
L 3922 2291 
L 3028 2291 
Q 3000 1800 2975 1528 
L 3922 1528 
z
" transform="scale(0.015625)"/>
       <path id="ArialUnicodeMS-62d2" d="M 2572 2228 
L 1844 1959 
L 1844 103 
Q 1844 -97 1722 -247 
Q 1600 -397 1276 -415 
Q 953 -434 647 -422 
L 506 56 
L 934 44 
Q 1338 34 1338 300 
L 1338 1766 
L 506 1453 
L 250 1894 
Q 731 2022 1338 2259 
L 1338 3597 
L 459 3597 
L 459 4063 
L 1338 4063 
L 1338 5325 
L 1844 5325 
L 1844 4063 
L 2572 4063 
L 2572 3597 
L 1844 3597 
L 1844 2444 
L 2572 2700 
L 2572 2228 
z
M 6041 -13 
L 3328 -13 
L 3328 -391 
L 2822 -391 
L 2822 5063 
L 5900 5063 
L 5900 4594 
L 3328 4594 
L 3328 3609 
L 5528 3609 
L 5528 1581 
L 3328 1581 
L 3328 453 
L 6041 453 
L 6041 -13 
z
M 5025 2047 
L 5025 3144 
L 3328 3144 
L 3328 2047 
L 5025 2047 
z
" transform="scale(0.015625)"/>
       <path id="ArialUnicodeMS-7edd" d="M 5919 813 
Q 5747 -134 5247 -134 
L 3297 -134 
Q 3091 -113 2916 48 
Q 2741 209 2741 544 
L 2741 3022 
L 2719 3022 
Q 2578 2825 2266 2547 
L 1941 2906 
Q 3091 3959 3456 5325 
L 3841 5147 
L 3750 4813 
L 5063 4813 
L 5063 4397 
L 4544 3609 
L 5447 3609 
L 5447 1466 
L 3200 1466 
L 3200 416 
Q 3200 381 3250 356 
Q 3300 331 3303 331 
L 5288 331 
Q 5338 347 5398 570 
Q 5459 794 5478 1050 
L 5919 813 
z
M 4459 4347 
L 3578 4347 
Q 3456 4025 3318 3828 
Q 3181 3631 3175 3609 
L 3975 3609 
Q 4250 3953 4459 4347 
z
M 4984 1931 
L 4984 3169 
L 4341 3169 
L 4341 1931 
L 4984 1931 
z
M 3878 1931 
L 3878 3169 
L 3200 3169 
L 3200 1931 
L 3878 1931 
z
M 2472 1856 
L 563 1434 
L 366 1856 
Q 584 2100 1247 2931 
Q 1028 2909 434 2797 
L 256 3200 
Q 934 4144 1356 5306 
L 1813 5147 
Q 1478 4281 838 3297 
L 1569 3372 
Q 1738 3631 2028 4219 
L 2438 4000 
Q 1944 2991 1056 1997 
L 2472 2266 
L 2472 1856 
z
M 2572 838 
Q 2141 694 1506 520 
Q 872 347 544 250 
L 250 709 
Q 750 816 2572 1306 
L 2572 838 
z
" transform="scale(0.015625)"/>
      </defs>
      <use xlink:href="#ArialUnicodeMS-660e"/>
      <use xlink:href="#ArialUnicodeMS-786e" transform="translate(100 0)"/>
      <use xlink:href="#ArialUnicodeMS-62d2" transform="translate(200 0)"/>
      <use xlink:href="#ArialUnicodeMS-7edd" transform="translate(300 0)"/>
     </g>
    </g>
   </g>
  </g>
 </g>
 <defs>
  <clipPath id="p1de54cc0fb">
   <rect x="44.676875" y="22.505156" width="491.04" height="266.112"/>
  </clipPath>
 </defs>
</svg>
