<?xml version="1.0" encoding="utf-8" standalone="no"?>
<!DOCTYPE svg PUBLIC "-//W3C//DTD SVG 1.1//EN"
  "http://www.w3.org/Graphics/SVG/1.1/DTD/svg11.dtd">
<svg xmlns:xlink="http://www.w3.org/1999/xlink" width="542.916875pt" height="312.178562pt" viewBox="0 0 542.916875 312.178562" xmlns="http://www.w3.org/2000/svg" version="1.1">
 <metadata>
  <rdf:RDF xmlns:dc="http://purl.org/dc/elements/1.1/" xmlns:cc="http://creativecommons.org/ns#" xmlns:rdf="http://www.w3.org/1999/02/22-rdf-syntax-ns#">
   <cc:Work>
    <dc:type rdf:resource="http://purl.org/dc/dcmitype/StillImage"/>
    <dc:date>2026-04-16T02:44:56.680012</dc:date>
    <dc:format>image/svg+xml</dc:format>
    <dc:creator>
     <cc:Agent>
      <dc:title>Matplotlib v3.10.8, https://matplotlib.org/</dc:title>
     </cc:Agent>
    </dc:creator>
   </cc:Work>
  </rdf:RDF>
 </metadata>
 <defs>
  <style type="text/css">*{stroke-linejoin: round; stroke-linecap: butt}</style>
 </defs>
 <g id="figure_1">
  <g id="patch_1">
   <path d="M 0 312.178562 
L 542.916875 312.178562 
L 542.916875 0 
L 0 0 
z
" style="fill: #ffffff"/>
  </g>
  <g id="axes_1">
   <g id="patch_2">
    <path d="M 44.676875 288.617156 
L 535.716875 288.617156 
L 535.716875 22.505156 
L 44.676875 22.505156 
z
" style="fill: #ffffff"/>
   </g>
   <g id="patch_3">
    <path d="M 66.996875 288.617156 
L 135.09179 288.617156 
L 135.09179 222.089156 
L 66.996875 222.089156 
z
" clip-path="url(#pd745f15dcc)" style="fill: #8c4a5b"/>
   </g>
   <g id="patch_4">
    <path d="M 161.573146 288.617156 
L 229.668061 288.617156 
L 229.668061 174.569156 
L 161.573146 174.569156 
z
" clip-path="url(#pd745f15dcc)" style="fill: #8c4a5b"/>
   </g>
   <g id="patch_5">
    <path d="M 256.149417 288.617156 
L 324.244333 288.617156 
L 324.244333 191.597156 
L 256.149417 191.597156 
z
" clip-path="url(#pd745f15dcc)" style="fill: #8c4a5b"/>
   </g>
   <g id="patch_6">
    <path d="M 350.725689 288.617156 
L 418.820604 288.617156 
L 418.820604 215.566803 
L 350.725689 215.566803 
z
" clip-path="url(#pd745f15dcc)" style="fill: #8c4a5b"/>
   </g>
   <g id="patch_7">
    <path d="M 445.30196 288.617156 
L 513.396875 288.617156 
L 513.396875 205.729812 
L 445.30196 205.729812 
z
" clip-path="url(#pd745f15dcc)" style="fill: #8c4a5b"/>
   </g>
   <g id="patch_8">
    <path d="M 66.996875 222.089156 
L 135.09179 222.089156 
L 135.09179 89.033156 
L 66.996875 89.033156 
z
" clip-path="url(#pd745f15dcc)" style="fill: #d17b49"/>
   </g>
   <g id="patch_9">
    <path d="M 161.573146 174.569156 
L 229.668061 174.569156 
L 229.668061 73.193156 
L 161.573146 73.193156 
z
" clip-path="url(#pd745f15dcc)" style="fill: #d17b49"/>
   </g>
   <g id="patch_10">
    <path d="M 256.149417 191.597156 
L 324.244333 191.597156 
L 324.244333 72.401156 
L 256.149417 72.401156 
z
" clip-path="url(#pd745f15dcc)" style="fill: #d17b49"/>
   </g>
   <g id="patch_11">
    <path d="M 350.725689 215.566803 
L 418.820604 215.566803 
L 418.820604 97.294803 
L 350.725689 97.294803 
z
" clip-path="url(#pd745f15dcc)" style="fill: #d17b49"/>
   </g>
   <g id="patch_12">
    <path d="M 445.30196 205.729812 
L 513.396875 205.729812 
L 513.396875 56.532592 
L 445.30196 56.532592 
z
" clip-path="url(#pd745f15dcc)" style="fill: #d17b49"/>
   </g>
   <g id="patch_13">
    <path d="M 66.996875 89.033156 
L 135.09179 89.033156 
L 135.09179 22.505156 
L 66.996875 22.505156 
z
" clip-path="url(#pd745f15dcc)" style="fill: #7a8f63"/>
   </g>
   <g id="patch_14">
    <path d="M 161.573146 73.193156 
L 229.668061 73.193156 
L 229.668061 22.505156 
L 161.573146 22.505156 
z
" clip-path="url(#pd745f15dcc)" style="fill: #7a8f63"/>
   </g>
   <g id="patch_15">
    <path d="M 256.149417 72.401156 
L 324.244333 72.401156 
L 324.244333 22.505156 
L 256.149417 22.505156 
z
" clip-path="url(#pd745f15dcc)" style="fill: #7a8f63"/>
   </g>
   <g id="patch_16">
    <path d="M 350.725689 97.294803 
L 418.820604 97.294803 
L 418.820604 22.505156 
L 350.725689 22.505156 
z
" clip-path="url(#pd745f15dcc)" style="fill: #7a8f63"/>
   </g>
   <g id="patch_17">
    <path d="M 445.30196 56.532592 
L 513.396875 56.532592 
L 513.396875 22.505156 
L 445.30196 22.505156 
z
" clip-path="url(#pd745f15dcc)" style="fill: #7a8f63"/>
   </g>
   <g id="matplotlib.axis_1">
    <g id="xtick_1">
     <g id="line2d_1">
      <defs>
       <path id="mb78550448d" d="M 0 0 
L 0 3.5 
" style="stroke: #000000; stroke-width: 0.8"/>
      </defs>
      <g>
       <use xlink:href="#mb78550448d" x="101.044333" y="288.617156" style="stroke: #000000; stroke-width: 0.8"/>
      </g>
     </g>
     <g id="text_1">
      <!-- 2024H1 -->
      <g transform="translate(85.28238 302.059187) scale(0.09 -0.09)">
       <defs>
        <path id="ArialUnicodeMS-32" d="M 3231 0 
L 197 0 
Q 197 388 467 784 
Q 738 1181 1478 1778 
Q 1931 2141 2287 2539 
Q 2644 2938 2644 3341 
Q 2644 3688 2398 3914 
Q 2153 4141 1778 4141 
Q 1400 4141 1144 3908 
Q 888 3675 884 3213 
L 306 3278 
Q 359 3922 764 4262 
Q 1169 4603 1791 4603 
Q 2466 4603 2842 4229 
Q 3219 3856 3219 3328 
Q 3219 2888 2901 2436 
Q 2584 1984 1638 1228 
Q 1141 831 978 544 
L 3231 544 
L 3231 0 
z
" transform="scale(0.015625)"/>
        <path id="ArialUnicodeMS-30" d="M 1778 4603 
Q 3272 4603 3272 2259 
Q 3272 1075 2886 498 
Q 2500 -78 1778 -78 
Q 288 -78 288 2259 
Q 288 3444 673 4023 
Q 1059 4603 1778 4603 
z
M 1778 384 
Q 2231 384 2462 823 
Q 2694 1263 2694 2259 
Q 2694 2953 2592 3351 
Q 2491 3750 2286 3945 
Q 2081 4141 1772 4141 
Q 1319 4141 1091 3694 
Q 863 3247 863 2259 
Q 863 1575 966 1175 
Q 1069 775 1272 579 
Q 1475 384 1778 384 
z
" transform="scale(0.015625)"/>
        <path id="ArialUnicodeMS-34" d="M 3263 1094 
L 2644 1094 
L 2644 0 
L 2081 0 
L 2081 1094 
L 97 1094 
L 97 1613 
L 2181 4581 
L 2644 4581 
L 2644 1613 
L 3263 1613 
L 3263 1094 
z
M 2081 1613 
L 2081 3681 
L 2069 3681 
L 647 1613 
L 2081 1613 
z
" transform="scale(0.015625)"/>
        <path id="ArialUnicodeMS-48" d="M 4109 0 
L 3500 0 
L 3500 2156 
L 1119 2156 
L 1119 0 
L 513 0 
L 513 4581 
L 1119 4581 
L 1119 2700 
L 3500 2700 
L 3500 4581 
L 4109 4581 
L 4109 0 
z
" transform="scale(0.015625)"/>
        <path id="ArialUnicodeMS-31" d="M 2400 0 
L 1838 0 
L 1838 3584 
Q 1416 3184 709 2906 
L 709 3450 
Q 1681 3916 2034 4603 
L 2400 4603 
L 2400 0 
z
" transform="scale(0.015625)"/>
       </defs>
       <use xlink:href="#ArialUnicodeMS-32"/>
       <use xlink:href="#ArialUnicodeMS-30" transform="translate(55.615234 0)"/>
       <use xlink:href="#ArialUnicodeMS-32" transform="translate(111.230469 0)"/>
       <use xlink:href="#ArialUnicodeMS-34" transform="translate(166.845703 0)"/>
       <use xlink:href="#ArialUnicodeMS-48" transform="translate(222.460938 0)"/>
       <use xlink:href="#ArialUnicodeMS-31" transform="translate(294.677734 0)"/>
      </g>
     </g>
    </g>
    <g id="xtick_2">
     <g id="line2d_2">
      <g>
       <use xlink:href="#mb78550448d" x="195.620604" y="288.617156" style="stroke: #000000; stroke-width: 0.8"/>
      </g>
     </g>
     <g id="text_2">
      <!-- 2024H2 -->
      <g transform="translate(179.858651 302.059187) scale(0.09 -0.09)">
       <use xlink:href="#ArialUnicodeMS-32"/>
       <use xlink:href="#ArialUnicodeMS-30" transform="translate(55.615234 0)"/>
       <use xlink:href="#ArialUnicodeMS-32" transform="translate(111.230469 0)"/>
       <use xlink:href="#ArialUnicodeMS-34" transform="translate(166.845703 0)"/>
       <use xlink:href="#ArialUnicodeMS-48" transform="translate(222.460938 0)"/>
       <use xlink:href="#ArialUnicodeMS-32" transform="translate(294.677734 0)"/>
      </g>
     </g>
    </g>
    <g id="xtick_3">
     <g id="line2d_3">
      <g>
       <use xlink:href="#mb78550448d" x="290.196875" y="288.617156" style="stroke: #000000; stroke-width: 0.8"/>
      </g>
     </g>
     <g id="text_3">
      <!-- 2025H1 -->
      <g transform="translate(274.434922 302.059187) scale(0.09 -0.09)">
       <defs>
        <path id="ArialUnicodeMS-35" d="M 1013 2753 
Q 1431 3041 1881 3041 
Q 2453 3041 2878 2636 
Q 3303 2231 3303 1556 
Q 3303 875 2872 398 
Q 2441 -78 1741 -78 
Q 1169 -78 750 245 
Q 331 569 269 1203 
L 856 1247 
Q 928 813 1162 598 
Q 1397 384 1741 384 
Q 2169 384 2434 707 
Q 2700 1031 2700 1503 
Q 2700 1984 2428 2262 
Q 2156 2541 1728 2541 
Q 1188 2541 897 2100 
L 366 2163 
L 813 4519 
L 3084 4519 
L 3084 3975 
L 1259 3975 
L 1013 2753 
z
" transform="scale(0.015625)"/>
       </defs>
       <use xlink:href="#ArialUnicodeMS-32"/>
       <use xlink:href="#ArialUnicodeMS-30" transform="translate(55.615234 0)"/>
       <use xlink:href="#ArialUnicodeMS-32" transform="translate(111.230469 0)"/>
       <use xlink:href="#ArialUnicodeMS-35" transform="translate(166.845703 0)"/>
       <use xlink:href="#ArialUnicodeMS-48" transform="translate(222.460938 0)"/>
       <use xlink:href="#ArialUnicodeMS-31" transform="translate(294.677734 0)"/>
      </g>
     </g>
    </g>
    <g id="xtick_4">
     <g id="line2d_4">
      <g>
       <use xlink:href="#mb78550448d" x="384.773146" y="288.617156" style="stroke: #000000; stroke-width: 0.8"/>
      </g>
     </g>
     <g id="text_4">
      <!-- 2025H2 -->
      <g transform="translate(369.011193 302.059187) scale(0.09 -0.09)">
       <use xlink:href="#ArialUnicodeMS-32"/>
       <use xlink:href="#ArialUnicodeMS-30" transform="translate(55.615234 0)"/>
       <use xlink:href="#ArialUnicodeMS-32" transform="translate(111.230469 0)"/>
       <use xlink:href="#ArialUnicodeMS-35" transform="translate(166.845703 0)"/>
       <use xlink:href="#ArialUnicodeMS-48" transform="translate(222.460938 0)"/>
       <use xlink:href="#ArialUnicodeMS-32" transform="translate(294.677734 0)"/>
      </g>
     </g>
    </g>
    <g id="xtick_5">
     <g id="line2d_5">
      <g>
       <use xlink:href="#mb78550448d" x="479.349417" y="288.617156" style="stroke: #000000; stroke-width: 0.8"/>
      </g>
     </g>
     <g id="text_5">
      <!-- 2026H1(部分) -->
      <g transform="translate(451.590745 303.088562) scale(0.09 -0.09)">
       <defs>
        <path id="ArialUnicodeMS-36" d="M 838 2363 
Q 1225 2969 1941 2969 
Q 2503 2969 2897 2553 
Q 3291 2138 3291 1491 
Q 3291 838 2898 380 
Q 2506 -78 1856 -78 
Q 1197 -78 733 409 
Q 269 897 269 2144 
Q 269 3369 689 3986 
Q 1109 4603 1906 4603 
Q 2422 4603 2778 4315 
Q 3134 4028 3213 3463 
L 2650 3413 
Q 2497 4141 1875 4141 
Q 1444 4141 1134 3712 
Q 825 3284 825 2363 
L 838 2363 
z
M 1844 384 
Q 2231 384 2472 696 
Q 2713 1009 2713 1453 
Q 2713 1897 2472 2187 
Q 2231 2478 1825 2478 
Q 1453 2478 1184 2204 
Q 916 1931 916 1484 
Q 916 1028 1180 706 
Q 1444 384 1844 384 
z
" transform="scale(0.015625)"/>
        <path id="ArialUnicodeMS-28" d="M 1900 -1344 
L 1497 -1344 
Q 978 -681 681 103 
Q 384 888 384 1656 
Q 384 2528 700 3275 
Q 1016 4022 1497 4659 
L 1900 4659 
Q 1344 3747 1155 3059 
Q 966 2372 966 1663 
Q 966 153 1900 -1344 
z
" transform="scale(0.015625)"/>
        <path id="ArialUnicodeMS-90e8" d="M 3681 4134 
L 622 4134 
L 622 4603 
L 1941 4603 
L 1941 5313 
L 2444 5313 
L 2444 4603 
L 3681 4603 
L 3681 4134 
z
M 5306 2875 
Q 6038 2188 6038 1400 
Q 6038 922 5795 634 
Q 5553 347 5166 384 
L 4756 422 
L 4628 959 
Q 5088 878 5166 878 
Q 5556 878 5556 1356 
Q 5556 2181 4794 2778 
Q 5006 3238 5416 4581 
L 4544 4581 
L 4544 -428 
L 4056 -428 
L 4056 5050 
L 5906 5050 
L 5906 4622 
Q 5484 3350 5306 2875 
z
M 3909 2450 
L 378 2450 
L 378 2919 
L 1588 2919 
Q 1363 3609 997 3922 
L 1422 4097 
Q 1822 3700 2047 3078 
L 1722 2919 
L 2222 2919 
Q 2700 3578 2797 4116 
L 3244 3922 
Q 3106 3459 2753 2919 
L 3909 2919 
L 3909 2450 
z
M 3316 -403 
L 2828 -403 
L 2828 38 
L 1394 38 
L 1394 -403 
L 909 -403 
L 909 1953 
L 3316 1953 
L 3316 -403 
z
M 2828 506 
L 2828 1484 
L 1394 1484 
L 1394 506 
L 2828 506 
z
" transform="scale(0.015625)"/>
        <path id="ArialUnicodeMS-5206" d="M 5991 3003 
L 5684 2553 
Q 4856 3041 4451 3534 
Q 4047 4028 3781 4831 
L 4319 4984 
Q 4375 4356 4829 3825 
Q 5284 3294 5991 3003 
z
M 2613 4697 
Q 2169 3484 800 2547 
L 416 2919 
Q 1731 3741 2188 4934 
L 2613 4697 
z
M 4872 2931 
Q 4844 1956 4730 1092 
Q 4616 228 4430 7 
Q 4244 -213 3847 -213 
Q 3469 -213 2894 -78 
L 2747 481 
Q 3503 269 3834 269 
Q 4013 269 4128 639 
Q 4244 1009 4341 2463 
L 3138 2463 
Q 2869 263 831 -441 
L 525 -31 
Q 2372 478 2631 2463 
L 1556 2463 
L 1556 2931 
L 4872 2931 
z
" transform="scale(0.015625)"/>
        <path id="ArialUnicodeMS-29" d="M 634 4659 
Q 1153 3997 1450 3212 
Q 1747 2428 1747 1656 
Q 1747 788 1431 41 
Q 1116 -706 634 -1344 
L 231 -1344 
Q 788 -431 977 255 
Q 1166 941 1166 1650 
Q 1166 3163 231 4659 
L 634 4659 
z
" transform="scale(0.015625)"/>
       </defs>
       <use xlink:href="#ArialUnicodeMS-32"/>
       <use xlink:href="#ArialUnicodeMS-30" transform="translate(55.615234 0)"/>
       <use xlink:href="#ArialUnicodeMS-32" transform="translate(111.230469 0)"/>
       <use xlink:href="#ArialUnicodeMS-36" transform="translate(166.845703 0)"/>
       <use xlink:href="#ArialUnicodeMS-48" transform="translate(222.460938 0)"/>
       <use xlink:href="#ArialUnicodeMS-31" transform="translate(294.677734 0)"/>
       <use xlink:href="#ArialUnicodeMS-28" transform="translate(350.292969 0)"/>
       <use xlink:href="#ArialUnicodeMS-90e8" transform="translate(383.59375 0)"/>
       <use xlink:href="#ArialUnicodeMS-5206" transform="translate(483.59375 0)"/>
       <use xlink:href="#ArialUnicodeMS-29" transform="translate(583.59375 0)"/>
      </g>
     </g>
    </g>
   </g>
   <g id="matplotlib.axis_2">
    <g id="ytick_1">
     <g id="line2d_6">
      <path d="M 44.676875 288.617156 
L 535.716875 288.617156 
" clip-path="url(#pd745f15dcc)" style="fill: none; stroke-dasharray: 2.96,1.28; stroke-dashoffset: 0; stroke: #d6dadf; stroke-opacity: 0.7; stroke-width: 0.8"/>
     </g>
     <g id="line2d_7">
      <defs>
       <path id="mb64e9e99e1" d="M 0 0 
L -3.5 0 
" style="stroke: #000000; stroke-width: 0.8"/>
      </defs>
      <g>
       <use xlink:href="#mb64e9e99e1" x="44.676875" y="288.617156" style="stroke: #000000; stroke-width: 0.8"/>
      </g>
     </g>
     <g id="text_6">
      <!-- 0 -->
      <g transform="translate(32.672031 291.838172) scale(0.09 -0.09)">
       <use xlink:href="#ArialUnicodeMS-30"/>
      </g>
     </g>
    </g>
    <g id="ytick_2">
     <g id="line2d_8">
      <path d="M 44.676875 235.394756 
L 535.716875 235.394756 
" clip-path="url(#pd745f15dcc)" style="fill: none; stroke-dasharray: 2.96,1.28; stroke-dashoffset: 0; stroke: #d6dadf; stroke-opacity: 0.7; stroke-width: 0.8"/>
     </g>
     <g id="line2d_9">
      <g>
       <use xlink:href="#mb64e9e99e1" x="44.676875" y="235.394756" style="stroke: #000000; stroke-width: 0.8"/>
      </g>
     </g>
     <g id="text_7">
      <!-- 20 -->
      <g transform="translate(27.667188 238.615772) scale(0.09 -0.09)">
       <use xlink:href="#ArialUnicodeMS-32"/>
       <use xlink:href="#ArialUnicodeMS-30" transform="translate(55.615234 0)"/>
      </g>
     </g>
    </g>
    <g id="ytick_3">
     <g id="line2d_10">
      <path d="M 44.676875 182.172356 
L 535.716875 182.172356 
" clip-path="url(#pd745f15dcc)" style="fill: none; stroke-dasharray: 2.96,1.28; stroke-dashoffset: 0; stroke: #d6dadf; stroke-opacity: 0.7; stroke-width: 0.8"/>
     </g>
     <g id="line2d_11">
      <g>
       <use xlink:href="#mb64e9e99e1" x="44.676875" y="182.172356" style="stroke: #000000; stroke-width: 0.8"/>
      </g>
     </g>
     <g id="text_8">
      <!-- 40 -->
      <g transform="translate(27.667188 185.393372) scale(0.09 -0.09)">
       <use xlink:href="#ArialUnicodeMS-34"/>
       <use xlink:href="#ArialUnicodeMS-30" transform="translate(55.615234 0)"/>
      </g>
     </g>
    </g>
    <g id="ytick_4">
     <g id="line2d_12">
      <path d="M 44.676875 128.949956 
L 535.716875 128.949956 
" clip-path="url(#pd745f15dcc)" style="fill: none; stroke-dasharray: 2.96,1.28; stroke-dashoffset: 0; stroke: #d6dadf; stroke-opacity: 0.7; stroke-width: 0.8"/>
     </g>
     <g id="line2d_13">
      <g>
       <use xlink:href="#mb64e9e99e1" x="44.676875" y="128.949956" style="stroke: #000000; stroke-width: 0.8"/>
      </g>
     </g>
     <g id="text_9">
      <!-- 60 -->
      <g transform="translate(27.667188 132.170972) scale(0.09 -0.09)">
       <use xlink:href="#ArialUnicodeMS-36"/>
       <use xlink:href="#ArialUnicodeMS-30" transform="translate(55.615234 0)"/>
      </g>
     </g>
    </g>
    <g id="ytick_5">
     <g id="line2d_14">
      <path d="M 44.676875 75.727556 
L 535.716875 75.727556 
" clip-path="url(#pd745f15dcc)" style="fill: none; stroke-dasharray: 2.96,1.28; stroke-dashoffset: 0; stroke: #d6dadf; stroke-opacity: 0.7; stroke-width: 0.8"/>
     </g>
     <g id="line2d_15">
      <g>
       <use xlink:href="#mb64e9e99e1" x="44.676875" y="75.727556" style="stroke: #000000; stroke-width: 0.8"/>
      </g>
     </g>
     <g id="text_10">
      <!-- 80 -->
      <g transform="translate(27.667188 78.948572) scale(0.09 -0.09)">
       <defs>
        <path id="ArialUnicodeMS-38" d="M 2425 2478 
Q 3284 2203 3284 1306 
Q 3284 716 2862 319 
Q 2441 -78 1778 -78 
Q 1109 -78 689 322 
Q 269 722 269 1325 
Q 269 1759 505 2084 
Q 741 2409 1141 2478 
L 1141 2491 
Q 453 2703 453 3419 
Q 453 3925 815 4264 
Q 1178 4603 1766 4603 
Q 2363 4603 2730 4253 
Q 3097 3903 3097 3406 
Q 3097 2731 2425 2491 
L 2425 2478 
z
M 1778 2700 
Q 2094 2700 2308 2901 
Q 2522 3103 2522 3406 
Q 2522 3716 2305 3928 
Q 2088 4141 1772 4141 
Q 1450 4141 1240 3931 
Q 1031 3722 1031 3438 
Q 1031 3097 1247 2898 
Q 1463 2700 1778 2700 
z
M 1778 384 
Q 2175 384 2440 640 
Q 2706 897 2706 1306 
Q 2706 1716 2432 1978 
Q 2159 2241 1766 2241 
Q 1356 2241 1100 1970 
Q 844 1700 844 1319 
Q 844 922 1108 653 
Q 1372 384 1778 384 
z
" transform="scale(0.015625)"/>
       </defs>
       <use xlink:href="#ArialUnicodeMS-38"/>
       <use xlink:href="#ArialUnicodeMS-30" transform="translate(55.615234 0)"/>
      </g>
     </g>
    </g>
    <g id="ytick_6">
     <g id="line2d_16">
      <path d="M 44.676875 22.505156 
L 535.716875 22.505156 
" clip-path="url(#pd745f15dcc)" style="fill: none; stroke-dasharray: 2.96,1.28; stroke-dashoffset: 0; stroke: #d6dadf; stroke-opacity: 0.7; stroke-width: 0.8"/>
     </g>
     <g id="line2d_17">
      <g>
       <use xlink:href="#mb64e9e99e1" x="44.676875" y="22.505156" style="stroke: #000000; stroke-width: 0.8"/>
      </g>
     </g>
     <g id="text_11">
      <!-- 100 -->
      <g transform="translate(22.662344 25.726172) scale(0.09 -0.09)">
       <use xlink:href="#ArialUnicodeMS-31"/>
       <use xlink:href="#ArialUnicodeMS-30" transform="translate(55.615234 0)"/>
       <use xlink:href="#ArialUnicodeMS-30" transform="translate(111.230469 0)"/>
      </g>
     </g>
    </g>
    <g id="text_12">
     <!-- 占比（%） -->
     <g transform="translate(16.352344 182.451859) rotate(-90) scale(0.11 -0.11)">
      <defs>
       <path id="ArialUnicodeMS-5360" d="M 5778 3731 
L 3072 3731 
L 3072 2431 
L 5319 2431 
L 5319 -422 
L 4813 -422 
L 4813 103 
L 1684 103 
L 1684 -447 
L 1178 -447 
L 1178 2431 
L 2566 2431 
L 2566 5325 
L 3072 5325 
L 3072 4219 
L 5778 4219 
L 5778 3731 
z
M 4813 588 
L 4813 1947 
L 1684 1947 
L 1684 588 
L 4813 588 
z
" transform="scale(0.015625)"/>
       <path id="ArialUnicodeMS-6bd4" d="M 6119 1100 
Q 5975 -197 5300 -197 
L 4103 -197 
Q 3828 -197 3658 -42 
Q 3488 113 3488 378 
L 3488 5191 
L 3994 5191 
L 3994 2906 
Q 4775 3172 5600 3916 
L 5984 3584 
Q 5013 2703 3994 2388 
L 3994 506 
Q 4022 269 4225 269 
L 5153 269 
Q 5375 269 5464 464 
Q 5553 659 5625 1325 
L 6119 1100 
z
M 3238 306 
L 653 -231 
L 378 250 
L 1131 391 
L 1131 5166 
L 1638 5166 
L 1638 3450 
L 3238 3450 
L 3238 2981 
L 1638 2981 
L 1638 500 
L 3238 819 
L 3238 306 
z
" transform="scale(0.015625)"/>
       <path id="ArialUnicodeMS-ff08" d="M 3964 -1344 
L 3561 -1344 
Q 3042 -681 2745 103 
Q 2448 888 2448 1656 
Q 2448 2528 2764 3275 
Q 3080 4022 3561 4659 
L 3964 4659 
Q 3408 3747 3219 3059 
Q 3030 2372 3030 1663 
Q 3030 153 3964 -1344 
z
" transform="scale(0.015625)"/>
       <path id="ArialUnicodeMS-25" d="M 4325 4659 
L 1838 -159 
L 1369 -159 
L 3872 4659 
L 4325 4659 
z
M 1428 4653 
Q 1856 4653 2137 4343 
Q 2419 4034 2419 3438 
Q 2419 2850 2131 2539 
Q 1844 2228 1434 2228 
Q 1009 2228 739 2540 
Q 469 2853 469 3475 
Q 469 3984 722 4318 
Q 975 4653 1428 4653 
z
M 1441 2619 
Q 1931 2619 1931 3463 
Q 1931 4269 1441 4269 
Q 953 4269 953 3419 
Q 953 2619 1441 2619 
z
M 4250 2253 
Q 4681 2253 4961 1943 
Q 5241 1634 5241 1038 
Q 5241 600 5087 328 
Q 4934 56 4709 -58 
Q 4484 -172 4256 -172 
Q 3831 -172 3561 140 
Q 3291 453 3291 1075 
Q 3291 1584 3544 1918 
Q 3797 2253 4250 2253 
z
M 4263 219 
Q 4756 219 4756 1063 
Q 4756 1869 4263 1869 
Q 3775 1869 3775 1019 
Q 3775 219 4263 219 
z
" transform="scale(0.015625)"/>
       <path id="ArialUnicodeMS-ff09" d="M 2850 4659 
Q 3369 3997 3666 3212 
Q 3963 2428 3963 1656 
Q 3963 788 3647 41 
Q 3332 -706 2850 -1344 
L 2447 -1344 
Q 3004 -431 3193 255 
Q 3382 941 3382 1650 
Q 3382 3163 2447 4659 
L 2850 4659 
z
" transform="scale(0.015625)"/>
      </defs>
      <use xlink:href="#ArialUnicodeMS-5360"/>
      <use xlink:href="#ArialUnicodeMS-6bd4" transform="translate(100 0)"/>
      <use xlink:href="#ArialUnicodeMS-ff08" transform="translate(200 0)"/>
      <use xlink:href="#ArialUnicodeMS-25" transform="translate(300 0)"/>
      <use xlink:href="#ArialUnicodeMS-ff09" transform="translate(388.916016 0)"/>
     </g>
    </g>
   </g>
   <g id="patch_18">
    <path d="M 44.676875 288.617156 
L 44.676875 22.505156 
" style="fill: none; stroke: #5a6570; stroke-width: 0.8; stroke-linejoin: miter; stroke-linecap: square"/>
   </g>
   <g id="patch_19">
    <path d="M 44.676875 288.617156 
L 535.716875 288.617156 
" style="fill: none; stroke: #5a6570; stroke-width: 0.8; stroke-linejoin: miter; stroke-linecap: square"/>
   </g>
   <g id="text_13">
    <!-- 半年度风险主题构成 -->
    <g transform="translate(231.696875 16.505156) scale(0.13 -0.13)">
     <defs>
      <path id="ArialUnicodeMS-534a" d="M 5819 1288 
L 3406 1288 
L 3406 -428 
L 2913 -428 
L 2913 1281 
L 494 1281 
L 488 1753 
L 2913 1753 
L 2913 2491 
L 903 2491 
L 903 2950 
L 2913 2950 
L 2913 5275 
L 3406 5275 
L 3406 2950 
L 5403 2950 
L 5403 2491 
L 3413 2491 
L 3406 1753 
L 5819 1753 
L 5819 1288 
z
M 5478 4775 
Q 5206 3997 4300 3238 
L 3872 3578 
Q 4756 4178 5050 5056 
L 5478 4775 
z
M 2309 3456 
L 1888 3156 
Q 1463 4272 738 4684 
L 1166 4984 
Q 1819 4591 2309 3456 
z
" transform="scale(0.015625)"/>
      <path id="ArialUnicodeMS-5e74" d="M 5869 1409 
L 3659 1409 
L 3659 -434 
L 3156 -434 
L 3156 1409 
L 659 1409 
L 659 1875 
L 1459 1875 
L 1459 3384 
L 3156 3384 
L 3156 4219 
L 1838 4219 
Q 1425 3363 953 2931 
L 550 3256 
Q 1381 3994 1734 5381 
L 2144 5184 
Q 2122 4997 2022 4684 
L 5606 4684 
L 5606 4219 
L 3659 4219 
L 3659 3384 
L 5294 3384 
L 5294 2919 
L 3659 2919 
L 3659 1875 
L 5869 1875 
L 5869 1409 
z
M 3156 1875 
L 3156 2919 
L 1947 2919 
L 1947 1875 
L 3156 1875 
z
" transform="scale(0.015625)"/>
      <path id="ArialUnicodeMS-5ea6" d="M 5913 4269 
L 1363 4269 
L 1363 2278 
Q 1363 1144 1180 528 
Q 997 -88 684 -434 
L 294 -147 
Q 669 378 773 940 
Q 878 1503 878 2350 
L 878 4738 
L 3200 4738 
L 3200 5288 
L 3706 5288 
L 3706 4738 
L 5913 4738 
L 5913 4269 
z
M 5778 3194 
L 4728 3194 
L 4728 2303 
L 2350 2303 
L 2350 3194 
L 1472 3194 
L 1472 3659 
L 2350 3659 
L 2350 4147 
L 2828 4147 
L 2828 3659 
L 4244 3659 
L 4244 4147 
L 4728 4147 
L 4728 3659 
L 5778 3659 
L 5778 3194 
z
M 4244 2747 
L 4244 3194 
L 2834 3194 
L 2834 2747 
L 4244 2747 
z
M 6081 72 
L 5819 -397 
Q 4484 -216 3531 263 
Q 2494 -234 1388 -397 
L 1088 44 
Q 2078 134 3034 550 
Q 2509 934 2113 1528 
L 1625 1528 
L 1625 1972 
L 5159 1972 
L 5159 1544 
Q 4819 1025 4044 538 
Q 4963 166 6081 72 
z
M 4544 1528 
L 2700 1528 
Q 3125 1038 3531 781 
Q 4194 1159 4544 1528 
z
" transform="scale(0.015625)"/>
      <path id="ArialUnicodeMS-98ce" d="M 6028 481 
L 5947 116 
Q 5788 -359 5534 -359 
Q 5416 -359 5278 -273 
Q 5141 -188 4917 176 
Q 4694 541 4576 1092 
Q 4459 1644 4428 2134 
Q 4397 2625 4394 3269 
L 4384 4588 
L 1575 4588 
L 1575 2356 
Q 1575 1563 1311 800 
Q 1047 38 575 -403 
L 166 -63 
Q 1088 834 1088 2478 
L 1088 5056 
L 4872 5056 
L 4872 2847 
Q 4872 1138 5497 206 
L 5588 738 
L 6028 481 
z
M 4378 603 
L 3944 353 
Q 3653 1191 3150 1894 
Q 2497 978 1838 347 
L 1447 697 
Q 2000 1109 2875 2278 
Q 2481 2828 1684 3591 
L 2009 3884 
Q 2681 3294 3138 2719 
Q 3481 3228 3822 4044 
L 4225 3816 
Q 3822 2838 3438 2316 
Q 4153 1334 4378 603 
z
" transform="scale(0.015625)"/>
      <path id="ArialUnicodeMS-9669" d="M 6041 3109 
L 5753 2688 
L 5375 2913 
L 5375 2613 
L 2809 2613 
L 2809 2906 
Q 2800 2900 2703 2834 
Q 2606 2769 2484 2719 
Q 2353 2866 2131 3169 
Q 2706 3375 3234 4004 
Q 3763 4634 3944 5294 
L 4422 5088 
L 4294 4763 
Q 4916 3678 6041 3109 
z
M 5166 3078 
Q 4406 3603 4056 4294 
Q 3659 3519 3041 3091 
L 3041 3078 
L 5166 3078 
z
M 2584 4575 
Q 2584 4516 1881 3256 
Q 2559 2400 2559 1734 
Q 2559 1403 2301 1133 
Q 2044 863 1666 863 
Q 1559 863 1416 884 
L 1253 1416 
Q 1522 1369 1659 1369 
Q 1909 1369 1995 1509 
Q 2081 1650 2081 1759 
Q 2081 2300 1300 3244 
Q 1725 3975 2016 4550 
L 1125 4550 
L 1125 -428 
L 641 -428 
L 641 5019 
L 2584 5019 
L 2584 4575 
z
M 4506 1088 
L 4056 863 
Q 3956 1488 3322 2297 
L 3769 2497 
Q 4356 1744 4506 1088 
z
M 5863 -172 
L 2216 -172 
L 2216 294 
L 4391 294 
Q 4878 1100 5125 2444 
L 5588 2259 
Q 5384 1181 4878 294 
L 5863 294 
L 5863 -172 
z
M 3700 756 
L 3213 525 
Q 3163 1300 2606 2113 
L 3028 2309 
Q 3600 1447 3700 756 
z
" transform="scale(0.015625)"/>
      <path id="ArialUnicodeMS-4e3b" d="M 3719 4294 
L 3278 4044 
Q 2963 4631 2150 5113 
L 2572 5381 
Q 3303 5016 3719 4294 
z
M 5953 -38 
L 519 -38 
L 519 428 
L 2988 428 
L 2988 1856 
L 1119 1856 
L 1119 2344 
L 2988 2344 
L 2988 3513 
L 691 3513 
L 691 3981 
L 5747 3981 
L 5759 3513 
L 3481 3513 
L 3481 2344 
L 5363 2344 
L 5350 1856 
L 3494 1856 
L 3494 428 
L 5953 428 
L 5953 -38 
z
" transform="scale(0.015625)"/>
      <path id="ArialUnicodeMS-9898" d="M 5838 4575 
L 4622 4575 
Q 4581 4338 4481 4084 
L 5600 4084 
L 5600 1684 
L 5147 1684 
L 5147 3616 
L 3775 3616 
L 3775 1684 
L 3322 1684 
L 3322 4084 
L 3950 4084 
Q 4066 4256 4147 4575 
L 2969 4575 
L 2969 5044 
L 5838 5044 
L 5838 4575 
z
M 2797 2950 
L 750 2950 
L 750 5044 
L 2797 5044 
L 2797 2950 
z
M 2344 4269 
L 2344 4575 
L 1234 4575 
L 1234 4269 
L 2344 4269 
z
M 2344 3419 
L 2344 3803 
L 1234 3803 
L 1234 3419 
L 2344 3419 
z
M 4684 3316 
Q 4672 2319 4597 1851 
Q 4522 1384 4175 1001 
Q 3828 619 3353 475 
L 3103 397 
L 2809 844 
Q 3447 988 3836 1375 
Q 4225 1763 4225 2913 
Q 4225 3122 4213 3372 
L 4684 3316 
z
M 6022 384 
L 5850 -128 
L 2888 -128 
Q 2422 -128 1950 61 
Q 1478 250 1178 588 
Q 913 -22 581 -403 
Q 513 -341 388 -247 
Q 263 -153 206 -103 
Q 981 756 941 2106 
L 1381 1966 
Q 1391 1384 1313 1113 
Q 1491 878 1600 819 
L 1600 2284 
L 347 2284 
L 347 2753 
L 3200 2753 
L 3200 2284 
L 2088 2284 
L 2088 1772 
L 3078 1772 
L 3078 1331 
L 2088 1331 
L 2088 525 
Q 2513 341 2969 341 
L 5275 341 
Q 5691 341 6022 384 
z
M 5894 781 
L 5528 428 
Q 5191 1072 4581 1403 
L 4903 1728 
Q 5591 1331 5894 781 
z
" transform="scale(0.015625)"/>
      <path id="ArialUnicodeMS-6784" d="M 5881 4581 
L 5869 3028 
Q 5869 2181 5725 1093 
Q 5581 6 5389 -191 
Q 5197 -388 4941 -388 
Q 4788 -388 4384 -263 
L 4225 306 
Q 4341 275 4573 183 
Q 4806 91 4928 91 
Q 5066 91 5106 366 
L 5259 1369 
Q 5322 1784 5344 2297 
L 5409 4122 
L 3322 4122 
Q 3125 3428 2681 2803 
L 2259 3084 
Q 2956 4022 3059 5388 
L 3519 5234 
Q 3513 5059 3425 4581 
L 5881 4581 
z
M 2778 2088 
L 2369 1838 
Q 2175 2353 1856 2613 
L 1856 -378 
L 1375 -378 
L 1375 2203 
L 1363 2203 
Q 1194 1634 684 1038 
L 288 1338 
Q 1078 2188 1313 3628 
L 531 3628 
L 531 4097 
L 1369 4097 
L 1369 5338 
L 1856 5338 
L 1856 4097 
L 2584 4097 
L 2584 3634 
L 1856 3634 
L 1856 3022 
L 2022 3116 
Q 2672 2516 2778 2088 
z
M 5178 878 
L 4709 634 
Q 4669 1056 4628 1141 
Q 3647 997 3066 781 
L 2638 1241 
Q 3528 2541 3694 3719 
L 4172 3488 
Q 3866 2281 3475 1691 
L 3278 1388 
L 4475 1594 
Q 4456 1650 4345 1806 
Q 4234 1963 4184 2041 
L 4581 2259 
Q 5094 1675 5178 878 
z
" transform="scale(0.015625)"/>
      <path id="ArialUnicodeMS-6210" d="M 6047 806 
Q 6053 666 5929 261 
Q 5806 -144 5709 -276 
Q 5613 -409 5428 -409 
Q 5159 -409 4751 47 
Q 4344 503 4153 947 
Q 3516 272 2859 -128 
L 2419 213 
Q 3338 709 3922 1409 
Q 3591 2216 3438 3769 
L 1516 3769 
L 1516 2900 
L 3225 2900 
Q 3181 1622 3020 1140 
Q 2859 659 2338 659 
Q 2150 659 1819 709 
L 1606 1241 
Q 2009 1119 2363 1119 
Q 2584 1119 2648 1505 
Q 2713 1891 2725 2431 
L 1509 2431 
Q 1481 1084 1270 496 
Q 1059 -91 728 -459 
L 319 -153 
Q 1000 541 1013 2009 
L 1031 4238 
L 3391 4238 
Q 3359 4997 3359 5319 
L 3841 5319 
Q 3850 4619 3878 4238 
L 5747 4238 
L 5747 3769 
L 3909 3769 
Q 4025 2497 4288 1838 
Q 4734 2413 5106 3431 
L 5550 3284 
Q 5113 2075 4500 1325 
Q 4738 869 5008 498 
Q 5278 128 5409 128 
Q 5450 128 5509 462 
Q 5569 797 5575 1081 
L 6047 806 
z
M 5650 4659 
L 5306 4359 
Q 4688 4859 4063 4928 
L 4447 5275 
Q 5144 5119 5650 4659 
z
" transform="scale(0.015625)"/>
     </defs>
     <use xlink:href="#ArialUnicodeMS-534a"/>
     <use xlink:href="#ArialUnicodeMS-5e74" transform="translate(100 0)"/>
     <use xlink:href="#ArialUnicodeMS-5ea6" transform="translate(200 0)"/>
     <use xlink:href="#ArialUnicodeMS-98ce" transform="translate(300 0)"/>
     <use xlink:href="#ArialUnicodeMS-9669" transform="translate(400 0)"/>
     <use xlink:href="#ArialUnicodeMS-4e3b" transform="translate(500 0)"/>
     <use xlink:href="#ArialUnicodeMS-9898" transform="translate(600 0)"/>
     <use xlink:href="#ArialUnicodeMS-6784" transform="translate(700 0)"/>
     <use xlink:href="#ArialUnicodeMS-6210" transform="translate(800 0)"/>
    </g>
   </g>
   <g id="legend_1">
    <g id="patch_20">
     <path d="M 52.776875 37.047187 
L 70.776875 37.047187 
L 70.776875 30.747187 
L 52.776875 30.747187 
z
" style="fill: #8c4a5b"/>
    </g>
    <g id="text_14">
     <!-- detection -->
     <g transform="translate(77.976875 37.047187) scale(0.09 -0.09)">
      <defs>
       <path id="ArialUnicodeMS-64" d="M 3109 0 
L 2584 0 
L 2584 422 
L 2572 422 
Q 2269 -78 1656 -78 
Q 1047 -78 639 405 
Q 231 888 231 1656 
Q 231 2459 615 2925 
Q 1000 3391 1631 3391 
Q 2225 3391 2534 2938 
L 2547 2938 
L 2547 4581 
L 3109 4581 
L 3109 0 
z
M 1716 384 
Q 2084 384 2340 687 
Q 2597 991 2597 1606 
Q 2597 2213 2362 2572 
Q 2128 2931 1691 2931 
Q 1253 2931 1029 2579 
Q 806 2228 806 1656 
Q 806 1244 926 958 
Q 1047 672 1262 528 
Q 1478 384 1716 384 
z
" transform="scale(0.015625)"/>
       <path id="ArialUnicodeMS-65" d="M 3309 1516 
L 825 1516 
Q 859 966 1139 675 
Q 1419 384 1838 384 
Q 2159 384 2378 554 
Q 2597 725 2713 1069 
L 3291 997 
Q 3150 478 2775 200 
Q 2400 -78 1838 -78 
Q 1091 -78 670 380 
Q 250 838 250 1631 
Q 250 2416 658 2903 
Q 1066 3391 1806 3391 
Q 2169 3391 2505 3231 
Q 2841 3072 3075 2689 
Q 3309 2306 3309 1516 
z
M 2731 1978 
Q 2697 2484 2417 2707 
Q 2138 2931 1806 2931 
Q 1409 2931 1153 2665 
Q 897 2400 856 1978 
L 2731 1978 
z
" transform="scale(0.015625)"/>
       <path id="ArialUnicodeMS-74" d="M 1722 6 
Q 1472 -44 1300 -44 
Q 931 -44 762 86 
Q 594 216 556 416 
Q 519 616 519 972 
L 519 2881 
L 109 2881 
L 109 3316 
L 519 3316 
L 519 4141 
L 1081 4481 
L 1081 3316 
L 1644 3316 
L 1644 2881 
L 1081 2881 
L 1081 941 
Q 1081 691 1132 586 
Q 1184 481 1394 481 
Q 1516 481 1644 506 
L 1722 6 
z
" transform="scale(0.015625)"/>
       <path id="ArialUnicodeMS-63" d="M 3144 1147 
Q 3034 513 2643 217 
Q 2253 -78 1759 -78 
Q 1038 -78 644 395 
Q 250 869 250 1650 
Q 250 2297 476 2686 
Q 703 3075 1043 3233 
Q 1384 3391 1759 3391 
Q 2272 3391 2636 3125 
Q 3000 2859 3084 2344 
L 2541 2259 
Q 2456 2594 2267 2762 
Q 2078 2931 1784 2931 
Q 1313 2931 1069 2597 
Q 825 2263 825 1663 
Q 825 1050 1064 717 
Q 1303 384 1753 384 
Q 2116 384 2323 592 
Q 2531 800 2584 1216 
L 3144 1147 
z
" transform="scale(0.015625)"/>
       <path id="ArialUnicodeMS-69" d="M 991 0 
L 428 0 
L 428 3316 
L 991 3316 
L 991 0 
z
M 991 3944 
L 428 3944 
L 428 4581 
L 991 4581 
L 991 3944 
z
" transform="scale(0.015625)"/>
       <path id="ArialUnicodeMS-6f" d="M 1778 3391 
Q 2450 3391 2892 2953 
Q 3334 2516 3334 1709 
Q 3334 731 2856 326 
Q 2378 -78 1778 -78 
Q 1150 -78 687 337 
Q 225 753 225 1656 
Q 225 2531 672 2961 
Q 1119 3391 1778 3391 
z
M 1778 384 
Q 2259 384 2509 740 
Q 2759 1097 2759 1678 
Q 2759 2300 2476 2615 
Q 2194 2931 1778 2931 
Q 1350 2931 1075 2611 
Q 800 2291 800 1656 
Q 800 1025 1079 704 
Q 1359 384 1778 384 
z
" transform="scale(0.015625)"/>
       <path id="ArialUnicodeMS-6e" d="M 3138 0 
L 2572 0 
L 2572 2016 
Q 2572 2525 2389 2715 
Q 2206 2906 1881 2906 
Q 1631 2906 1407 2784 
Q 1184 2663 1090 2441 
Q 997 2219 997 1813 
L 997 0 
L 434 0 
L 434 3316 
L 941 3316 
L 941 2847 
L 953 2847 
Q 1131 3119 1392 3255 
Q 1653 3391 1997 3391 
Q 2259 3391 2515 3297 
Q 2772 3203 2917 3015 
Q 3063 2828 3100 2615 
Q 3138 2403 3138 2041 
L 3138 0 
z
" transform="scale(0.015625)"/>
      </defs>
      <use xlink:href="#ArialUnicodeMS-64"/>
      <use xlink:href="#ArialUnicodeMS-65" transform="translate(55.615234 0)"/>
      <use xlink:href="#ArialUnicodeMS-74" transform="translate(111.230469 0)"/>
      <use xlink:href="#ArialUnicodeMS-65" transform="translate(139.013672 0)"/>
      <use xlink:href="#ArialUnicodeMS-63" transform="translate(194.628906 0)"/>
      <use xlink:href="#ArialUnicodeMS-74" transform="translate(244.628906 0)"/>
      <use xlink:href="#ArialUnicodeMS-69" transform="translate(272.412109 0)"/>
      <use xlink:href="#ArialUnicodeMS-6f" transform="translate(294.628906 0)"/>
      <use xlink:href="#ArialUnicodeMS-6e" transform="translate(350.244141 0)"/>
     </g>
    </g>
    <g id="patch_21">
     <path d="M 132.501406 37.047187 
L 150.501406 37.047187 
L 150.501406 30.747187 
L 132.501406 30.747187 
z
" style="fill: #d17b49"/>
    </g>
    <g id="text_15">
     <!-- hallucination -->
     <g transform="translate(157.701406 37.047187) scale(0.09 -0.09)">
      <defs>
       <path id="ArialUnicodeMS-68" d="M 3138 0 
L 2572 0 
L 2572 2094 
Q 2572 2500 2397 2703 
Q 2222 2906 1875 2906 
Q 1531 2906 1261 2667 
Q 991 2428 991 1813 
L 991 0 
L 428 0 
L 428 4581 
L 991 4581 
L 991 2938 
Q 1391 3391 1991 3391 
Q 2313 3391 2606 3259 
Q 2900 3128 3019 2856 
Q 3138 2584 3138 2100 
L 3138 0 
z
" transform="scale(0.015625)"/>
       <path id="ArialUnicodeMS-61" d="M 3303 0 
L 2713 0 
Q 2631 156 2597 409 
Q 2031 -78 1375 -78 
Q 850 -78 547 184 
Q 244 447 244 878 
Q 244 1291 536 1558 
Q 828 1825 1550 1913 
L 2075 1991 
Q 2369 2038 2559 2106 
Q 2559 2359 2543 2464 
Q 2528 2569 2451 2681 
Q 2375 2794 2206 2862 
Q 2038 2931 1753 2931 
Q 1391 2931 1180 2797 
Q 969 2663 891 2297 
L 341 2369 
Q 431 2878 806 3134 
Q 1181 3391 1838 3391 
Q 2434 3391 2714 3214 
Q 2994 3038 3058 2788 
Q 3122 2538 3122 2144 
L 3122 1388 
Q 3122 697 3148 461 
Q 3175 225 3303 0 
z
M 2559 1459 
L 2559 1663 
Q 2119 1516 1481 1430 
Q 844 1344 844 891 
Q 844 663 1016 514 
Q 1188 366 1509 366 
Q 1925 366 2242 614 
Q 2559 863 2559 1459 
z
" transform="scale(0.015625)"/>
       <path id="ArialUnicodeMS-6c" d="M 991 0 
L 428 0 
L 428 4581 
L 991 4581 
L 991 0 
z
" transform="scale(0.015625)"/>
       <path id="ArialUnicodeMS-75" d="M 3116 0 
L 2613 0 
L 2613 488 
L 2597 488 
Q 2216 -78 1556 -78 
Q 1209 -78 914 83 
Q 619 244 520 526 
Q 422 809 422 1259 
L 422 3316 
L 984 3316 
L 984 1478 
Q 984 1038 1026 847 
Q 1069 656 1247 532 
Q 1425 409 1672 409 
Q 1991 409 2272 629 
Q 2553 850 2553 1544 
L 2553 3316 
L 3116 3316 
L 3116 0 
z
" transform="scale(0.015625)"/>
      </defs>
      <use xlink:href="#ArialUnicodeMS-68"/>
      <use xlink:href="#ArialUnicodeMS-61" transform="translate(55.615234 0)"/>
      <use xlink:href="#ArialUnicodeMS-6c" transform="translate(111.230469 0)"/>
      <use xlink:href="#ArialUnicodeMS-6c" transform="translate(133.447266 0)"/>
      <use xlink:href="#ArialUnicodeMS-75" transform="translate(155.664062 0)"/>
      <use xlink:href="#ArialUnicodeMS-63" transform="translate(211.279297 0)"/>
      <use xlink:href="#ArialUnicodeMS-69" transform="translate(261.279297 0)"/>
      <use xlink:href="#ArialUnicodeMS-6e" transform="translate(283.496094 0)"/>
      <use xlink:href="#ArialUnicodeMS-61" transform="translate(339.111328 0)"/>
      <use xlink:href="#ArialUnicodeMS-74" transform="translate(394.726562 0)"/>
      <use xlink:href="#ArialUnicodeMS-69" transform="translate(422.509766 0)"/>
      <use xlink:href="#ArialUnicodeMS-6f" transform="translate(444.726562 0)"/>
      <use xlink:href="#ArialUnicodeMS-6e" transform="translate(500.341797 0)"/>
     </g>
    </g>
    <g id="patch_22">
     <path d="M 225.734375 37.047187 
L 243.734375 37.047187 
L 243.734375 30.747187 
L 225.734375 30.747187 
z
" style="fill: #7a8f63"/>
    </g>
    <g id="text_16">
     <!-- ethics -->
     <g transform="translate(250.934375 37.047187) scale(0.09 -0.09)">
      <defs>
       <path id="ArialUnicodeMS-73" d="M 2278 2388 
Q 2241 2659 2058 2795 
Q 1875 2931 1550 2931 
Q 1228 2931 1029 2822 
Q 831 2713 831 2503 
Q 831 2306 989 2222 
Q 1147 2138 1613 2016 
Q 2138 1881 2398 1778 
Q 2659 1675 2804 1489 
Q 2950 1303 2950 972 
Q 2950 528 2587 225 
Q 2225 -78 1619 -78 
Q 988 -78 633 189 
Q 278 456 197 991 
L 756 1075 
Q 800 728 1014 556 
Q 1228 384 1613 384 
Q 1981 384 2178 539 
Q 2375 694 2375 916 
Q 2375 1066 2284 1156 
Q 2194 1247 2058 1292 
Q 1922 1338 1447 1453 
Q 741 1622 514 1862 
Q 288 2103 288 2438 
Q 288 2853 619 3122 
Q 950 3391 1509 3391 
Q 2103 3391 2433 3158 
Q 2763 2925 2828 2463 
L 2278 2388 
z
" transform="scale(0.015625)"/>
      </defs>
      <use xlink:href="#ArialUnicodeMS-65"/>
      <use xlink:href="#ArialUnicodeMS-74" transform="translate(55.615234 0)"/>
      <use xlink:href="#ArialUnicodeMS-68" transform="translate(83.398438 0)"/>
      <use xlink:href="#ArialUnicodeMS-69" transform="translate(139.013672 0)"/>
      <use xlink:href="#ArialUnicodeMS-63" transform="translate(161.230469 0)"/>
      <use xlink:href="#ArialUnicodeMS-73" transform="translate(211.230469 0)"/>
     </g>
    </g>
   </g>
  </g>
 </g>
 <defs>
  <clipPath id="pd745f15dcc">
   <rect x="44.676875" y="22.505156" width="491.04" height="266.112"/>
  </clipPath>
 </defs>
</svg>
