<?xml version="1.0" encoding="utf-8" standalone="no"?>
<!DOCTYPE svg PUBLIC "-//W3C//DTD SVG 1.1//EN"
  "http://www.w3.org/Graphics/SVG/1.1/DTD/svg11.dtd">
<svg xmlns:xlink="http://www.w3.org/1999/xlink" width="609.876875pt" height="334.975688pt" viewBox="0 0 609.876875 334.975688" xmlns="http://www.w3.org/2000/svg" version="1.1">
 <metadata>
  <rdf:RDF xmlns:dc="http://purl.org/dc/elements/1.1/" xmlns:cc="http://creativecommons.org/ns#" xmlns:rdf="http://www.w3.org/1999/02/22-rdf-syntax-ns#">
   <cc:Work>
    <dc:type rdf:resource="http://purl.org/dc/dcmitype/StillImage"/>
    <dc:date>2026-04-16T02:44:56.620738</dc:date>
    <dc:format>image/svg+xml</dc:format>
    <dc:creator>
     <cc:Agent>
      <dc:title>Matplotlib v3.10.8, https://matplotlib.org/</dc:title>
     </cc:Agent>
    </dc:creator>
   </cc:Work>
  </rdf:RDF>
 </metadata>
 <defs>
  <style type="text/css">*{stroke-linejoin: round; stroke-linecap: butt}</style>
 </defs>
 <g id="figure_1">
  <g id="patch_1">
   <path d="M 0 334.975688 
L 609.876875 334.975688 
L 609.876875 0 
L 0 0 
z
" style="fill: #ffffff"/>
  </g>
  <g id="axes_1">
   <g id="patch_2">
    <path d="M 44.676875 288.617156 
L 602.676875 288.617156 
L 602.676875 22.505156 
L 44.676875 22.505156 
z
" style="fill: #ffffff"/>
   </g>
   <g id="patch_3">
    <path d="M 70.040511 288.617156 
L 107.616269 288.617156 
L 107.616269 49.116356 
L 70.040511 49.116356 
z
" clip-path="url(#p67dff88b56)" style="fill: #355070"/>
   </g>
   <g id="patch_4">
    <path d="M 122.229064 288.617156 
L 159.804821 288.617156 
L 159.804821 126.353742 
L 122.229064 126.353742 
z
" clip-path="url(#p67dff88b56)" style="fill: #355070"/>
   </g>
   <g id="patch_5">
    <path d="M 174.417616 288.617156 
L 211.993373 288.617156 
L 211.993373 163.877156 
L 174.417616 163.877156 
z
" clip-path="url(#p67dff88b56)" style="fill: #355070"/>
   </g>
   <g id="patch_6">
    <path d="M 226.606168 288.617156 
L 264.181926 288.617156 
L 264.181926 169.32557 
L 226.606168 169.32557 
z
" clip-path="url(#p67dff88b56)" style="fill: #355070"/>
   </g>
   <g id="patch_7">
    <path d="M 278.79472 288.617156 
L 316.370478 288.617156 
L 316.370478 218.081445 
L 278.79472 218.081445 
z
" clip-path="url(#p67dff88b56)" style="fill: #355070"/>
   </g>
   <g id="patch_8">
    <path d="M 330.983272 288.617156 
L 368.55903 288.617156 
L 368.55903 205.355119 
L 330.983272 205.355119 
z
" clip-path="url(#p67dff88b56)" style="fill: #355070"/>
   </g>
   <g id="patch_9">
    <path d="M 383.171824 288.617156 
L 420.747582 288.617156 
L 420.747582 196.347166 
L 383.171824 196.347166 
z
" clip-path="url(#p67dff88b56)" style="fill: #355070"/>
   </g>
   <g id="patch_10">
    <path d="M 435.360377 288.617156 
L 472.936134 288.617156 
L 472.936134 212.719015 
L 435.360377 212.719015 
z
" clip-path="url(#p67dff88b56)" style="fill: #355070"/>
   </g>
   <g id="patch_11">
    <path d="M 487.548929 288.617156 
L 525.124686 288.617156 
L 525.124686 225.59631 
L 487.548929 225.59631 
z
" clip-path="url(#p67dff88b56)" style="fill: #355070"/>
   </g>
   <g id="patch_12">
    <path d="M 539.737481 288.617156 
L 577.313239 288.617156 
L 577.313239 230.875873 
L 539.737481 230.875873 
z
" clip-path="url(#p67dff88b56)" style="fill: #355070"/>
   </g>
   <g id="patch_13">
    <path d="M 70.040511 49.116356 
L 107.616269 49.116356 
L 107.616269 22.505156 
L 70.040511 22.505156 
z
" clip-path="url(#p67dff88b56)" style="fill: #6d597a"/>
   </g>
   <g id="patch_14">
    <path d="M 122.229064 126.353742 
L 159.804821 126.353742 
L 159.804821 106.882132 
L 122.229064 106.882132 
z
" clip-path="url(#p67dff88b56)" style="fill: #6d597a"/>
   </g>
   <g id="patch_15">
    <path d="M 174.417616 163.877156 
L 211.993373 163.877156 
L 211.993373 163.877156 
L 174.417616 163.877156 
z
" clip-path="url(#p67dff88b56)" style="fill: #6d597a"/>
   </g>
   <g id="patch_16">
    <path d="M 226.606168 169.32557 
L 264.181926 169.32557 
L 264.181926 132.620467 
L 226.606168 132.620467 
z
" clip-path="url(#p67dff88b56)" style="fill: #6d597a"/>
   </g>
   <g id="patch_17">
    <path d="M 278.79472 218.081445 
L 316.370478 218.081445 
L 316.370478 190.29465 
L 278.79472 190.29465 
z
" clip-path="url(#p67dff88b56)" style="fill: #6d597a"/>
   </g>
   <g id="patch_18">
    <path d="M 330.983272 205.355119 
L 368.55903 205.355119 
L 368.55903 156.377451 
L 330.983272 156.377451 
z
" clip-path="url(#p67dff88b56)" style="fill: #6d597a"/>
   </g>
   <g id="patch_19">
    <path d="M 383.171824 196.347166 
L 420.747582 196.347166 
L 420.747582 157.567026 
L 383.171824 157.567026 
z
" clip-path="url(#p67dff88b56)" style="fill: #6d597a"/>
   </g>
   <g id="patch_20">
    <path d="M 435.360377 212.719015 
L 472.936134 212.719015 
L 472.936134 172.42741 
L 435.360377 172.42741 
z
" clip-path="url(#p67dff88b56)" style="fill: #6d597a"/>
   </g>
   <g id="patch_21">
    <path d="M 487.548929 225.59631 
L 525.124686 225.59631 
L 525.124686 151.352572 
L 487.548929 151.352572 
z
" clip-path="url(#p67dff88b56)" style="fill: #6d597a"/>
   </g>
   <g id="patch_22">
    <path d="M 539.737481 230.875873 
L 577.313239 230.875873 
L 577.313239 120.414288 
L 539.737481 120.414288 
z
" clip-path="url(#p67dff88b56)" style="fill: #6d597a"/>
   </g>
   <g id="patch_23">
    <path d="M 70.040511 22.505156 
L 107.616269 22.505156 
L 107.616269 22.505156 
L 70.040511 22.505156 
z
" clip-path="url(#p67dff88b56)" style="fill: #b56576"/>
   </g>
   <g id="patch_24">
    <path d="M 122.229064 106.882132 
L 159.804821 106.882132 
L 159.804821 87.410522 
L 122.229064 87.410522 
z
" clip-path="url(#p67dff88b56)" style="fill: #b56576"/>
   </g>
   <g id="patch_25">
    <path d="M 174.417616 163.877156 
L 211.993373 163.877156 
L 211.993373 155.561156 
L 174.417616 155.561156 
z
" clip-path="url(#p67dff88b56)" style="fill: #b56576"/>
   </g>
   <g id="patch_26">
    <path d="M 226.606168 132.620467 
L 264.181926 132.620467 
L 264.181926 129.561708 
L 226.606168 129.561708 
z
" clip-path="url(#p67dff88b56)" style="fill: #b56576"/>
   </g>
   <g id="patch_27">
    <path d="M 278.79472 190.29465 
L 316.370478 190.29465 
L 316.370478 179.607421 
L 278.79472 179.607421 
z
" clip-path="url(#p67dff88b56)" style="fill: #b56576"/>
   </g>
   <g id="patch_28">
    <path d="M 330.983272 156.377451 
L 368.55903 156.377451 
L 368.55903 131.888616 
L 330.983272 131.888616 
z
" clip-path="url(#p67dff88b56)" style="fill: #b56576"/>
   </g>
   <g id="patch_29">
    <path d="M 383.171824 157.567026 
L 420.747582 157.567026 
L 420.747582 120.124131 
L 383.171824 120.124131 
z
" clip-path="url(#p67dff88b56)" style="fill: #b56576"/>
   </g>
   <g id="patch_30">
    <path d="M 435.360377 172.42741 
L 472.936134 172.42741 
L 472.936134 110.58448 
L 435.360377 110.58448 
z
" clip-path="url(#p67dff88b56)" style="fill: #b56576"/>
   </g>
   <g id="patch_31">
    <path d="M 487.548929 151.352572 
L 525.124686 151.352572 
L 525.124686 87.468426 
L 487.548929 87.468426 
z
" clip-path="url(#p67dff88b56)" style="fill: #b56576"/>
   </g>
   <g id="patch_32">
    <path d="M 539.737481 120.414288 
L 577.313239 120.414288 
L 577.313239 82.75693 
L 539.737481 82.75693 
z
" clip-path="url(#p67dff88b56)" style="fill: #b56576"/>
   </g>
   <g id="patch_33">
    <path d="M 70.040511 22.505156 
L 107.616269 22.505156 
L 107.616269 22.505156 
L 70.040511 22.505156 
z
" clip-path="url(#p67dff88b56)" style="fill: #e56b6f"/>
   </g>
   <g id="patch_34">
    <path d="M 122.229064 87.410522 
L 159.804821 87.410522 
L 159.804821 87.410522 
L 122.229064 87.410522 
z
" clip-path="url(#p67dff88b56)" style="fill: #e56b6f"/>
   </g>
   <g id="patch_35">
    <path d="M 174.417616 155.561156 
L 211.993373 155.561156 
L 211.993373 155.561156 
L 174.417616 155.561156 
z
" clip-path="url(#p67dff88b56)" style="fill: #e56b6f"/>
   </g>
   <g id="patch_36">
    <path d="M 226.606168 129.561708 
L 264.181926 129.561708 
L 264.181926 126.502949 
L 226.606168 126.502949 
z
" clip-path="url(#p67dff88b56)" style="fill: #e56b6f"/>
   </g>
   <g id="patch_37">
    <path d="M 278.79472 179.607421 
L 316.370478 179.607421 
L 316.370478 80.216192 
L 278.79472 80.216192 
z
" clip-path="url(#p67dff88b56)" style="fill: #e56b6f"/>
   </g>
   <g id="patch_38">
    <path d="M 330.983272 131.888616 
L 368.55903 131.888616 
L 368.55903 79.64577 
L 330.983272 79.64577 
z
" clip-path="url(#p67dff88b56)" style="fill: #e56b6f"/>
   </g>
   <g id="patch_39">
    <path d="M 383.171824 120.124131 
L 420.747582 120.124131 
L 420.747582 85.355729 
L 383.171824 85.355729 
z
" clip-path="url(#p67dff88b56)" style="fill: #e56b6f"/>
   </g>
   <g id="patch_40">
    <path d="M 435.360377 110.58448 
L 472.936134 110.58448 
L 472.936134 73.103917 
L 435.360377 73.103917 
z
" clip-path="url(#p67dff88b56)" style="fill: #e56b6f"/>
   </g>
   <g id="patch_41">
    <path d="M 487.548929 87.468426 
L 525.124686 87.468426 
L 525.124686 65.454295 
L 487.548929 65.454295 
z
" clip-path="url(#p67dff88b56)" style="fill: #e56b6f"/>
   </g>
   <g id="patch_42">
    <path d="M 539.737481 82.75693 
L 577.313239 82.75693 
L 577.313239 62.673005 
L 539.737481 62.673005 
z
" clip-path="url(#p67dff88b56)" style="fill: #e56b6f"/>
   </g>
   <g id="patch_43">
    <path d="M 70.040511 22.505156 
L 107.616269 22.505156 
L 107.616269 22.505156 
L 70.040511 22.505156 
z
" clip-path="url(#p67dff88b56)" style="fill: #eaac8b"/>
   </g>
   <g id="patch_44">
    <path d="M 122.229064 87.410522 
L 159.804821 87.410522 
L 159.804821 54.957839 
L 122.229064 54.957839 
z
" clip-path="url(#p67dff88b56)" style="fill: #eaac8b"/>
   </g>
   <g id="patch_45">
    <path d="M 174.417616 155.561156 
L 211.993373 155.561156 
L 211.993373 113.981156 
L 174.417616 113.981156 
z
" clip-path="url(#p67dff88b56)" style="fill: #eaac8b"/>
   </g>
   <g id="patch_46">
    <path d="M 226.606168 126.502949 
L 264.181926 126.502949 
L 264.181926 86.739087 
L 226.606168 86.739087 
z
" clip-path="url(#p67dff88b56)" style="fill: #eaac8b"/>
   </g>
   <g id="patch_47">
    <path d="M 278.79472 80.216192 
L 316.370478 80.216192 
L 316.370478 67.391518 
L 278.79472 67.391518 
z
" clip-path="url(#p67dff88b56)" style="fill: #eaac8b"/>
   </g>
   <g id="patch_48">
    <path d="M 330.983272 79.64577 
L 368.55903 79.64577 
L 368.55903 61.687291 
L 330.983272 61.687291 
z
" clip-path="url(#p67dff88b56)" style="fill: #eaac8b"/>
   </g>
   <g id="patch_49">
    <path d="M 383.171824 85.355729 
L 420.747582 85.355729 
L 420.747582 70.646021 
L 383.171824 70.646021 
z
" clip-path="url(#p67dff88b56)" style="fill: #eaac8b"/>
   </g>
   <g id="patch_50">
    <path d="M 435.360377 73.103917 
L 472.936134 73.103917 
L 472.936134 58.111691 
L 435.360377 58.111691 
z
" clip-path="url(#p67dff88b56)" style="fill: #eaac8b"/>
   </g>
   <g id="patch_51">
    <path d="M 487.548929 65.454295 
L 525.124686 65.454295 
L 525.124686 44.950937 
L 487.548929 44.950937 
z
" clip-path="url(#p67dff88b56)" style="fill: #eaac8b"/>
   </g>
   <g id="patch_52">
    <path d="M 539.737481 62.673005 
L 577.313239 62.673005 
L 577.313239 47.610062 
L 539.737481 47.610062 
z
" clip-path="url(#p67dff88b56)" style="fill: #eaac8b"/>
   </g>
   <g id="patch_53">
    <path d="M 70.040511 22.505156 
L 107.616269 22.505156 
L 107.616269 22.505156 
L 70.040511 22.505156 
z
" clip-path="url(#p67dff88b56)" style="fill: #a7b0be"/>
   </g>
   <g id="patch_54">
    <path d="M 122.229064 54.957839 
L 159.804821 54.957839 
L 159.804821 22.505156 
L 122.229064 22.505156 
z
" clip-path="url(#p67dff88b56)" style="fill: #a7b0be"/>
   </g>
   <g id="patch_55">
    <path d="M 174.417616 113.981156 
L 211.993373 113.981156 
L 211.993373 22.505156 
L 174.417616 22.505156 
z
" clip-path="url(#p67dff88b56)" style="fill: #a7b0be"/>
   </g>
   <g id="patch_56">
    <path d="M 226.606168 86.739087 
L 264.181926 86.739087 
L 264.181926 22.505156 
L 226.606168 22.505156 
z
" clip-path="url(#p67dff88b56)" style="fill: #a7b0be"/>
   </g>
   <g id="patch_57">
    <path d="M 278.79472 67.391518 
L 316.370478 67.391518 
L 316.370478 22.505156 
L 278.79472 22.505156 
z
" clip-path="url(#p67dff88b56)" style="fill: #a7b0be"/>
   </g>
   <g id="patch_58">
    <path d="M 330.983272 61.687291 
L 368.55903 61.687291 
L 368.55903 22.505156 
L 330.983272 22.505156 
z
" clip-path="url(#p67dff88b56)" style="fill: #a7b0be"/>
   </g>
   <g id="patch_59">
    <path d="M 383.171824 70.646021 
L 420.747582 70.646021 
L 420.747582 22.505156 
L 383.171824 22.505156 
z
" clip-path="url(#p67dff88b56)" style="fill: #a7b0be"/>
   </g>
   <g id="patch_60">
    <path d="M 435.360377 58.111691 
L 472.936134 58.111691 
L 472.936134 22.505156 
L 435.360377 22.505156 
z
" clip-path="url(#p67dff88b56)" style="fill: #a7b0be"/>
   </g>
   <g id="patch_61">
    <path d="M 487.548929 44.950937 
L 525.124686 44.950937 
L 525.124686 22.505156 
L 487.548929 22.505156 
z
" clip-path="url(#p67dff88b56)" style="fill: #a7b0be"/>
   </g>
   <g id="patch_62">
    <path d="M 539.737481 47.610062 
L 577.313239 47.610062 
L 577.313239 22.505156 
L 539.737481 22.505156 
z
" clip-path="url(#p67dff88b56)" style="fill: #a7b0be"/>
   </g>
   <g id="matplotlib.axis_1">
    <g id="xtick_1">
     <g id="line2d_1">
      <defs>
       <path id="m3cc1dc676e" d="M 0 0 
L 0 3.5 
" style="stroke: #000000; stroke-width: 0.8"/>
      </defs>
      <g>
       <use xlink:href="#m3cc1dc676e" x="88.82839" y="288.617156" style="stroke: #000000; stroke-width: 0.8"/>
      </g>
     </g>
     <g id="text_1">
      <!-- 2024Q1 -->
      <g transform="translate(59.046567 314.989771) rotate(-25) scale(0.09 -0.09)">
       <defs>
        <path id="ArialUnicodeMS-32" d="M 3231 0 
L 197 0 
Q 197 388 467 784 
Q 738 1181 1478 1778 
Q 1931 2141 2287 2539 
Q 2644 2938 2644 3341 
Q 2644 3688 2398 3914 
Q 2153 4141 1778 4141 
Q 1400 4141 1144 3908 
Q 888 3675 884 3213 
L 306 3278 
Q 359 3922 764 4262 
Q 1169 4603 1791 4603 
Q 2466 4603 2842 4229 
Q 3219 3856 3219 3328 
Q 3219 2888 2901 2436 
Q 2584 1984 1638 1228 
Q 1141 831 978 544 
L 3231 544 
L 3231 0 
z
" transform="scale(0.015625)"/>
        <path id="ArialUnicodeMS-30" d="M 1778 4603 
Q 3272 4603 3272 2259 
Q 3272 1075 2886 498 
Q 2500 -78 1778 -78 
Q 288 -78 288 2259 
Q 288 3444 673 4023 
Q 1059 4603 1778 4603 
z
M 1778 384 
Q 2231 384 2462 823 
Q 2694 1263 2694 2259 
Q 2694 2953 2592 3351 
Q 2491 3750 2286 3945 
Q 2081 4141 1772 4141 
Q 1319 4141 1091 3694 
Q 863 3247 863 2259 
Q 863 1575 966 1175 
Q 1069 775 1272 579 
Q 1475 384 1778 384 
z
" transform="scale(0.015625)"/>
        <path id="ArialUnicodeMS-34" d="M 3263 1094 
L 2644 1094 
L 2644 0 
L 2081 0 
L 2081 1094 
L 97 1094 
L 97 1613 
L 2181 4581 
L 2644 4581 
L 2644 1613 
L 3263 1613 
L 3263 1094 
z
M 2081 1613 
L 2081 3681 
L 2069 3681 
L 647 1613 
L 2081 1613 
z
" transform="scale(0.015625)"/>
        <path id="ArialUnicodeMS-51" d="M 4769 63 
L 4588 -359 
Q 4056 -156 3609 206 
Q 3091 -78 2484 -78 
Q 1525 -78 912 586 
Q 300 1250 300 2291 
Q 300 3322 894 3990 
Q 1488 4659 2497 4659 
Q 3456 4659 4070 4006 
Q 4684 3353 4684 2297 
Q 4684 1166 3994 494 
Q 4381 216 4769 63 
z
M 3519 825 
Q 4056 1322 4056 2291 
Q 4056 3156 3623 3648 
Q 3191 4141 2497 4141 
Q 1803 4141 1365 3669 
Q 928 3197 928 2291 
Q 928 1403 1365 922 
Q 1803 441 2497 441 
Q 2838 441 3109 563 
Q 2806 756 2509 825 
L 2656 1269 
Q 3216 1109 3519 825 
z
" transform="scale(0.015625)"/>
        <path id="ArialUnicodeMS-31" d="M 2400 0 
L 1838 0 
L 1838 3584 
Q 1416 3184 709 2906 
L 709 3450 
Q 1681 3916 2034 4603 
L 2400 4603 
L 2400 0 
z
" transform="scale(0.015625)"/>
       </defs>
       <use xlink:href="#ArialUnicodeMS-32"/>
       <use xlink:href="#ArialUnicodeMS-30" transform="translate(55.615234 0)"/>
       <use xlink:href="#ArialUnicodeMS-32" transform="translate(111.230469 0)"/>
       <use xlink:href="#ArialUnicodeMS-34" transform="translate(166.845703 0)"/>
       <use xlink:href="#ArialUnicodeMS-51" transform="translate(222.460938 0)"/>
       <use xlink:href="#ArialUnicodeMS-31" transform="translate(300.244141 0)"/>
      </g>
     </g>
    </g>
    <g id="xtick_2">
     <g id="line2d_2">
      <g>
       <use xlink:href="#m3cc1dc676e" x="141.016942" y="288.617156" style="stroke: #000000; stroke-width: 0.8"/>
      </g>
     </g>
     <g id="text_2">
      <!-- 2024Q2 -->
      <g transform="translate(111.235119 314.989771) rotate(-25) scale(0.09 -0.09)">
       <use xlink:href="#ArialUnicodeMS-32"/>
       <use xlink:href="#ArialUnicodeMS-30" transform="translate(55.615234 0)"/>
       <use xlink:href="#ArialUnicodeMS-32" transform="translate(111.230469 0)"/>
       <use xlink:href="#ArialUnicodeMS-34" transform="translate(166.845703 0)"/>
       <use xlink:href="#ArialUnicodeMS-51" transform="translate(222.460938 0)"/>
       <use xlink:href="#ArialUnicodeMS-32" transform="translate(300.244141 0)"/>
      </g>
     </g>
    </g>
    <g id="xtick_3">
     <g id="line2d_3">
      <g>
       <use xlink:href="#m3cc1dc676e" x="193.205495" y="288.617156" style="stroke: #000000; stroke-width: 0.8"/>
      </g>
     </g>
     <g id="text_3">
      <!-- 2024Q3 -->
      <g transform="translate(163.423671 314.989771) rotate(-25) scale(0.09 -0.09)">
       <defs>
        <path id="ArialUnicodeMS-33" d="M 2425 2478 
Q 2850 2397 3067 2067 
Q 3284 1738 3284 1350 
Q 3284 725 2829 323 
Q 2375 -78 1741 -78 
Q 1134 -78 740 275 
Q 347 628 281 1209 
L 844 1288 
Q 928 834 1151 609 
Q 1375 384 1741 384 
Q 2134 384 2407 661 
Q 2681 938 2681 1338 
Q 2681 1722 2432 1975 
Q 2184 2228 1784 2228 
Q 1622 2228 1388 2169 
L 1453 2663 
Q 1678 2663 1809 2684 
Q 1941 2706 2103 2790 
Q 2266 2875 2372 3033 
Q 2478 3191 2478 3425 
Q 2478 3766 2251 3953 
Q 2025 4141 1728 4141 
Q 1388 4141 1173 3925 
Q 959 3709 903 3309 
L 341 3413 
Q 450 4009 823 4306 
Q 1197 4603 1716 4603 
Q 2288 4603 2670 4258 
Q 3053 3913 3053 3413 
Q 3053 2772 2425 2491 
L 2425 2478 
z
" transform="scale(0.015625)"/>
       </defs>
       <use xlink:href="#ArialUnicodeMS-32"/>
       <use xlink:href="#ArialUnicodeMS-30" transform="translate(55.615234 0)"/>
       <use xlink:href="#ArialUnicodeMS-32" transform="translate(111.230469 0)"/>
       <use xlink:href="#ArialUnicodeMS-34" transform="translate(166.845703 0)"/>
       <use xlink:href="#ArialUnicodeMS-51" transform="translate(222.460938 0)"/>
       <use xlink:href="#ArialUnicodeMS-33" transform="translate(300.244141 0)"/>
      </g>
     </g>
    </g>
    <g id="xtick_4">
     <g id="line2d_4">
      <g>
       <use xlink:href="#m3cc1dc676e" x="245.394047" y="288.617156" style="stroke: #000000; stroke-width: 0.8"/>
      </g>
     </g>
     <g id="text_4">
      <!-- 2024Q4 -->
      <g transform="translate(215.612223 314.989771) rotate(-25) scale(0.09 -0.09)">
       <use xlink:href="#ArialUnicodeMS-32"/>
       <use xlink:href="#ArialUnicodeMS-30" transform="translate(55.615234 0)"/>
       <use xlink:href="#ArialUnicodeMS-32" transform="translate(111.230469 0)"/>
       <use xlink:href="#ArialUnicodeMS-34" transform="translate(166.845703 0)"/>
       <use xlink:href="#ArialUnicodeMS-51" transform="translate(222.460938 0)"/>
       <use xlink:href="#ArialUnicodeMS-34" transform="translate(300.244141 0)"/>
      </g>
     </g>
    </g>
    <g id="xtick_5">
     <g id="line2d_5">
      <g>
       <use xlink:href="#m3cc1dc676e" x="297.582599" y="288.617156" style="stroke: #000000; stroke-width: 0.8"/>
      </g>
     </g>
     <g id="text_5">
      <!-- 2025Q1 -->
      <g transform="translate(267.800776 314.989771) rotate(-25) scale(0.09 -0.09)">
       <defs>
        <path id="ArialUnicodeMS-35" d="M 1013 2753 
Q 1431 3041 1881 3041 
Q 2453 3041 2878 2636 
Q 3303 2231 3303 1556 
Q 3303 875 2872 398 
Q 2441 -78 1741 -78 
Q 1169 -78 750 245 
Q 331 569 269 1203 
L 856 1247 
Q 928 813 1162 598 
Q 1397 384 1741 384 
Q 2169 384 2434 707 
Q 2700 1031 2700 1503 
Q 2700 1984 2428 2262 
Q 2156 2541 1728 2541 
Q 1188 2541 897 2100 
L 366 2163 
L 813 4519 
L 3084 4519 
L 3084 3975 
L 1259 3975 
L 1013 2753 
z
" transform="scale(0.015625)"/>
       </defs>
       <use xlink:href="#ArialUnicodeMS-32"/>
       <use xlink:href="#ArialUnicodeMS-30" transform="translate(55.615234 0)"/>
       <use xlink:href="#ArialUnicodeMS-32" transform="translate(111.230469 0)"/>
       <use xlink:href="#ArialUnicodeMS-35" transform="translate(166.845703 0)"/>
       <use xlink:href="#ArialUnicodeMS-51" transform="translate(222.460938 0)"/>
       <use xlink:href="#ArialUnicodeMS-31" transform="translate(300.244141 0)"/>
      </g>
     </g>
    </g>
    <g id="xtick_6">
     <g id="line2d_6">
      <g>
       <use xlink:href="#m3cc1dc676e" x="349.771151" y="288.617156" style="stroke: #000000; stroke-width: 0.8"/>
      </g>
     </g>
     <g id="text_6">
      <!-- 2025Q2 -->
      <g transform="translate(319.989328 314.989771) rotate(-25) scale(0.09 -0.09)">
       <use xlink:href="#ArialUnicodeMS-32"/>
       <use xlink:href="#ArialUnicodeMS-30" transform="translate(55.615234 0)"/>
       <use xlink:href="#ArialUnicodeMS-32" transform="translate(111.230469 0)"/>
       <use xlink:href="#ArialUnicodeMS-35" transform="translate(166.845703 0)"/>
       <use xlink:href="#ArialUnicodeMS-51" transform="translate(222.460938 0)"/>
       <use xlink:href="#ArialUnicodeMS-32" transform="translate(300.244141 0)"/>
      </g>
     </g>
    </g>
    <g id="xtick_7">
     <g id="line2d_7">
      <g>
       <use xlink:href="#m3cc1dc676e" x="401.959703" y="288.617156" style="stroke: #000000; stroke-width: 0.8"/>
      </g>
     </g>
     <g id="text_7">
      <!-- 2025Q3 -->
      <g transform="translate(372.17788 314.989771) rotate(-25) scale(0.09 -0.09)">
       <use xlink:href="#ArialUnicodeMS-32"/>
       <use xlink:href="#ArialUnicodeMS-30" transform="translate(55.615234 0)"/>
       <use xlink:href="#ArialUnicodeMS-32" transform="translate(111.230469 0)"/>
       <use xlink:href="#ArialUnicodeMS-35" transform="translate(166.845703 0)"/>
       <use xlink:href="#ArialUnicodeMS-51" transform="translate(222.460938 0)"/>
       <use xlink:href="#ArialUnicodeMS-33" transform="translate(300.244141 0)"/>
      </g>
     </g>
    </g>
    <g id="xtick_8">
     <g id="line2d_8">
      <g>
       <use xlink:href="#m3cc1dc676e" x="454.148255" y="288.617156" style="stroke: #000000; stroke-width: 0.8"/>
      </g>
     </g>
     <g id="text_8">
      <!-- 2025Q4 -->
      <g transform="translate(424.366432 314.989771) rotate(-25) scale(0.09 -0.09)">
       <use xlink:href="#ArialUnicodeMS-32"/>
       <use xlink:href="#ArialUnicodeMS-30" transform="translate(55.615234 0)"/>
       <use xlink:href="#ArialUnicodeMS-32" transform="translate(111.230469 0)"/>
       <use xlink:href="#ArialUnicodeMS-35" transform="translate(166.845703 0)"/>
       <use xlink:href="#ArialUnicodeMS-51" transform="translate(222.460938 0)"/>
       <use xlink:href="#ArialUnicodeMS-34" transform="translate(300.244141 0)"/>
      </g>
     </g>
    </g>
    <g id="xtick_9">
     <g id="line2d_9">
      <g>
       <use xlink:href="#m3cc1dc676e" x="506.336808" y="288.617156" style="stroke: #000000; stroke-width: 0.8"/>
      </g>
     </g>
     <g id="text_9">
      <!-- 2026Q1 -->
      <g transform="translate(476.554984 314.989771) rotate(-25) scale(0.09 -0.09)">
       <defs>
        <path id="ArialUnicodeMS-36" d="M 838 2363 
Q 1225 2969 1941 2969 
Q 2503 2969 2897 2553 
Q 3291 2138 3291 1491 
Q 3291 838 2898 380 
Q 2506 -78 1856 -78 
Q 1197 -78 733 409 
Q 269 897 269 2144 
Q 269 3369 689 3986 
Q 1109 4603 1906 4603 
Q 2422 4603 2778 4315 
Q 3134 4028 3213 3463 
L 2650 3413 
Q 2497 4141 1875 4141 
Q 1444 4141 1134 3712 
Q 825 3284 825 2363 
L 838 2363 
z
M 1844 384 
Q 2231 384 2472 696 
Q 2713 1009 2713 1453 
Q 2713 1897 2472 2187 
Q 2231 2478 1825 2478 
Q 1453 2478 1184 2204 
Q 916 1931 916 1484 
Q 916 1028 1180 706 
Q 1444 384 1844 384 
z
" transform="scale(0.015625)"/>
       </defs>
       <use xlink:href="#ArialUnicodeMS-32"/>
       <use xlink:href="#ArialUnicodeMS-30" transform="translate(55.615234 0)"/>
       <use xlink:href="#ArialUnicodeMS-32" transform="translate(111.230469 0)"/>
       <use xlink:href="#ArialUnicodeMS-36" transform="translate(166.845703 0)"/>
       <use xlink:href="#ArialUnicodeMS-51" transform="translate(222.460938 0)"/>
       <use xlink:href="#ArialUnicodeMS-31" transform="translate(300.244141 0)"/>
      </g>
     </g>
    </g>
    <g id="xtick_10">
     <g id="line2d_10">
      <g>
       <use xlink:href="#m3cc1dc676e" x="558.52536" y="288.617156" style="stroke: #000000; stroke-width: 0.8"/>
      </g>
     </g>
     <g id="text_10">
      <!-- 2026Q2(部分) -->
      <g transform="translate(506.95709 326.062766) rotate(-25) scale(0.09 -0.09)">
       <defs>
        <path id="ArialUnicodeMS-28" d="M 1900 -1344 
L 1497 -1344 
Q 978 -681 681 103 
Q 384 888 384 1656 
Q 384 2528 700 3275 
Q 1016 4022 1497 4659 
L 1900 4659 
Q 1344 3747 1155 3059 
Q 966 2372 966 1663 
Q 966 153 1900 -1344 
z
" transform="scale(0.015625)"/>
        <path id="ArialUnicodeMS-90e8" d="M 3681 4134 
L 622 4134 
L 622 4603 
L 1941 4603 
L 1941 5313 
L 2444 5313 
L 2444 4603 
L 3681 4603 
L 3681 4134 
z
M 5306 2875 
Q 6038 2188 6038 1400 
Q 6038 922 5795 634 
Q 5553 347 5166 384 
L 4756 422 
L 4628 959 
Q 5088 878 5166 878 
Q 5556 878 5556 1356 
Q 5556 2181 4794 2778 
Q 5006 3238 5416 4581 
L 4544 4581 
L 4544 -428 
L 4056 -428 
L 4056 5050 
L 5906 5050 
L 5906 4622 
Q 5484 3350 5306 2875 
z
M 3909 2450 
L 378 2450 
L 378 2919 
L 1588 2919 
Q 1363 3609 997 3922 
L 1422 4097 
Q 1822 3700 2047 3078 
L 1722 2919 
L 2222 2919 
Q 2700 3578 2797 4116 
L 3244 3922 
Q 3106 3459 2753 2919 
L 3909 2919 
L 3909 2450 
z
M 3316 -403 
L 2828 -403 
L 2828 38 
L 1394 38 
L 1394 -403 
L 909 -403 
L 909 1953 
L 3316 1953 
L 3316 -403 
z
M 2828 506 
L 2828 1484 
L 1394 1484 
L 1394 506 
L 2828 506 
z
" transform="scale(0.015625)"/>
        <path id="ArialUnicodeMS-5206" d="M 5991 3003 
L 5684 2553 
Q 4856 3041 4451 3534 
Q 4047 4028 3781 4831 
L 4319 4984 
Q 4375 4356 4829 3825 
Q 5284 3294 5991 3003 
z
M 2613 4697 
Q 2169 3484 800 2547 
L 416 2919 
Q 1731 3741 2188 4934 
L 2613 4697 
z
M 4872 2931 
Q 4844 1956 4730 1092 
Q 4616 228 4430 7 
Q 4244 -213 3847 -213 
Q 3469 -213 2894 -78 
L 2747 481 
Q 3503 269 3834 269 
Q 4013 269 4128 639 
Q 4244 1009 4341 2463 
L 3138 2463 
Q 2869 263 831 -441 
L 525 -31 
Q 2372 478 2631 2463 
L 1556 2463 
L 1556 2931 
L 4872 2931 
z
" transform="scale(0.015625)"/>
        <path id="ArialUnicodeMS-29" d="M 634 4659 
Q 1153 3997 1450 3212 
Q 1747 2428 1747 1656 
Q 1747 788 1431 41 
Q 1116 -706 634 -1344 
L 231 -1344 
Q 788 -431 977 255 
Q 1166 941 1166 1650 
Q 1166 3163 231 4659 
L 634 4659 
z
" transform="scale(0.015625)"/>
       </defs>
       <use xlink:href="#ArialUnicodeMS-32"/>
       <use xlink:href="#ArialUnicodeMS-30" transform="translate(55.615234 0)"/>
       <use xlink:href="#ArialUnicodeMS-32" transform="translate(111.230469 0)"/>
       <use xlink:href="#ArialUnicodeMS-36" transform="translate(166.845703 0)"/>
       <use xlink:href="#ArialUnicodeMS-51" transform="translate(222.460938 0)"/>
       <use xlink:href="#ArialUnicodeMS-32" transform="translate(300.244141 0)"/>
       <use xlink:href="#ArialUnicodeMS-28" transform="translate(355.859375 0)"/>
       <use xlink:href="#ArialUnicodeMS-90e8" transform="translate(389.160156 0)"/>
       <use xlink:href="#ArialUnicodeMS-5206" transform="translate(489.160156 0)"/>
       <use xlink:href="#ArialUnicodeMS-29" transform="translate(589.160156 0)"/>
      </g>
     </g>
    </g>
   </g>
   <g id="matplotlib.axis_2">
    <g id="ytick_1">
     <g id="line2d_11">
      <path d="M 44.676875 288.617156 
L 602.676875 288.617156 
" clip-path="url(#p67dff88b56)" style="fill: none; stroke-dasharray: 2.96,1.28; stroke-dashoffset: 0; stroke: #d6dadf; stroke-opacity: 0.7; stroke-width: 0.8"/>
     </g>
     <g id="line2d_12">
      <defs>
       <path id="m5ec720a3f7" d="M 0 0 
L -3.5 0 
" style="stroke: #000000; stroke-width: 0.8"/>
      </defs>
      <g>
       <use xlink:href="#m5ec720a3f7" x="44.676875" y="288.617156" style="stroke: #000000; stroke-width: 0.8"/>
      </g>
     </g>
     <g id="text_11">
      <!-- 0 -->
      <g transform="translate(32.672031 291.838172) scale(0.09 -0.09)">
       <use xlink:href="#ArialUnicodeMS-30"/>
      </g>
     </g>
    </g>
    <g id="ytick_2">
     <g id="line2d_13">
      <path d="M 44.676875 235.394756 
L 602.676875 235.394756 
" clip-path="url(#p67dff88b56)" style="fill: none; stroke-dasharray: 2.96,1.28; stroke-dashoffset: 0; stroke: #d6dadf; stroke-opacity: 0.7; stroke-width: 0.8"/>
     </g>
     <g id="line2d_14">
      <g>
       <use xlink:href="#m5ec720a3f7" x="44.676875" y="235.394756" style="stroke: #000000; stroke-width: 0.8"/>
      </g>
     </g>
     <g id="text_12">
      <!-- 20 -->
      <g transform="translate(27.667188 238.615772) scale(0.09 -0.09)">
       <use xlink:href="#ArialUnicodeMS-32"/>
       <use xlink:href="#ArialUnicodeMS-30" transform="translate(55.615234 0)"/>
      </g>
     </g>
    </g>
    <g id="ytick_3">
     <g id="line2d_15">
      <path d="M 44.676875 182.172356 
L 602.676875 182.172356 
" clip-path="url(#p67dff88b56)" style="fill: none; stroke-dasharray: 2.96,1.28; stroke-dashoffset: 0; stroke: #d6dadf; stroke-opacity: 0.7; stroke-width: 0.8"/>
     </g>
     <g id="line2d_16">
      <g>
       <use xlink:href="#m5ec720a3f7" x="44.676875" y="182.172356" style="stroke: #000000; stroke-width: 0.8"/>
      </g>
     </g>
     <g id="text_13">
      <!-- 40 -->
      <g transform="translate(27.667188 185.393372) scale(0.09 -0.09)">
       <use xlink:href="#ArialUnicodeMS-34"/>
       <use xlink:href="#ArialUnicodeMS-30" transform="translate(55.615234 0)"/>
      </g>
     </g>
    </g>
    <g id="ytick_4">
     <g id="line2d_17">
      <path d="M 44.676875 128.949956 
L 602.676875 128.949956 
" clip-path="url(#p67dff88b56)" style="fill: none; stroke-dasharray: 2.96,1.28; stroke-dashoffset: 0; stroke: #d6dadf; stroke-opacity: 0.7; stroke-width: 0.8"/>
     </g>
     <g id="line2d_18">
      <g>
       <use xlink:href="#m5ec720a3f7" x="44.676875" y="128.949956" style="stroke: #000000; stroke-width: 0.8"/>
      </g>
     </g>
     <g id="text_14">
      <!-- 60 -->
      <g transform="translate(27.667188 132.170972) scale(0.09 -0.09)">
       <use xlink:href="#ArialUnicodeMS-36"/>
       <use xlink:href="#ArialUnicodeMS-30" transform="translate(55.615234 0)"/>
      </g>
     </g>
    </g>
    <g id="ytick_5">
     <g id="line2d_19">
      <path d="M 44.676875 75.727556 
L 602.676875 75.727556 
" clip-path="url(#p67dff88b56)" style="fill: none; stroke-dasharray: 2.96,1.28; stroke-dashoffset: 0; stroke: #d6dadf; stroke-opacity: 0.7; stroke-width: 0.8"/>
     </g>
     <g id="line2d_20">
      <g>
       <use xlink:href="#m5ec720a3f7" x="44.676875" y="75.727556" style="stroke: #000000; stroke-width: 0.8"/>
      </g>
     </g>
     <g id="text_15">
      <!-- 80 -->
      <g transform="translate(27.667188 78.948572) scale(0.09 -0.09)">
       <defs>
        <path id="ArialUnicodeMS-38" d="M 2425 2478 
Q 3284 2203 3284 1306 
Q 3284 716 2862 319 
Q 2441 -78 1778 -78 
Q 1109 -78 689 322 
Q 269 722 269 1325 
Q 269 1759 505 2084 
Q 741 2409 1141 2478 
L 1141 2491 
Q 453 2703 453 3419 
Q 453 3925 815 4264 
Q 1178 4603 1766 4603 
Q 2363 4603 2730 4253 
Q 3097 3903 3097 3406 
Q 3097 2731 2425 2491 
L 2425 2478 
z
M 1778 2700 
Q 2094 2700 2308 2901 
Q 2522 3103 2522 3406 
Q 2522 3716 2305 3928 
Q 2088 4141 1772 4141 
Q 1450 4141 1240 3931 
Q 1031 3722 1031 3438 
Q 1031 3097 1247 2898 
Q 1463 2700 1778 2700 
z
M 1778 384 
Q 2175 384 2440 640 
Q 2706 897 2706 1306 
Q 2706 1716 2432 1978 
Q 2159 2241 1766 2241 
Q 1356 2241 1100 1970 
Q 844 1700 844 1319 
Q 844 922 1108 653 
Q 1372 384 1778 384 
z
" transform="scale(0.015625)"/>
       </defs>
       <use xlink:href="#ArialUnicodeMS-38"/>
       <use xlink:href="#ArialUnicodeMS-30" transform="translate(55.615234 0)"/>
      </g>
     </g>
    </g>
    <g id="ytick_6">
     <g id="line2d_21">
      <path d="M 44.676875 22.505156 
L 602.676875 22.505156 
" clip-path="url(#p67dff88b56)" style="fill: none; stroke-dasharray: 2.96,1.28; stroke-dashoffset: 0; stroke: #d6dadf; stroke-opacity: 0.7; stroke-width: 0.8"/>
     </g>
     <g id="line2d_22">
      <g>
       <use xlink:href="#m5ec720a3f7" x="44.676875" y="22.505156" style="stroke: #000000; stroke-width: 0.8"/>
      </g>
     </g>
     <g id="text_16">
      <!-- 100 -->
      <g transform="translate(22.662344 25.726172) scale(0.09 -0.09)">
       <use xlink:href="#ArialUnicodeMS-31"/>
       <use xlink:href="#ArialUnicodeMS-30" transform="translate(55.615234 0)"/>
       <use xlink:href="#ArialUnicodeMS-30" transform="translate(111.230469 0)"/>
      </g>
     </g>
    </g>
    <g id="text_17">
     <!-- 占比（%） -->
     <g transform="translate(16.352344 182.451859) rotate(-90) scale(0.11 -0.11)">
      <defs>
       <path id="ArialUnicodeMS-5360" d="M 5778 3731 
L 3072 3731 
L 3072 2431 
L 5319 2431 
L 5319 -422 
L 4813 -422 
L 4813 103 
L 1684 103 
L 1684 -447 
L 1178 -447 
L 1178 2431 
L 2566 2431 
L 2566 5325 
L 3072 5325 
L 3072 4219 
L 5778 4219 
L 5778 3731 
z
M 4813 588 
L 4813 1947 
L 1684 1947 
L 1684 588 
L 4813 588 
z
" transform="scale(0.015625)"/>
       <path id="ArialUnicodeMS-6bd4" d="M 6119 1100 
Q 5975 -197 5300 -197 
L 4103 -197 
Q 3828 -197 3658 -42 
Q 3488 113 3488 378 
L 3488 5191 
L 3994 5191 
L 3994 2906 
Q 4775 3172 5600 3916 
L 5984 3584 
Q 5013 2703 3994 2388 
L 3994 506 
Q 4022 269 4225 269 
L 5153 269 
Q 5375 269 5464 464 
Q 5553 659 5625 1325 
L 6119 1100 
z
M 3238 306 
L 653 -231 
L 378 250 
L 1131 391 
L 1131 5166 
L 1638 5166 
L 1638 3450 
L 3238 3450 
L 3238 2981 
L 1638 2981 
L 1638 500 
L 3238 819 
L 3238 306 
z
" transform="scale(0.015625)"/>
       <path id="ArialUnicodeMS-ff08" d="M 3964 -1344 
L 3561 -1344 
Q 3042 -681 2745 103 
Q 2448 888 2448 1656 
Q 2448 2528 2764 3275 
Q 3080 4022 3561 4659 
L 3964 4659 
Q 3408 3747 3219 3059 
Q 3030 2372 3030 1663 
Q 3030 153 3964 -1344 
z
" transform="scale(0.015625)"/>
       <path id="ArialUnicodeMS-25" d="M 4325 4659 
L 1838 -159 
L 1369 -159 
L 3872 4659 
L 4325 4659 
z
M 1428 4653 
Q 1856 4653 2137 4343 
Q 2419 4034 2419 3438 
Q 2419 2850 2131 2539 
Q 1844 2228 1434 2228 
Q 1009 2228 739 2540 
Q 469 2853 469 3475 
Q 469 3984 722 4318 
Q 975 4653 1428 4653 
z
M 1441 2619 
Q 1931 2619 1931 3463 
Q 1931 4269 1441 4269 
Q 953 4269 953 3419 
Q 953 2619 1441 2619 
z
M 4250 2253 
Q 4681 2253 4961 1943 
Q 5241 1634 5241 1038 
Q 5241 600 5087 328 
Q 4934 56 4709 -58 
Q 4484 -172 4256 -172 
Q 3831 -172 3561 140 
Q 3291 453 3291 1075 
Q 3291 1584 3544 1918 
Q 3797 2253 4250 2253 
z
M 4263 219 
Q 4756 219 4756 1063 
Q 4756 1869 4263 1869 
Q 3775 1869 3775 1019 
Q 3775 219 4263 219 
z
" transform="scale(0.015625)"/>
       <path id="ArialUnicodeMS-ff09" d="M 2850 4659 
Q 3369 3997 3666 3212 
Q 3963 2428 3963 1656 
Q 3963 788 3647 41 
Q 3332 -706 2850 -1344 
L 2447 -1344 
Q 3004 -431 3193 255 
Q 3382 941 3382 1650 
Q 3382 3163 2447 4659 
L 2850 4659 
z
" transform="scale(0.015625)"/>
      </defs>
      <use xlink:href="#ArialUnicodeMS-5360"/>
      <use xlink:href="#ArialUnicodeMS-6bd4" transform="translate(100 0)"/>
      <use xlink:href="#ArialUnicodeMS-ff08" transform="translate(200 0)"/>
      <use xlink:href="#ArialUnicodeMS-25" transform="translate(300 0)"/>
      <use xlink:href="#ArialUnicodeMS-ff09" transform="translate(388.916016 0)"/>
     </g>
    </g>
   </g>
   <g id="patch_63">
    <path d="M 44.676875 288.617156 
L 44.676875 22.505156 
" style="fill: none; stroke: #5a6570; stroke-width: 0.8; stroke-linejoin: miter; stroke-linecap: square"/>
   </g>
   <g id="patch_64">
    <path d="M 44.676875 288.617156 
L 602.676875 288.617156 
" style="fill: none; stroke: #5a6570; stroke-width: 0.8; stroke-linejoin: miter; stroke-linecap: square"/>
   </g>
   <g id="text_18">
    <!-- 季度 AI 工具构成 -->
    <g transform="translate(274.923828 16.505156) scale(0.13 -0.13)">
     <defs>
      <path id="ArialUnicodeMS-5b63" d="M 6138 2663 
L 5888 2216 
Q 4409 2578 3481 3553 
L 3481 2547 
L 2994 2547 
L 2994 3566 
Q 2125 2606 581 2150 
L 319 2572 
Q 1644 2956 2369 3659 
L 697 3659 
L 697 4128 
L 2994 4128 
L 2994 4513 
Q 2231 4447 1172 4469 
L 941 4966 
Q 1353 4947 1766 4947 
Q 4097 4947 5153 5363 
L 5453 4953 
Q 4556 4659 3481 4563 
L 3481 4128 
L 5766 4128 
L 5766 3659 
L 4044 3659 
Q 4478 3278 5092 2984 
Q 5706 2691 6138 2663 
z
M 5959 872 
L 3559 872 
L 3559 63 
Q 3513 -241 3348 -331 
Q 3184 -422 2688 -422 
Q 2297 -422 2291 -428 
L 2119 91 
L 2913 56 
Q 3072 47 3072 213 
L 3072 872 
L 513 872 
L 513 1338 
L 3072 1338 
L 3072 1638 
Q 3588 1825 3872 2003 
L 3872 2016 
L 1528 2016 
L 1528 2484 
L 4756 2484 
L 4756 2069 
Q 4200 1606 3559 1344 
L 3559 1338 
L 5959 1338 
L 5959 872 
z
" transform="scale(0.015625)"/>
      <path id="ArialUnicodeMS-5ea6" d="M 5913 4269 
L 1363 4269 
L 1363 2278 
Q 1363 1144 1180 528 
Q 997 -88 684 -434 
L 294 -147 
Q 669 378 773 940 
Q 878 1503 878 2350 
L 878 4738 
L 3200 4738 
L 3200 5288 
L 3706 5288 
L 3706 4738 
L 5913 4738 
L 5913 4269 
z
M 5778 3194 
L 4728 3194 
L 4728 2303 
L 2350 2303 
L 2350 3194 
L 1472 3194 
L 1472 3659 
L 2350 3659 
L 2350 4147 
L 2828 4147 
L 2828 3659 
L 4244 3659 
L 4244 4147 
L 4728 4147 
L 4728 3659 
L 5778 3659 
L 5778 3194 
z
M 4244 2747 
L 4244 3194 
L 2834 3194 
L 2834 2747 
L 4244 2747 
z
M 6081 72 
L 5819 -397 
Q 4484 -216 3531 263 
Q 2494 -234 1388 -397 
L 1088 44 
Q 2078 134 3034 550 
Q 2509 934 2113 1528 
L 1625 1528 
L 1625 1972 
L 5159 1972 
L 5159 1544 
Q 4819 1025 4044 538 
Q 4963 166 6081 72 
z
M 4544 1528 
L 2700 1528 
Q 3125 1038 3531 781 
Q 4194 1159 4544 1528 
z
" transform="scale(0.015625)"/>
      <path id="ArialUnicodeMS-20" transform="scale(0.015625)"/>
      <path id="ArialUnicodeMS-41" d="M 4275 0 
L 3591 0 
L 3053 1394 
L 1141 1394 
L 634 0 
L -6 0 
L 1753 4581 
L 2406 4581 
L 4275 0 
z
M 2869 1875 
Q 2306 3363 2234 3564 
Q 2163 3766 2075 4103 
L 2059 4103 
Q 1972 3641 1825 3247 
L 1313 1875 
L 2869 1875 
z
" transform="scale(0.015625)"/>
      <path id="ArialUnicodeMS-49" d="M 1197 0 
L 588 0 
L 588 4581 
L 1197 4581 
L 1197 0 
z
" transform="scale(0.015625)"/>
      <path id="ArialUnicodeMS-5de5" d="M 5819 347 
L 609 347 
L 609 813 
L 2938 813 
L 2938 3988 
L 947 3988 
L 947 4453 
L 5472 4453 
L 5472 3988 
L 3481 3988 
L 3481 813 
L 5819 813 
L 5819 347 
z
" transform="scale(0.015625)"/>
      <path id="ArialUnicodeMS-5177" d="M 4922 1888 
L 1497 1888 
L 1497 5050 
L 4922 5050 
L 4922 1888 
z
M 4416 4153 
L 4416 4581 
L 2003 4581 
L 2003 4153 
L 4416 4153 
z
M 4416 3263 
L 4416 3688 
L 2003 3688 
L 2003 3263 
L 4416 3263 
z
M 4416 2356 
L 4416 2797 
L 2003 2797 
L 2003 2356 
L 4416 2356 
z
M 5947 984 
L 525 984 
L 525 1447 
L 5947 1447 
L 5947 984 
z
M 2759 575 
Q 1841 -134 709 -397 
L 403 31 
Q 1531 250 2438 928 
L 2759 575 
z
M 6028 6 
L 5722 -409 
Q 4794 316 3669 531 
L 3975 916 
Q 5069 675 6028 6 
z
" transform="scale(0.015625)"/>
      <path id="ArialUnicodeMS-6784" d="M 5881 4581 
L 5869 3028 
Q 5869 2181 5725 1093 
Q 5581 6 5389 -191 
Q 5197 -388 4941 -388 
Q 4788 -388 4384 -263 
L 4225 306 
Q 4341 275 4573 183 
Q 4806 91 4928 91 
Q 5066 91 5106 366 
L 5259 1369 
Q 5322 1784 5344 2297 
L 5409 4122 
L 3322 4122 
Q 3125 3428 2681 2803 
L 2259 3084 
Q 2956 4022 3059 5388 
L 3519 5234 
Q 3513 5059 3425 4581 
L 5881 4581 
z
M 2778 2088 
L 2369 1838 
Q 2175 2353 1856 2613 
L 1856 -378 
L 1375 -378 
L 1375 2203 
L 1363 2203 
Q 1194 1634 684 1038 
L 288 1338 
Q 1078 2188 1313 3628 
L 531 3628 
L 531 4097 
L 1369 4097 
L 1369 5338 
L 1856 5338 
L 1856 4097 
L 2584 4097 
L 2584 3634 
L 1856 3634 
L 1856 3022 
L 2022 3116 
Q 2672 2516 2778 2088 
z
M 5178 878 
L 4709 634 
Q 4669 1056 4628 1141 
Q 3647 997 3066 781 
L 2638 1241 
Q 3528 2541 3694 3719 
L 4172 3488 
Q 3866 2281 3475 1691 
L 3278 1388 
L 4475 1594 
Q 4456 1650 4345 1806 
Q 4234 1963 4184 2041 
L 4581 2259 
Q 5094 1675 5178 878 
z
" transform="scale(0.015625)"/>
      <path id="ArialUnicodeMS-6210" d="M 6047 806 
Q 6053 666 5929 261 
Q 5806 -144 5709 -276 
Q 5613 -409 5428 -409 
Q 5159 -409 4751 47 
Q 4344 503 4153 947 
Q 3516 272 2859 -128 
L 2419 213 
Q 3338 709 3922 1409 
Q 3591 2216 3438 3769 
L 1516 3769 
L 1516 2900 
L 3225 2900 
Q 3181 1622 3020 1140 
Q 2859 659 2338 659 
Q 2150 659 1819 709 
L 1606 1241 
Q 2009 1119 2363 1119 
Q 2584 1119 2648 1505 
Q 2713 1891 2725 2431 
L 1509 2431 
Q 1481 1084 1270 496 
Q 1059 -91 728 -459 
L 319 -153 
Q 1000 541 1013 2009 
L 1031 4238 
L 3391 4238 
Q 3359 4997 3359 5319 
L 3841 5319 
Q 3850 4619 3878 4238 
L 5747 4238 
L 5747 3769 
L 3909 3769 
Q 4025 2497 4288 1838 
Q 4734 2413 5106 3431 
L 5550 3284 
Q 5113 2075 4500 1325 
Q 4738 869 5008 498 
Q 5278 128 5409 128 
Q 5450 128 5509 462 
Q 5569 797 5575 1081 
L 6047 806 
z
M 5650 4659 
L 5306 4359 
Q 4688 4859 4063 4928 
L 4447 5275 
Q 5144 5119 5650 4659 
z
" transform="scale(0.015625)"/>
     </defs>
     <use xlink:href="#ArialUnicodeMS-5b63"/>
     <use xlink:href="#ArialUnicodeMS-5ea6" transform="translate(100 0)"/>
     <use xlink:href="#ArialUnicodeMS-20" transform="translate(200 0)"/>
     <use xlink:href="#ArialUnicodeMS-41" transform="translate(227.783203 0)"/>
     <use xlink:href="#ArialUnicodeMS-49" transform="translate(294.482422 0)"/>
     <use xlink:href="#ArialUnicodeMS-20" transform="translate(322.265625 0)"/>
     <use xlink:href="#ArialUnicodeMS-5de5" transform="translate(350.048828 0)"/>
     <use xlink:href="#ArialUnicodeMS-5177" transform="translate(450.048828 0)"/>
     <use xlink:href="#ArialUnicodeMS-6784" transform="translate(550.048828 0)"/>
     <use xlink:href="#ArialUnicodeMS-6210" transform="translate(650.048828 0)"/>
    </g>
   </g>
   <g id="legend_1">
    <g id="patch_65">
     <path d="M 52.776875 37.156875 
L 70.776875 37.156875 
L 70.776875 30.856875 
L 52.776875 30.856875 
z
" style="fill: #355070"/>
    </g>
    <g id="text_19">
     <!-- ChatGPT -->
     <g transform="translate(77.976875 37.156875) scale(0.09 -0.09)">
      <defs>
       <path id="ArialUnicodeMS-43" d="M 4372 1453 
Q 4172 681 3673 301 
Q 3175 -78 2478 -78 
Q 1353 -78 839 626 
Q 325 1331 325 2322 
Q 325 3419 929 4039 
Q 1534 4659 2484 4659 
Q 3153 4659 3628 4318 
Q 4103 3978 4294 3322 
L 3700 3181 
Q 3550 3659 3244 3900 
Q 2938 4141 2478 4141 
Q 1728 4141 1340 3648 
Q 953 3156 953 2328 
Q 953 1372 1361 906 
Q 1769 441 2425 441 
Q 2963 441 3298 731 
Q 3634 1022 3769 1606 
L 4372 1453 
z
" transform="scale(0.015625)"/>
       <path id="ArialUnicodeMS-68" d="M 3138 0 
L 2572 0 
L 2572 2094 
Q 2572 2500 2397 2703 
Q 2222 2906 1875 2906 
Q 1531 2906 1261 2667 
Q 991 2428 991 1813 
L 991 0 
L 428 0 
L 428 4581 
L 991 4581 
L 991 2938 
Q 1391 3391 1991 3391 
Q 2313 3391 2606 3259 
Q 2900 3128 3019 2856 
Q 3138 2584 3138 2100 
L 3138 0 
z
" transform="scale(0.015625)"/>
       <path id="ArialUnicodeMS-61" d="M 3303 0 
L 2713 0 
Q 2631 156 2597 409 
Q 2031 -78 1375 -78 
Q 850 -78 547 184 
Q 244 447 244 878 
Q 244 1291 536 1558 
Q 828 1825 1550 1913 
L 2075 1991 
Q 2369 2038 2559 2106 
Q 2559 2359 2543 2464 
Q 2528 2569 2451 2681 
Q 2375 2794 2206 2862 
Q 2038 2931 1753 2931 
Q 1391 2931 1180 2797 
Q 969 2663 891 2297 
L 341 2369 
Q 431 2878 806 3134 
Q 1181 3391 1838 3391 
Q 2434 3391 2714 3214 
Q 2994 3038 3058 2788 
Q 3122 2538 3122 2144 
L 3122 1388 
Q 3122 697 3148 461 
Q 3175 225 3303 0 
z
M 2559 1459 
L 2559 1663 
Q 2119 1516 1481 1430 
Q 844 1344 844 891 
Q 844 663 1016 514 
Q 1188 366 1509 366 
Q 1925 366 2242 614 
Q 2559 863 2559 1459 
z
" transform="scale(0.015625)"/>
       <path id="ArialUnicodeMS-74" d="M 1722 6 
Q 1472 -44 1300 -44 
Q 931 -44 762 86 
Q 594 216 556 416 
Q 519 616 519 972 
L 519 2881 
L 109 2881 
L 109 3316 
L 519 3316 
L 519 4141 
L 1081 4481 
L 1081 3316 
L 1644 3316 
L 1644 2881 
L 1081 2881 
L 1081 941 
Q 1081 691 1132 586 
Q 1184 481 1394 481 
Q 1516 481 1644 506 
L 1722 6 
z
" transform="scale(0.015625)"/>
       <path id="ArialUnicodeMS-47" d="M 4569 641 
Q 3703 -78 2675 -78 
Q 1622 -78 976 564 
Q 331 1206 331 2272 
Q 331 2922 595 3483 
Q 859 4044 1373 4351 
Q 1888 4659 2631 4659 
Q 3403 4659 3870 4320 
Q 4338 3981 4500 3303 
L 3956 3150 
Q 3828 3644 3497 3892 
Q 3166 4141 2631 4141 
Q 1803 4141 1381 3634 
Q 959 3128 959 2309 
Q 959 1697 1164 1290 
Q 1369 884 1770 676 
Q 2172 469 2644 469 
Q 3363 469 3981 941 
L 3981 1791 
L 2631 1791 
L 2631 2338 
L 4569 2338 
L 4569 641 
z
" transform="scale(0.015625)"/>
       <path id="ArialUnicodeMS-50" d="M 494 4581 
L 2222 4581 
Q 2631 4581 2926 4540 
Q 3222 4500 3475 4329 
Q 3728 4159 3858 3867 
Q 3988 3575 3988 3256 
Q 3988 2622 3580 2239 
Q 3172 1856 2272 1856 
L 1100 1856 
L 1100 0 
L 494 0 
L 494 4581 
z
M 1100 2400 
L 2278 2400 
Q 3359 2400 3359 3238 
Q 3359 3513 3218 3723 
Q 3078 3934 2873 3986 
Q 2669 4038 2266 4038 
L 1100 4038 
L 1100 2400 
z
" transform="scale(0.015625)"/>
       <path id="ArialUnicodeMS-54" d="M 3769 4038 
L 2253 4038 
L 2253 0 
L 1644 0 
L 1644 4038 
L 141 4038 
L 141 4581 
L 3769 4581 
L 3769 4038 
z
" transform="scale(0.015625)"/>
      </defs>
      <use xlink:href="#ArialUnicodeMS-43"/>
      <use xlink:href="#ArialUnicodeMS-68" transform="translate(72.216797 0)"/>
      <use xlink:href="#ArialUnicodeMS-61" transform="translate(127.832031 0)"/>
      <use xlink:href="#ArialUnicodeMS-74" transform="translate(183.447266 0)"/>
      <use xlink:href="#ArialUnicodeMS-47" transform="translate(211.230469 0)"/>
      <use xlink:href="#ArialUnicodeMS-50" transform="translate(289.013672 0)"/>
      <use xlink:href="#ArialUnicodeMS-54" transform="translate(355.712891 0)"/>
     </g>
    </g>
    <g id="patch_66">
     <path d="M 52.776875 49.891875 
L 70.776875 49.891875 
L 70.776875 43.591875 
L 52.776875 43.591875 
z
" style="fill: #6d597a"/>
    </g>
    <g id="text_20">
     <!-- Claude -->
     <g transform="translate(77.976875 49.891875) scale(0.09 -0.09)">
      <defs>
       <path id="ArialUnicodeMS-6c" d="M 991 0 
L 428 0 
L 428 4581 
L 991 4581 
L 991 0 
z
" transform="scale(0.015625)"/>
       <path id="ArialUnicodeMS-75" d="M 3116 0 
L 2613 0 
L 2613 488 
L 2597 488 
Q 2216 -78 1556 -78 
Q 1209 -78 914 83 
Q 619 244 520 526 
Q 422 809 422 1259 
L 422 3316 
L 984 3316 
L 984 1478 
Q 984 1038 1026 847 
Q 1069 656 1247 532 
Q 1425 409 1672 409 
Q 1991 409 2272 629 
Q 2553 850 2553 1544 
L 2553 3316 
L 3116 3316 
L 3116 0 
z
" transform="scale(0.015625)"/>
       <path id="ArialUnicodeMS-64" d="M 3109 0 
L 2584 0 
L 2584 422 
L 2572 422 
Q 2269 -78 1656 -78 
Q 1047 -78 639 405 
Q 231 888 231 1656 
Q 231 2459 615 2925 
Q 1000 3391 1631 3391 
Q 2225 3391 2534 2938 
L 2547 2938 
L 2547 4581 
L 3109 4581 
L 3109 0 
z
M 1716 384 
Q 2084 384 2340 687 
Q 2597 991 2597 1606 
Q 2597 2213 2362 2572 
Q 2128 2931 1691 2931 
Q 1253 2931 1029 2579 
Q 806 2228 806 1656 
Q 806 1244 926 958 
Q 1047 672 1262 528 
Q 1478 384 1716 384 
z
" transform="scale(0.015625)"/>
       <path id="ArialUnicodeMS-65" d="M 3309 1516 
L 825 1516 
Q 859 966 1139 675 
Q 1419 384 1838 384 
Q 2159 384 2378 554 
Q 2597 725 2713 1069 
L 3291 997 
Q 3150 478 2775 200 
Q 2400 -78 1838 -78 
Q 1091 -78 670 380 
Q 250 838 250 1631 
Q 250 2416 658 2903 
Q 1066 3391 1806 3391 
Q 2169 3391 2505 3231 
Q 2841 3072 3075 2689 
Q 3309 2306 3309 1516 
z
M 2731 1978 
Q 2697 2484 2417 2707 
Q 2138 2931 1806 2931 
Q 1409 2931 1153 2665 
Q 897 2400 856 1978 
L 2731 1978 
z
" transform="scale(0.015625)"/>
      </defs>
      <use xlink:href="#ArialUnicodeMS-43"/>
      <use xlink:href="#ArialUnicodeMS-6c" transform="translate(72.216797 0)"/>
      <use xlink:href="#ArialUnicodeMS-61" transform="translate(94.433594 0)"/>
      <use xlink:href="#ArialUnicodeMS-75" transform="translate(150.048828 0)"/>
      <use xlink:href="#ArialUnicodeMS-64" transform="translate(205.664062 0)"/>
      <use xlink:href="#ArialUnicodeMS-65" transform="translate(261.279297 0)"/>
     </g>
    </g>
    <g id="patch_67">
     <path d="M 133.487188 37.156875 
L 151.487188 37.156875 
L 151.487188 30.856875 
L 133.487188 30.856875 
z
" style="fill: #b56576"/>
    </g>
    <g id="text_21">
     <!-- Gemini -->
     <g transform="translate(158.687187 37.156875) scale(0.09 -0.09)">
      <defs>
       <path id="ArialUnicodeMS-6d" d="M 4922 0 
L 4359 0 
L 4359 2094 
Q 4359 2325 4328 2489 
Q 4297 2653 4167 2779 
Q 4038 2906 3763 2906 
Q 3431 2906 3190 2675 
Q 2950 2444 2950 1925 
L 2950 0 
L 2388 0 
L 2388 2156 
Q 2388 2588 2236 2747 
Q 2084 2906 1806 2906 
Q 1444 2906 1211 2656 
Q 978 2406 978 1722 
L 978 0 
L 416 0 
L 416 3316 
L 922 3316 
L 922 2853 
L 934 2853 
Q 1272 3391 1925 3391 
Q 2291 3391 2527 3245 
Q 2763 3100 2869 2809 
Q 3238 3391 3891 3391 
Q 4406 3391 4664 3112 
Q 4922 2834 4922 2278 
L 4922 0 
z
" transform="scale(0.015625)"/>
       <path id="ArialUnicodeMS-69" d="M 991 0 
L 428 0 
L 428 3316 
L 991 3316 
L 991 0 
z
M 991 3944 
L 428 3944 
L 428 4581 
L 991 4581 
L 991 3944 
z
" transform="scale(0.015625)"/>
       <path id="ArialUnicodeMS-6e" d="M 3138 0 
L 2572 0 
L 2572 2016 
Q 2572 2525 2389 2715 
Q 2206 2906 1881 2906 
Q 1631 2906 1407 2784 
Q 1184 2663 1090 2441 
Q 997 2219 997 1813 
L 997 0 
L 434 0 
L 434 3316 
L 941 3316 
L 941 2847 
L 953 2847 
Q 1131 3119 1392 3255 
Q 1653 3391 1997 3391 
Q 2259 3391 2515 3297 
Q 2772 3203 2917 3015 
Q 3063 2828 3100 2615 
Q 3138 2403 3138 2041 
L 3138 0 
z
" transform="scale(0.015625)"/>
      </defs>
      <use xlink:href="#ArialUnicodeMS-47"/>
      <use xlink:href="#ArialUnicodeMS-65" transform="translate(77.783203 0)"/>
      <use xlink:href="#ArialUnicodeMS-6d" transform="translate(133.398438 0)"/>
      <use xlink:href="#ArialUnicodeMS-69" transform="translate(216.699219 0)"/>
      <use xlink:href="#ArialUnicodeMS-6e" transform="translate(238.916016 0)"/>
      <use xlink:href="#ArialUnicodeMS-69" transform="translate(294.53125 0)"/>
     </g>
    </g>
    <g id="patch_68">
     <path d="M 133.487188 50.001562 
L 151.487188 50.001562 
L 151.487188 43.701562 
L 133.487188 43.701562 
z
" style="fill: #e56b6f"/>
    </g>
    <g id="text_22">
     <!-- DeepSeek -->
     <g transform="translate(158.687187 50.001562) scale(0.09 -0.09)">
      <defs>
       <path id="ArialUnicodeMS-44" d="M 513 4581 
L 2094 4581 
Q 2509 4581 2809 4539 
Q 3109 4497 3382 4333 
Q 3656 4169 3861 3881 
Q 4066 3594 4183 3220 
Q 4300 2847 4300 2316 
Q 4300 1303 3819 651 
Q 3338 0 2163 0 
L 513 0 
L 513 4581 
z
M 1119 544 
L 2100 544 
Q 2400 544 2636 581 
Q 2872 619 3114 784 
Q 3356 950 3515 1328 
Q 3675 1706 3675 2328 
Q 3675 2672 3614 2970 
Q 3553 3269 3389 3514 
Q 3225 3759 3012 3873 
Q 2800 3988 2598 4013 
Q 2397 4038 2081 4038 
L 1119 4038 
L 1119 544 
z
" transform="scale(0.015625)"/>
       <path id="ArialUnicodeMS-70" d="M 959 2888 
Q 1275 3391 1906 3391 
Q 2559 3391 2937 2917 
Q 3316 2444 3316 1684 
Q 3316 875 2897 398 
Q 2478 -78 1869 -78 
Q 1334 -78 1013 347 
L 997 347 
L 997 -1275 
L 434 -1275 
L 434 3316 
L 947 3316 
L 947 2888 
L 959 2888 
z
M 1831 384 
Q 2225 384 2483 711 
Q 2741 1038 2741 1684 
Q 2741 2294 2492 2622 
Q 2244 2950 1856 2950 
Q 1456 2950 1198 2584 
Q 941 2219 941 1638 
Q 941 1022 1187 703 
Q 1434 384 1831 384 
z
" transform="scale(0.015625)"/>
       <path id="ArialUnicodeMS-53" d="M 3213 3238 
Q 3175 3675 2897 3895 
Q 2619 4116 2100 4116 
Q 1631 4116 1337 3941 
Q 1044 3766 1044 3431 
Q 1044 3134 1270 2989 
Q 1497 2844 2138 2700 
Q 2706 2575 3065 2444 
Q 3425 2313 3681 2036 
Q 3938 1759 3938 1294 
Q 3938 703 3467 312 
Q 2997 -78 2241 -78 
Q 1275 -78 795 353 
Q 316 784 288 1472 
L 863 1522 
Q 903 972 1287 720 
Q 1672 469 2216 469 
Q 2725 469 3039 678 
Q 3353 888 3353 1247 
Q 3353 1622 3025 1794 
Q 2697 1966 1923 2133 
Q 1150 2300 809 2603 
Q 469 2906 469 3391 
Q 469 3941 900 4300 
Q 1331 4659 2075 4659 
Q 2838 4659 3302 4301 
Q 3766 3944 3794 3284 
L 3213 3238 
z
" transform="scale(0.015625)"/>
       <path id="ArialUnicodeMS-6b" d="M 3175 0 
L 2484 0 
L 1381 1697 
L 984 1319 
L 984 0 
L 422 0 
L 422 4581 
L 984 4581 
L 984 1972 
L 2316 3316 
L 3047 3316 
L 1778 2088 
L 3175 0 
z
" transform="scale(0.015625)"/>
      </defs>
      <use xlink:href="#ArialUnicodeMS-44"/>
      <use xlink:href="#ArialUnicodeMS-65" transform="translate(72.216797 0)"/>
      <use xlink:href="#ArialUnicodeMS-65" transform="translate(127.832031 0)"/>
      <use xlink:href="#ArialUnicodeMS-70" transform="translate(183.447266 0)"/>
      <use xlink:href="#ArialUnicodeMS-53" transform="translate(239.0625 0)"/>
      <use xlink:href="#ArialUnicodeMS-65" transform="translate(305.761719 0)"/>
      <use xlink:href="#ArialUnicodeMS-65" transform="translate(361.376953 0)"/>
      <use xlink:href="#ArialUnicodeMS-6b" transform="translate(416.992188 0)"/>
     </g>
    </g>
    <g id="patch_69">
     <path d="M 218.714375 37.156875 
L 236.714375 37.156875 
L 236.714375 30.856875 
L 218.714375 30.856875 
z
" style="fill: #eaac8b"/>
    </g>
    <g id="text_23">
     <!-- Copilot -->
     <g transform="translate(243.914375 37.156875) scale(0.09 -0.09)">
      <defs>
       <path id="ArialUnicodeMS-6f" d="M 1778 3391 
Q 2450 3391 2892 2953 
Q 3334 2516 3334 1709 
Q 3334 731 2856 326 
Q 2378 -78 1778 -78 
Q 1150 -78 687 337 
Q 225 753 225 1656 
Q 225 2531 672 2961 
Q 1119 3391 1778 3391 
z
M 1778 384 
Q 2259 384 2509 740 
Q 2759 1097 2759 1678 
Q 2759 2300 2476 2615 
Q 2194 2931 1778 2931 
Q 1350 2931 1075 2611 
Q 800 2291 800 1656 
Q 800 1025 1079 704 
Q 1359 384 1778 384 
z
" transform="scale(0.015625)"/>
      </defs>
      <use xlink:href="#ArialUnicodeMS-43"/>
      <use xlink:href="#ArialUnicodeMS-6f" transform="translate(72.216797 0)"/>
      <use xlink:href="#ArialUnicodeMS-70" transform="translate(127.832031 0)"/>
      <use xlink:href="#ArialUnicodeMS-69" transform="translate(183.447266 0)"/>
      <use xlink:href="#ArialUnicodeMS-6c" transform="translate(205.664062 0)"/>
      <use xlink:href="#ArialUnicodeMS-6f" transform="translate(227.880859 0)"/>
      <use xlink:href="#ArialUnicodeMS-74" transform="translate(283.496094 0)"/>
     </g>
    </g>
    <g id="patch_70">
     <path d="M 218.714375 49.891875 
L 236.714375 49.891875 
L 236.714375 43.591875 
L 218.714375 43.591875 
z
" style="fill: #a7b0be"/>
    </g>
    <g id="text_24">
     <!-- 其他 -->
     <g transform="translate(243.914375 49.891875) scale(0.09 -0.09)">
      <defs>
       <path id="ArialUnicodeMS-5176" d="M 5869 1038 
L 531 1038 
L 531 1503 
L 1606 1503 
L 1606 4084 
L 716 4084 
L 716 4550 
L 1606 4550 
L 1606 5325 
L 2113 5325 
L 2113 4550 
L 4256 4550 
L 4256 5325 
L 4769 5325 
L 4769 4550 
L 5678 4550 
L 5678 4084 
L 4769 4084 
L 4769 1503 
L 5869 1503 
L 5869 1038 
z
M 4256 3566 
L 4256 4084 
L 2113 4084 
L 2113 3566 
L 4256 3566 
z
M 4256 2559 
L 4256 3097 
L 2113 3097 
L 2113 2559 
L 4256 2559 
z
M 4256 1503 
L 4256 2094 
L 2113 2094 
L 2113 1503 
L 4256 1503 
z
M 2847 647 
Q 2084 -22 697 -416 
L 403 25 
Q 1819 372 2491 984 
L 2847 647 
z
M 5991 6 
L 5650 -378 
Q 4772 331 3566 550 
L 3853 953 
Q 4931 753 5991 6 
z
" transform="scale(0.015625)"/>
       <path id="ArialUnicodeMS-4ed6" d="M 2291 5197 
Q 2172 4800 1916 4166 
L 1656 3541 
L 1656 -434 
L 1172 -434 
L 1172 2675 
Q 963 2331 672 2009 
L 206 2272 
Q 1159 3228 1813 5403 
L 2291 5197 
z
M 6119 991 
Q 5934 169 5715 1 
Q 5497 -166 5275 -166 
L 3188 -166 
Q 2822 -166 2653 29 
Q 2484 225 2484 397 
L 2484 2631 
L 1831 2425 
L 1684 2894 
Q 2222 3047 2484 3138 
L 2484 4397 
L 2988 4397 
L 2988 3303 
L 3750 3525 
L 3750 5381 
L 4256 5381 
L 4256 3688 
L 5778 4147 
Q 5766 3391 5630 2414 
Q 5494 1438 5306 1311 
Q 5119 1184 4838 1184 
Q 4638 1184 4434 1222 
L 4300 1741 
Q 4678 1672 4831 1672 
Q 4997 1672 5066 2163 
L 5234 3444 
L 4256 3116 
L 4256 850 
L 3750 850 
L 3750 3003 
L 2988 2766 
L 2988 622 
Q 2988 459 3072 389 
Q 3156 319 3225 319 
L 5197 319 
Q 5375 319 5444 458 
Q 5513 597 5625 1209 
L 6119 991 
z
" transform="scale(0.015625)"/>
      </defs>
      <use xlink:href="#ArialUnicodeMS-5176"/>
      <use xlink:href="#ArialUnicodeMS-4ed6" transform="translate(100 0)"/>
     </g>
    </g>
   </g>
  </g>
 </g>
 <defs>
  <clipPath id="p67dff88b56">
   <rect x="44.676875" y="22.505156" width="558" height="266.112"/>
  </clipPath>
 </defs>
</svg>
