<?xml version="1.0" encoding="utf-8" standalone="no"?>
<!DOCTYPE svg PUBLIC "-//W3C//DTD SVG 1.1//EN"
  "http://www.w3.org/Graphics/SVG/1.1/DTD/svg11.dtd">
<svg xmlns:xlink="http://www.w3.org/1999/xlink" width="608.479531pt" height="334.975688pt" viewBox="0 0 608.479531 334.975688" xmlns="http://www.w3.org/2000/svg" version="1.1">
 <metadata>
  <rdf:RDF xmlns:dc="http://purl.org/dc/elements/1.1/" xmlns:cc="http://creativecommons.org/ns#" xmlns:rdf="http://www.w3.org/1999/02/22-rdf-syntax-ns#">
   <cc:Work>
    <dc:type rdf:resource="http://purl.org/dc/dcmitype/StillImage"/>
    <dc:date>2026-04-27T18:23:24.922349</dc:date>
    <dc:format>image/svg+xml</dc:format>
    <dc:creator>
     <cc:Agent>
      <dc:title>Matplotlib v3.10.9, https://matplotlib.org/</dc:title>
     </cc:Agent>
    </dc:creator>
   </cc:Work>
  </rdf:RDF>
 </metadata>
 <defs>
  <style type="text/css">*{stroke-linejoin: round; stroke-linecap: butt}</style>
 </defs>
 <g id="figure_1">
  <g id="patch_1">
   <path d="M 0 334.975688 
L 608.479531 334.975688 
L 608.479531 0 
L 0 0 
z
" style="fill: #ffffff"/>
  </g>
  <g id="axes_1">
   <g id="patch_2">
    <path d="M 43.279531 288.617156 
L 601.279531 288.617156 
L 601.279531 22.505156 
L 43.279531 22.505156 
z
" style="fill: #ffffff"/>
   </g>
   <g id="matplotlib.axis_1">
    <g id="xtick_1">
     <g id="line2d_1">
      <defs>
       <path id="m56df467bd9" d="M 0 0 
L 0 3.5 
" style="stroke: #000000; stroke-width: 0.8"/>
      </defs>
      <g>
       <use xlink:href="#m56df467bd9" x="68.643168" y="288.617156" style="stroke: #000000; stroke-width: 0.8"/>
      </g>
     </g>
     <g id="text_1">
      <!-- 2024Q1 -->
      <g transform="translate(38.861344 314.989771) rotate(-25) scale(0.09 -0.09)">
       <defs>
        <path id="ArialUnicodeMS-32" d="M 3231 0 
L 197 0 
Q 197 388 467 784 
Q 738 1181 1478 1778 
Q 1931 2141 2287 2539 
Q 2644 2938 2644 3341 
Q 2644 3688 2398 3914 
Q 2153 4141 1778 4141 
Q 1400 4141 1144 3908 
Q 888 3675 884 3213 
L 306 3278 
Q 359 3922 764 4262 
Q 1169 4603 1791 4603 
Q 2466 4603 2842 4229 
Q 3219 3856 3219 3328 
Q 3219 2888 2901 2436 
Q 2584 1984 1638 1228 
Q 1141 831 978 544 
L 3231 544 
L 3231 0 
z
" transform="scale(0.015625)"/>
        <path id="ArialUnicodeMS-30" d="M 1778 4603 
Q 3272 4603 3272 2259 
Q 3272 1075 2886 498 
Q 2500 -78 1778 -78 
Q 288 -78 288 2259 
Q 288 3444 673 4023 
Q 1059 4603 1778 4603 
z
M 1778 384 
Q 2231 384 2462 823 
Q 2694 1263 2694 2259 
Q 2694 2953 2592 3351 
Q 2491 3750 2286 3945 
Q 2081 4141 1772 4141 
Q 1319 4141 1091 3694 
Q 863 3247 863 2259 
Q 863 1575 966 1175 
Q 1069 775 1272 579 
Q 1475 384 1778 384 
z
" transform="scale(0.015625)"/>
        <path id="ArialUnicodeMS-34" d="M 3263 1094 
L 2644 1094 
L 2644 0 
L 2081 0 
L 2081 1094 
L 97 1094 
L 97 1613 
L 2181 4581 
L 2644 4581 
L 2644 1613 
L 3263 1613 
L 3263 1094 
z
M 2081 1613 
L 2081 3681 
L 2069 3681 
L 647 1613 
L 2081 1613 
z
" transform="scale(0.015625)"/>
        <path id="ArialUnicodeMS-51" d="M 4769 63 
L 4588 -359 
Q 4056 -156 3609 206 
Q 3091 -78 2484 -78 
Q 1525 -78 912 586 
Q 300 1250 300 2291 
Q 300 3322 894 3990 
Q 1488 4659 2497 4659 
Q 3456 4659 4070 4006 
Q 4684 3353 4684 2297 
Q 4684 1166 3994 494 
Q 4381 216 4769 63 
z
M 3519 825 
Q 4056 1322 4056 2291 
Q 4056 3156 3623 3648 
Q 3191 4141 2497 4141 
Q 1803 4141 1365 3669 
Q 928 3197 928 2291 
Q 928 1403 1365 922 
Q 1803 441 2497 441 
Q 2838 441 3109 563 
Q 2806 756 2509 825 
L 2656 1269 
Q 3216 1109 3519 825 
z
" transform="scale(0.015625)"/>
        <path id="ArialUnicodeMS-31" d="M 2400 0 
L 1838 0 
L 1838 3584 
Q 1416 3184 709 2906 
L 709 3450 
Q 1681 3916 2034 4603 
L 2400 4603 
L 2400 0 
z
" transform="scale(0.015625)"/>
       </defs>
       <use xlink:href="#ArialUnicodeMS-32"/>
       <use xlink:href="#ArialUnicodeMS-30" transform="translate(55.615234 0)"/>
       <use xlink:href="#ArialUnicodeMS-32" transform="translate(111.230469 0)"/>
       <use xlink:href="#ArialUnicodeMS-34" transform="translate(166.845703 0)"/>
       <use xlink:href="#ArialUnicodeMS-51" transform="translate(222.460938 0)"/>
       <use xlink:href="#ArialUnicodeMS-31" transform="translate(300.244141 0)"/>
      </g>
     </g>
    </g>
    <g id="xtick_2">
     <g id="line2d_2">
      <g>
       <use xlink:href="#m56df467bd9" x="125.006804" y="288.617156" style="stroke: #000000; stroke-width: 0.8"/>
      </g>
     </g>
     <g id="text_2">
      <!-- 2024Q2 -->
      <g transform="translate(95.224981 314.989771) rotate(-25) scale(0.09 -0.09)">
       <use xlink:href="#ArialUnicodeMS-32"/>
       <use xlink:href="#ArialUnicodeMS-30" transform="translate(55.615234 0)"/>
       <use xlink:href="#ArialUnicodeMS-32" transform="translate(111.230469 0)"/>
       <use xlink:href="#ArialUnicodeMS-34" transform="translate(166.845703 0)"/>
       <use xlink:href="#ArialUnicodeMS-51" transform="translate(222.460938 0)"/>
       <use xlink:href="#ArialUnicodeMS-32" transform="translate(300.244141 0)"/>
      </g>
     </g>
    </g>
    <g id="xtick_3">
     <g id="line2d_3">
      <g>
       <use xlink:href="#m56df467bd9" x="181.37044" y="288.617156" style="stroke: #000000; stroke-width: 0.8"/>
      </g>
     </g>
     <g id="text_3">
      <!-- 2024Q3 -->
      <g transform="translate(151.588617 314.989771) rotate(-25) scale(0.09 -0.09)">
       <defs>
        <path id="ArialUnicodeMS-33" d="M 2425 2478 
Q 2850 2397 3067 2067 
Q 3284 1738 3284 1350 
Q 3284 725 2829 323 
Q 2375 -78 1741 -78 
Q 1134 -78 740 275 
Q 347 628 281 1209 
L 844 1288 
Q 928 834 1151 609 
Q 1375 384 1741 384 
Q 2134 384 2407 661 
Q 2681 938 2681 1338 
Q 2681 1722 2432 1975 
Q 2184 2228 1784 2228 
Q 1622 2228 1388 2169 
L 1453 2663 
Q 1678 2663 1809 2684 
Q 1941 2706 2103 2790 
Q 2266 2875 2372 3033 
Q 2478 3191 2478 3425 
Q 2478 3766 2251 3953 
Q 2025 4141 1728 4141 
Q 1388 4141 1173 3925 
Q 959 3709 903 3309 
L 341 3413 
Q 450 4009 823 4306 
Q 1197 4603 1716 4603 
Q 2288 4603 2670 4258 
Q 3053 3913 3053 3413 
Q 3053 2772 2425 2491 
L 2425 2478 
z
" transform="scale(0.015625)"/>
       </defs>
       <use xlink:href="#ArialUnicodeMS-32"/>
       <use xlink:href="#ArialUnicodeMS-30" transform="translate(55.615234 0)"/>
       <use xlink:href="#ArialUnicodeMS-32" transform="translate(111.230469 0)"/>
       <use xlink:href="#ArialUnicodeMS-34" transform="translate(166.845703 0)"/>
       <use xlink:href="#ArialUnicodeMS-51" transform="translate(222.460938 0)"/>
       <use xlink:href="#ArialUnicodeMS-33" transform="translate(300.244141 0)"/>
      </g>
     </g>
    </g>
    <g id="xtick_4">
     <g id="line2d_4">
      <g>
       <use xlink:href="#m56df467bd9" x="237.734077" y="288.617156" style="stroke: #000000; stroke-width: 0.8"/>
      </g>
     </g>
     <g id="text_4">
      <!-- 2024Q4 -->
      <g transform="translate(207.952253 314.989771) rotate(-25) scale(0.09 -0.09)">
       <use xlink:href="#ArialUnicodeMS-32"/>
       <use xlink:href="#ArialUnicodeMS-30" transform="translate(55.615234 0)"/>
       <use xlink:href="#ArialUnicodeMS-32" transform="translate(111.230469 0)"/>
       <use xlink:href="#ArialUnicodeMS-34" transform="translate(166.845703 0)"/>
       <use xlink:href="#ArialUnicodeMS-51" transform="translate(222.460938 0)"/>
       <use xlink:href="#ArialUnicodeMS-34" transform="translate(300.244141 0)"/>
      </g>
     </g>
    </g>
    <g id="xtick_5">
     <g id="line2d_5">
      <g>
       <use xlink:href="#m56df467bd9" x="294.097713" y="288.617156" style="stroke: #000000; stroke-width: 0.8"/>
      </g>
     </g>
     <g id="text_5">
      <!-- 2025Q1 -->
      <g transform="translate(264.31589 314.989771) rotate(-25) scale(0.09 -0.09)">
       <defs>
        <path id="ArialUnicodeMS-35" d="M 1013 2753 
Q 1431 3041 1881 3041 
Q 2453 3041 2878 2636 
Q 3303 2231 3303 1556 
Q 3303 875 2872 398 
Q 2441 -78 1741 -78 
Q 1169 -78 750 245 
Q 331 569 269 1203 
L 856 1247 
Q 928 813 1162 598 
Q 1397 384 1741 384 
Q 2169 384 2434 707 
Q 2700 1031 2700 1503 
Q 2700 1984 2428 2262 
Q 2156 2541 1728 2541 
Q 1188 2541 897 2100 
L 366 2163 
L 813 4519 
L 3084 4519 
L 3084 3975 
L 1259 3975 
L 1013 2753 
z
" transform="scale(0.015625)"/>
       </defs>
       <use xlink:href="#ArialUnicodeMS-32"/>
       <use xlink:href="#ArialUnicodeMS-30" transform="translate(55.615234 0)"/>
       <use xlink:href="#ArialUnicodeMS-32" transform="translate(111.230469 0)"/>
       <use xlink:href="#ArialUnicodeMS-35" transform="translate(166.845703 0)"/>
       <use xlink:href="#ArialUnicodeMS-51" transform="translate(222.460938 0)"/>
       <use xlink:href="#ArialUnicodeMS-31" transform="translate(300.244141 0)"/>
      </g>
     </g>
    </g>
    <g id="xtick_6">
     <g id="line2d_6">
      <g>
       <use xlink:href="#m56df467bd9" x="350.461349" y="288.617156" style="stroke: #000000; stroke-width: 0.8"/>
      </g>
     </g>
     <g id="text_6">
      <!-- 2025Q2 -->
      <g transform="translate(320.679526 314.989771) rotate(-25) scale(0.09 -0.09)">
       <use xlink:href="#ArialUnicodeMS-32"/>
       <use xlink:href="#ArialUnicodeMS-30" transform="translate(55.615234 0)"/>
       <use xlink:href="#ArialUnicodeMS-32" transform="translate(111.230469 0)"/>
       <use xlink:href="#ArialUnicodeMS-35" transform="translate(166.845703 0)"/>
       <use xlink:href="#ArialUnicodeMS-51" transform="translate(222.460938 0)"/>
       <use xlink:href="#ArialUnicodeMS-32" transform="translate(300.244141 0)"/>
      </g>
     </g>
    </g>
    <g id="xtick_7">
     <g id="line2d_7">
      <g>
       <use xlink:href="#m56df467bd9" x="406.824986" y="288.617156" style="stroke: #000000; stroke-width: 0.8"/>
      </g>
     </g>
     <g id="text_7">
      <!-- 2025Q3 -->
      <g transform="translate(377.043162 314.989771) rotate(-25) scale(0.09 -0.09)">
       <use xlink:href="#ArialUnicodeMS-32"/>
       <use xlink:href="#ArialUnicodeMS-30" transform="translate(55.615234 0)"/>
       <use xlink:href="#ArialUnicodeMS-32" transform="translate(111.230469 0)"/>
       <use xlink:href="#ArialUnicodeMS-35" transform="translate(166.845703 0)"/>
       <use xlink:href="#ArialUnicodeMS-51" transform="translate(222.460938 0)"/>
       <use xlink:href="#ArialUnicodeMS-33" transform="translate(300.244141 0)"/>
      </g>
     </g>
    </g>
    <g id="xtick_8">
     <g id="line2d_8">
      <g>
       <use xlink:href="#m56df467bd9" x="463.188622" y="288.617156" style="stroke: #000000; stroke-width: 0.8"/>
      </g>
     </g>
     <g id="text_8">
      <!-- 2025Q4 -->
      <g transform="translate(433.406799 314.989771) rotate(-25) scale(0.09 -0.09)">
       <use xlink:href="#ArialUnicodeMS-32"/>
       <use xlink:href="#ArialUnicodeMS-30" transform="translate(55.615234 0)"/>
       <use xlink:href="#ArialUnicodeMS-32" transform="translate(111.230469 0)"/>
       <use xlink:href="#ArialUnicodeMS-35" transform="translate(166.845703 0)"/>
       <use xlink:href="#ArialUnicodeMS-51" transform="translate(222.460938 0)"/>
       <use xlink:href="#ArialUnicodeMS-34" transform="translate(300.244141 0)"/>
      </g>
     </g>
    </g>
    <g id="xtick_9">
     <g id="line2d_9">
      <g>
       <use xlink:href="#m56df467bd9" x="519.552259" y="288.617156" style="stroke: #000000; stroke-width: 0.8"/>
      </g>
     </g>
     <g id="text_9">
      <!-- 2026Q1 -->
      <g transform="translate(489.770435 314.989771) rotate(-25) scale(0.09 -0.09)">
       <defs>
        <path id="ArialUnicodeMS-36" d="M 838 2363 
Q 1225 2969 1941 2969 
Q 2503 2969 2897 2553 
Q 3291 2138 3291 1491 
Q 3291 838 2898 380 
Q 2506 -78 1856 -78 
Q 1197 -78 733 409 
Q 269 897 269 2144 
Q 269 3369 689 3986 
Q 1109 4603 1906 4603 
Q 2422 4603 2778 4315 
Q 3134 4028 3213 3463 
L 2650 3413 
Q 2497 4141 1875 4141 
Q 1444 4141 1134 3712 
Q 825 3284 825 2363 
L 838 2363 
z
M 1844 384 
Q 2231 384 2472 696 
Q 2713 1009 2713 1453 
Q 2713 1897 2472 2187 
Q 2231 2478 1825 2478 
Q 1453 2478 1184 2204 
Q 916 1931 916 1484 
Q 916 1028 1180 706 
Q 1444 384 1844 384 
z
" transform="scale(0.015625)"/>
       </defs>
       <use xlink:href="#ArialUnicodeMS-32"/>
       <use xlink:href="#ArialUnicodeMS-30" transform="translate(55.615234 0)"/>
       <use xlink:href="#ArialUnicodeMS-32" transform="translate(111.230469 0)"/>
       <use xlink:href="#ArialUnicodeMS-36" transform="translate(166.845703 0)"/>
       <use xlink:href="#ArialUnicodeMS-51" transform="translate(222.460938 0)"/>
       <use xlink:href="#ArialUnicodeMS-31" transform="translate(300.244141 0)"/>
      </g>
     </g>
    </g>
    <g id="xtick_10">
     <g id="line2d_10">
      <g>
       <use xlink:href="#m56df467bd9" x="575.915895" y="288.617156" style="stroke: #000000; stroke-width: 0.8"/>
      </g>
     </g>
     <g id="text_10">
      <!-- 2026Q2(部分) -->
      <g transform="translate(524.347625 326.062766) rotate(-25) scale(0.09 -0.09)">
       <defs>
        <path id="ArialUnicodeMS-28" d="M 1900 -1344 
L 1497 -1344 
Q 978 -681 681 103 
Q 384 888 384 1656 
Q 384 2528 700 3275 
Q 1016 4022 1497 4659 
L 1900 4659 
Q 1344 3747 1155 3059 
Q 966 2372 966 1663 
Q 966 153 1900 -1344 
z
" transform="scale(0.015625)"/>
        <path id="ArialUnicodeMS-90e8" d="M 3681 4134 
L 622 4134 
L 622 4603 
L 1941 4603 
L 1941 5313 
L 2444 5313 
L 2444 4603 
L 3681 4603 
L 3681 4134 
z
M 5306 2875 
Q 6038 2188 6038 1400 
Q 6038 922 5795 634 
Q 5553 347 5166 384 
L 4756 422 
L 4628 959 
Q 5088 878 5166 878 
Q 5556 878 5556 1356 
Q 5556 2181 4794 2778 
Q 5006 3238 5416 4581 
L 4544 4581 
L 4544 -428 
L 4056 -428 
L 4056 5050 
L 5906 5050 
L 5906 4622 
Q 5484 3350 5306 2875 
z
M 3909 2450 
L 378 2450 
L 378 2919 
L 1588 2919 
Q 1363 3609 997 3922 
L 1422 4097 
Q 1822 3700 2047 3078 
L 1722 2919 
L 2222 2919 
Q 2700 3578 2797 4116 
L 3244 3922 
Q 3106 3459 2753 2919 
L 3909 2919 
L 3909 2450 
z
M 3316 -403 
L 2828 -403 
L 2828 38 
L 1394 38 
L 1394 -403 
L 909 -403 
L 909 1953 
L 3316 1953 
L 3316 -403 
z
M 2828 506 
L 2828 1484 
L 1394 1484 
L 1394 506 
L 2828 506 
z
" transform="scale(0.015625)"/>
        <path id="ArialUnicodeMS-5206" d="M 5991 3003 
L 5684 2553 
Q 4856 3041 4451 3534 
Q 4047 4028 3781 4831 
L 4319 4984 
Q 4375 4356 4829 3825 
Q 5284 3294 5991 3003 
z
M 2613 4697 
Q 2169 3484 800 2547 
L 416 2919 
Q 1731 3741 2188 4934 
L 2613 4697 
z
M 4872 2931 
Q 4844 1956 4730 1092 
Q 4616 228 4430 7 
Q 4244 -213 3847 -213 
Q 3469 -213 2894 -78 
L 2747 481 
Q 3503 269 3834 269 
Q 4013 269 4128 639 
Q 4244 1009 4341 2463 
L 3138 2463 
Q 2869 263 831 -441 
L 525 -31 
Q 2372 478 2631 2463 
L 1556 2463 
L 1556 2931 
L 4872 2931 
z
" transform="scale(0.015625)"/>
        <path id="ArialUnicodeMS-29" d="M 634 4659 
Q 1153 3997 1450 3212 
Q 1747 2428 1747 1656 
Q 1747 788 1431 41 
Q 1116 -706 634 -1344 
L 231 -1344 
Q 788 -431 977 255 
Q 1166 941 1166 1650 
Q 1166 3163 231 4659 
L 634 4659 
z
" transform="scale(0.015625)"/>
       </defs>
       <use xlink:href="#ArialUnicodeMS-32"/>
       <use xlink:href="#ArialUnicodeMS-30" transform="translate(55.615234 0)"/>
       <use xlink:href="#ArialUnicodeMS-32" transform="translate(111.230469 0)"/>
       <use xlink:href="#ArialUnicodeMS-36" transform="translate(166.845703 0)"/>
       <use xlink:href="#ArialUnicodeMS-51" transform="translate(222.460938 0)"/>
       <use xlink:href="#ArialUnicodeMS-32" transform="translate(300.244141 0)"/>
       <use xlink:href="#ArialUnicodeMS-28" transform="translate(355.859375 0)"/>
       <use xlink:href="#ArialUnicodeMS-90e8" transform="translate(389.160156 0)"/>
       <use xlink:href="#ArialUnicodeMS-5206" transform="translate(489.160156 0)"/>
       <use xlink:href="#ArialUnicodeMS-29" transform="translate(589.160156 0)"/>
      </g>
     </g>
    </g>
   </g>
   <g id="matplotlib.axis_2">
    <g id="ytick_1">
     <g id="line2d_11">
      <path d="M 43.279531 276.521156 
L 601.279531 276.521156 
" clip-path="url(#pcd90121407)" style="fill: none; stroke-dasharray: 2.96,1.28; stroke-dashoffset: 0; stroke: #d6dadf; stroke-opacity: 0.7; stroke-width: 0.8"/>
     </g>
     <g id="line2d_12">
      <defs>
       <path id="m628679f492" d="M 0 0 
L -3.5 0 
" style="stroke: #000000; stroke-width: 0.8"/>
      </defs>
      <g>
       <use xlink:href="#m628679f492" x="43.279531" y="276.521156" style="stroke: #000000; stroke-width: 0.8"/>
      </g>
     </g>
     <g id="text_11">
      <!-- 0 -->
      <g transform="translate(31.274688 279.742172) scale(0.09 -0.09)">
       <use xlink:href="#ArialUnicodeMS-30"/>
      </g>
     </g>
    </g>
    <g id="ytick_2">
     <g id="line2d_13">
      <path d="M 43.279531 230.176329 
L 601.279531 230.176329 
" clip-path="url(#pcd90121407)" style="fill: none; stroke-dasharray: 2.96,1.28; stroke-dashoffset: 0; stroke: #d6dadf; stroke-opacity: 0.7; stroke-width: 0.8"/>
     </g>
     <g id="line2d_14">
      <g>
       <use xlink:href="#m628679f492" x="43.279531" y="230.176329" style="stroke: #000000; stroke-width: 0.8"/>
      </g>
     </g>
     <g id="text_12">
      <!-- 50 -->
      <g transform="translate(26.269844 233.397344) scale(0.09 -0.09)">
       <use xlink:href="#ArialUnicodeMS-35"/>
       <use xlink:href="#ArialUnicodeMS-30" transform="translate(55.615234 0)"/>
      </g>
     </g>
    </g>
    <g id="ytick_3">
     <g id="line2d_15">
      <path d="M 43.279531 183.831501 
L 601.279531 183.831501 
" clip-path="url(#pcd90121407)" style="fill: none; stroke-dasharray: 2.96,1.28; stroke-dashoffset: 0; stroke: #d6dadf; stroke-opacity: 0.7; stroke-width: 0.8"/>
     </g>
     <g id="line2d_16">
      <g>
       <use xlink:href="#m628679f492" x="43.279531" y="183.831501" style="stroke: #000000; stroke-width: 0.8"/>
      </g>
     </g>
     <g id="text_13">
      <!-- 100 -->
      <g transform="translate(21.265 187.052517) scale(0.09 -0.09)">
       <use xlink:href="#ArialUnicodeMS-31"/>
       <use xlink:href="#ArialUnicodeMS-30" transform="translate(55.615234 0)"/>
       <use xlink:href="#ArialUnicodeMS-30" transform="translate(111.230469 0)"/>
      </g>
     </g>
    </g>
    <g id="ytick_4">
     <g id="line2d_17">
      <path d="M 43.279531 137.486673 
L 601.279531 137.486673 
" clip-path="url(#pcd90121407)" style="fill: none; stroke-dasharray: 2.96,1.28; stroke-dashoffset: 0; stroke: #d6dadf; stroke-opacity: 0.7; stroke-width: 0.8"/>
     </g>
     <g id="line2d_18">
      <g>
       <use xlink:href="#m628679f492" x="43.279531" y="137.486673" style="stroke: #000000; stroke-width: 0.8"/>
      </g>
     </g>
     <g id="text_14">
      <!-- 150 -->
      <g transform="translate(21.265 140.707689) scale(0.09 -0.09)">
       <use xlink:href="#ArialUnicodeMS-31"/>
       <use xlink:href="#ArialUnicodeMS-35" transform="translate(55.615234 0)"/>
       <use xlink:href="#ArialUnicodeMS-30" transform="translate(111.230469 0)"/>
      </g>
     </g>
    </g>
    <g id="ytick_5">
     <g id="line2d_19">
      <path d="M 43.279531 91.141846 
L 601.279531 91.141846 
" clip-path="url(#pcd90121407)" style="fill: none; stroke-dasharray: 2.96,1.28; stroke-dashoffset: 0; stroke: #d6dadf; stroke-opacity: 0.7; stroke-width: 0.8"/>
     </g>
     <g id="line2d_20">
      <g>
       <use xlink:href="#m628679f492" x="43.279531" y="91.141846" style="stroke: #000000; stroke-width: 0.8"/>
      </g>
     </g>
     <g id="text_15">
      <!-- 200 -->
      <g transform="translate(21.265 94.362862) scale(0.09 -0.09)">
       <use xlink:href="#ArialUnicodeMS-32"/>
       <use xlink:href="#ArialUnicodeMS-30" transform="translate(55.615234 0)"/>
       <use xlink:href="#ArialUnicodeMS-30" transform="translate(111.230469 0)"/>
      </g>
     </g>
    </g>
    <g id="ytick_6">
     <g id="line2d_21">
      <path d="M 43.279531 44.797018 
L 601.279531 44.797018 
" clip-path="url(#pcd90121407)" style="fill: none; stroke-dasharray: 2.96,1.28; stroke-dashoffset: 0; stroke: #d6dadf; stroke-opacity: 0.7; stroke-width: 0.8"/>
     </g>
     <g id="line2d_22">
      <g>
       <use xlink:href="#m628679f492" x="43.279531" y="44.797018" style="stroke: #000000; stroke-width: 0.8"/>
      </g>
     </g>
     <g id="text_16">
      <!-- 250 -->
      <g transform="translate(21.265 48.018034) scale(0.09 -0.09)">
       <use xlink:href="#ArialUnicodeMS-32"/>
       <use xlink:href="#ArialUnicodeMS-35" transform="translate(55.615234 0)"/>
       <use xlink:href="#ArialUnicodeMS-30" transform="translate(111.230469 0)"/>
      </g>
     </g>
    </g>
    <g id="text_17">
     <!-- 数量 -->
     <g transform="translate(15.073594 166.561156) rotate(-90) scale(0.11 -0.11)">
      <defs>
       <path id="ArialUnicodeMS-6570" d="M 6138 19 
L 5806 -378 
Q 5031 194 4697 716 
Q 4344 144 3328 -441 
L 2981 -50 
Q 3966 434 4403 1153 
Q 4038 1834 3866 2753 
Q 3678 2356 3353 1919 
L 2950 2203 
Q 3838 3172 3963 5253 
L 4409 5125 
Q 4341 4384 4269 4006 
L 5984 4006 
L 5984 3547 
L 5619 3541 
L 5594 3341 
Q 5441 2113 4978 1191 
Q 5281 672 6138 19 
z
M 5166 3541 
L 4172 3541 
Q 4297 2419 4691 1650 
Q 5038 2513 5166 3541 
z
M 3438 3653 
L 2209 3653 
L 2209 2338 
L 1919 2338 
Q 1900 2269 1753 1931 
L 3225 1931 
L 3225 1472 
L 2913 1472 
Q 2763 991 2503 666 
Q 2947 353 3103 184 
L 2747 -172 
Q 2463 138 2150 313 
Q 1322 -225 563 -428 
L 269 6 
Q 1106 163 1684 563 
Q 1291 756 703 884 
L 1038 1472 
L 403 1472 
L 403 1931 
L 1259 1931 
Q 1328 2056 1466 2553 
L 1747 2484 
L 1747 3653 
L 1716 3653 
Q 1413 2881 678 2456 
L 378 2803 
Q 938 3091 1241 3653 
L 403 3653 
L 403 4122 
L 1747 4122 
L 1747 5228 
L 2209 5228 
L 2209 4122 
L 3438 4122 
L 3438 3653 
z
M 2406 1472 
L 1538 1472 
Q 1422 1241 1369 1153 
Q 1388 1159 2069 884 
Q 2219 1031 2406 1472 
z
M 1625 4441 
L 1288 4159 
Q 1022 4547 575 4813 
L 878 5075 
Q 1394 4844 1625 4441 
z
M 3384 4844 
Q 3097 4409 2669 4172 
L 2322 4481 
Q 2806 4759 3047 5069 
L 3384 4844 
z
M 3303 2888 
L 2944 2578 
Q 2706 3025 2291 3297 
L 2584 3566 
Q 2988 3359 3303 2888 
z
" transform="scale(0.015625)"/>
       <path id="ArialUnicodeMS-91cf" d="M 5056 3378 
L 1313 3378 
L 1313 5050 
L 5056 5050 
L 5056 3378 
z
M 4569 4403 
L 4569 4609 
L 1797 4609 
L 1797 4403 
L 4569 4403 
z
M 4569 3794 
L 4569 4031 
L 1797 4031 
L 1797 3794 
L 4569 3794 
z
M 5797 2816 
L 581 2816 
L 581 3231 
L 5797 3231 
L 5797 2816 
z
M 6059 -191 
L 341 -191 
L 341 275 
L 2950 275 
L 2950 459 
L 897 459 
L 897 878 
L 2950 878 
L 2950 1044 
L 1125 1044 
L 1125 2669 
L 5269 2669 
L 5269 1044 
L 3438 1044 
L 3438 878 
L 5509 878 
L 5509 459 
L 3438 459 
L 3438 275 
L 6059 275 
L 6059 -191 
z
M 4781 2053 
L 4781 2253 
L 3438 2253 
L 3438 2053 
L 4781 2053 
z
M 2950 2053 
L 2950 2253 
L 1613 2253 
L 1613 2053 
L 2950 2053 
z
M 4781 1459 
L 4781 1697 
L 3438 1697 
L 3438 1459 
L 4781 1459 
z
M 2950 1459 
L 2950 1697 
L 1613 1697 
L 1613 1459 
L 2950 1459 
z
" transform="scale(0.015625)"/>
      </defs>
      <use xlink:href="#ArialUnicodeMS-6570"/>
      <use xlink:href="#ArialUnicodeMS-91cf" transform="translate(100 0)"/>
     </g>
    </g>
   </g>
   <g id="line2d_23">
    <path d="M 68.643168 270.03288 
L 125.006804 270.03288 
L 181.37044 268.179087 
L 237.734077 257.056329 
L 294.097713 229.249432 
L 350.461349 245.006673 
L 406.824986 238.518398 
L 463.188622 207.930811 
L 519.552259 34.601156 
L 575.915895 268.179087 
" clip-path="url(#pcd90121407)" style="fill: none; stroke: #355070; stroke-width: 2.2; stroke-linecap: square"/>
    <defs>
     <path id="m4272dac614" d="M 0 3 
C 0.795609 3 1.55874 2.683901 2.12132 2.12132 
C 2.683901 1.55874 3 0.795609 3 0 
C 3 -0.795609 2.683901 -1.55874 2.12132 -2.12132 
C 1.55874 -2.683901 0.795609 -3 0 -3 
C -0.795609 -3 -1.55874 -2.683901 -2.12132 -2.12132 
C -2.683901 -1.55874 -3 -0.795609 -3 0 
C -3 0.795609 -2.683901 1.55874 -2.12132 2.12132 
C -1.55874 2.683901 -0.795609 3 0 3 
z
" style="stroke: #355070"/>
    </defs>
    <g clip-path="url(#pcd90121407)">
     <use xlink:href="#m4272dac614" x="68.643168" y="270.03288" style="fill: #355070; stroke: #355070"/>
     <use xlink:href="#m4272dac614" x="125.006804" y="270.03288" style="fill: #355070; stroke: #355070"/>
     <use xlink:href="#m4272dac614" x="181.37044" y="268.179087" style="fill: #355070; stroke: #355070"/>
     <use xlink:href="#m4272dac614" x="237.734077" y="257.056329" style="fill: #355070; stroke: #355070"/>
     <use xlink:href="#m4272dac614" x="294.097713" y="229.249432" style="fill: #355070; stroke: #355070"/>
     <use xlink:href="#m4272dac614" x="350.461349" y="245.006673" style="fill: #355070; stroke: #355070"/>
     <use xlink:href="#m4272dac614" x="406.824986" y="238.518398" style="fill: #355070; stroke: #355070"/>
     <use xlink:href="#m4272dac614" x="463.188622" y="207.930811" style="fill: #355070; stroke: #355070"/>
     <use xlink:href="#m4272dac614" x="519.552259" y="34.601156" style="fill: #355070; stroke: #355070"/>
     <use xlink:href="#m4272dac614" x="575.915895" y="268.179087" style="fill: #355070; stroke: #355070"/>
    </g>
   </g>
   <g id="line2d_24">
    <path d="M 68.643168 276.521156 
L 125.006804 276.521156 
L 181.37044 276.521156 
L 237.734077 276.521156 
L 294.097713 276.521156 
L 350.461349 276.521156 
L 406.824986 276.521156 
L 463.188622 276.521156 
L 519.552259 276.521156 
L 575.915895 276.521156 
" clip-path="url(#pcd90121407)" style="fill: none; stroke: #c06c54; stroke-width: 2.2; stroke-linecap: square"/>
    <defs>
     <path id="m8f00998600" d="M -3 3 
L 3 3 
L 3 -3 
L -3 -3 
z
" style="stroke: #c06c54; stroke-linejoin: miter"/>
    </defs>
    <g clip-path="url(#pcd90121407)">
     <use xlink:href="#m8f00998600" x="68.643168" y="276.521156" style="fill: #c06c54; stroke: #c06c54; stroke-linejoin: miter"/>
     <use xlink:href="#m8f00998600" x="125.006804" y="276.521156" style="fill: #c06c54; stroke: #c06c54; stroke-linejoin: miter"/>
     <use xlink:href="#m8f00998600" x="181.37044" y="276.521156" style="fill: #c06c54; stroke: #c06c54; stroke-linejoin: miter"/>
     <use xlink:href="#m8f00998600" x="237.734077" y="276.521156" style="fill: #c06c54; stroke: #c06c54; stroke-linejoin: miter"/>
     <use xlink:href="#m8f00998600" x="294.097713" y="276.521156" style="fill: #c06c54; stroke: #c06c54; stroke-linejoin: miter"/>
     <use xlink:href="#m8f00998600" x="350.461349" y="276.521156" style="fill: #c06c54; stroke: #c06c54; stroke-linejoin: miter"/>
     <use xlink:href="#m8f00998600" x="406.824986" y="276.521156" style="fill: #c06c54; stroke: #c06c54; stroke-linejoin: miter"/>
     <use xlink:href="#m8f00998600" x="463.188622" y="276.521156" style="fill: #c06c54; stroke: #c06c54; stroke-linejoin: miter"/>
     <use xlink:href="#m8f00998600" x="519.552259" y="276.521156" style="fill: #c06c54; stroke: #c06c54; stroke-linejoin: miter"/>
     <use xlink:href="#m8f00998600" x="575.915895" y="276.521156" style="fill: #c06c54; stroke: #c06c54; stroke-linejoin: miter"/>
    </g>
   </g>
   <g id="patch_3">
    <path d="M 43.279531 288.617156 
L 43.279531 22.505156 
" style="fill: none; stroke: #5a6570; stroke-width: 0.8; stroke-linejoin: miter; stroke-linecap: square"/>
   </g>
   <g id="patch_4">
    <path d="M 43.279531 288.617156 
L 601.279531 288.617156 
" style="fill: none; stroke: #5a6570; stroke-width: 0.8; stroke-linejoin: miter; stroke-linecap: square"/>
   </g>
   <g id="text_18">
    <!-- 季度帖子与评论规模 -->
    <g transform="translate(263.779531 16.505156) scale(0.13 -0.13)">
     <defs>
      <path id="ArialUnicodeMS-5b63" d="M 6138 2663 
L 5888 2216 
Q 4409 2578 3481 3553 
L 3481 2547 
L 2994 2547 
L 2994 3566 
Q 2125 2606 581 2150 
L 319 2572 
Q 1644 2956 2369 3659 
L 697 3659 
L 697 4128 
L 2994 4128 
L 2994 4513 
Q 2231 4447 1172 4469 
L 941 4966 
Q 1353 4947 1766 4947 
Q 4097 4947 5153 5363 
L 5453 4953 
Q 4556 4659 3481 4563 
L 3481 4128 
L 5766 4128 
L 5766 3659 
L 4044 3659 
Q 4478 3278 5092 2984 
Q 5706 2691 6138 2663 
z
M 5959 872 
L 3559 872 
L 3559 63 
Q 3513 -241 3348 -331 
Q 3184 -422 2688 -422 
Q 2297 -422 2291 -428 
L 2119 91 
L 2913 56 
Q 3072 47 3072 213 
L 3072 872 
L 513 872 
L 513 1338 
L 3072 1338 
L 3072 1638 
Q 3588 1825 3872 2003 
L 3872 2016 
L 1528 2016 
L 1528 2484 
L 4756 2484 
L 4756 2069 
Q 4200 1606 3559 1344 
L 3559 1338 
L 5959 1338 
L 5959 872 
z
" transform="scale(0.015625)"/>
      <path id="ArialUnicodeMS-5ea6" d="M 5913 4269 
L 1363 4269 
L 1363 2278 
Q 1363 1144 1180 528 
Q 997 -88 684 -434 
L 294 -147 
Q 669 378 773 940 
Q 878 1503 878 2350 
L 878 4738 
L 3200 4738 
L 3200 5288 
L 3706 5288 
L 3706 4738 
L 5913 4738 
L 5913 4269 
z
M 5778 3194 
L 4728 3194 
L 4728 2303 
L 2350 2303 
L 2350 3194 
L 1472 3194 
L 1472 3659 
L 2350 3659 
L 2350 4147 
L 2828 4147 
L 2828 3659 
L 4244 3659 
L 4244 4147 
L 4728 4147 
L 4728 3659 
L 5778 3659 
L 5778 3194 
z
M 4244 2747 
L 4244 3194 
L 2834 3194 
L 2834 2747 
L 4244 2747 
z
M 6081 72 
L 5819 -397 
Q 4484 -216 3531 263 
Q 2494 -234 1388 -397 
L 1088 44 
Q 2078 134 3034 550 
Q 2509 934 2113 1528 
L 1625 1528 
L 1625 1972 
L 5159 1972 
L 5159 1544 
Q 4819 1025 4044 538 
Q 4963 166 6081 72 
z
M 4544 1528 
L 2700 1528 
Q 3125 1038 3531 781 
Q 4194 1159 4544 1528 
z
" transform="scale(0.015625)"/>
      <path id="ArialUnicodeMS-5e16" d="M 2791 1606 
Q 2791 1131 2400 1131 
L 2081 1131 
L 1953 1528 
L 1953 -422 
L 1466 -422 
L 1466 3603 
L 1069 3603 
L 1069 1063 
L 616 1063 
L 616 4072 
L 1466 4072 
L 1466 5331 
L 1953 5331 
L 1953 4072 
L 2791 4072 
L 2791 1606 
z
M 2338 1703 
L 2338 3603 
L 1953 3603 
L 1953 1613 
L 2241 1581 
Q 2338 1581 2338 1703 
z
M 6034 3653 
L 4416 3653 
L 4416 2322 
L 5563 2322 
L 5563 -422 
L 5075 -422 
L 5075 91 
L 3450 91 
L 3450 -422 
L 2963 -422 
L 2963 2322 
L 3928 2322 
L 3928 5306 
L 4416 5306 
L 4416 4122 
L 6034 4122 
L 6034 3653 
z
M 5075 556 
L 5075 1856 
L 3450 1856 
L 3450 556 
L 5075 556 
z
" transform="scale(0.015625)"/>
      <path id="ArialUnicodeMS-5b50" d="M 5894 2328 
L 3566 2328 
L 3566 191 
Q 3566 -31 3425 -172 
Q 3284 -313 3034 -313 
L 2247 -313 
L 2016 184 
L 2822 147 
Q 3078 138 3078 447 
L 3078 2328 
L 628 2328 
L 628 2797 
L 3078 2797 
L 3078 3438 
Q 3856 3947 4403 4569 
L 1416 4569 
L 1416 5038 
L 5100 5038 
L 5100 4678 
Q 4438 3794 3566 3200 
L 3566 2797 
L 5894 2797 
L 5894 2328 
z
" transform="scale(0.015625)"/>
      <path id="ArialUnicodeMS-4e0e" d="M 5953 3916 
L 1881 3916 
L 1784 3028 
L 5153 3028 
L 5081 1734 
L 5919 1734 
L 5919 1234 
L 5050 1234 
Q 4984 100 4750 -154 
Q 4516 -409 4159 -409 
Q 3856 -409 3225 -269 
L 3144 300 
Q 3863 103 4091 103 
Q 4253 103 4348 201 
Q 4444 300 4487 711 
Q 4531 1122 4531 1234 
L 434 1234 
L 434 1734 
L 4569 1734 
Q 4597 2088 4609 2509 
L 1728 2509 
L 1672 2069 
L 1172 2113 
L 1528 5281 
L 2041 5228 
L 1947 4428 
L 5953 4428 
L 5953 3916 
z
" transform="scale(0.015625)"/>
      <path id="ArialUnicodeMS-8bc4" d="M 2034 4397 
L 1631 4091 
Q 1334 4688 825 5056 
L 1166 5350 
Q 1703 4981 2034 4397 
z
M 6028 1856 
L 4447 1856 
L 4447 -428 
L 3963 -428 
L 3963 1856 
L 2369 1856 
L 2369 2322 
L 3963 2322 
L 3963 4563 
L 2566 4563 
L 2566 5031 
L 5797 5031 
L 5797 4563 
L 4447 4563 
L 4447 2322 
L 6028 2322 
L 6028 1856 
z
M 5684 4197 
Q 5584 3163 5147 2463 
L 4728 2694 
Q 5197 3441 5259 4359 
L 5684 4197 
z
M 3675 2700 
L 3225 2509 
Q 3031 3553 2631 4116 
L 3047 4325 
Q 3509 3625 3675 2700 
z
M 2759 341 
L 1619 -288 
L 1331 122 
Q 1375 175 1375 384 
L 1375 3103 
L 500 3103 
L 500 3572 
L 1863 3572 
L 1863 384 
L 2759 872 
L 2759 341 
z
" transform="scale(0.015625)"/>
      <path id="ArialUnicodeMS-8bba" d="M 6169 2809 
L 5806 2406 
Q 4478 3422 4006 4341 
Q 3475 3256 2203 2356 
L 1863 2741 
Q 2438 3113 2852 3559 
Q 3266 4006 3441 4301 
Q 3616 4597 3909 5300 
L 4353 5081 
L 4244 4813 
Q 4669 3881 6169 2809 
z
M 1984 4244 
L 1575 3909 
Q 1247 4531 691 4922 
L 1063 5241 
Q 1563 4963 1984 4244 
z
M 2463 519 
L 1216 -122 
L 991 275 
Q 1050 322 1050 403 
L 1050 2875 
L 331 2875 
L 331 3341 
L 1528 3341 
L 1528 550 
L 2463 1031 
L 2463 519 
z
M 5959 775 
Q 5719 -191 5313 -191 
L 3603 -191 
Q 2981 -191 2981 384 
L 2981 2731 
L 3463 2731 
L 3463 1691 
Q 4366 1950 5178 2656 
L 5522 2291 
Q 4625 1550 3463 1222 
L 3463 416 
Q 3463 250 3597 250 
L 5147 250 
Q 5278 250 5350 415 
Q 5422 581 5484 1044 
L 5959 775 
z
" transform="scale(0.015625)"/>
      <path id="ArialUnicodeMS-89c4" d="M 2759 2547 
L 1881 2547 
Q 1725 875 519 -313 
L 166 44 
Q 1244 1166 1416 2547 
L 300 2547 
L 300 2988 
L 1422 2988 
Q 1428 3106 1428 3272 
L 1422 3859 
L 481 3859 
L 481 4325 
L 1416 4325 
L 1416 5288 
L 1900 5288 
L 1900 4325 
L 2694 4325 
L 2694 3859 
L 1913 3859 
L 1913 2988 
L 2759 2988 
L 2759 2547 
z
M 5422 1453 
L 4966 1453 
L 4966 4603 
L 3322 4603 
L 3322 1453 
L 2869 1453 
L 2869 5044 
L 5422 5044 
L 5422 1453 
z
M 4409 4250 
Q 4281 1875 3723 1014 
Q 3166 153 1863 -359 
L 1569 63 
Q 2769 494 3270 1201 
Q 3772 1909 3963 4313 
L 4409 4250 
z
M 2925 966 
L 2541 684 
Q 2181 1431 1797 1747 
L 2150 2003 
Q 2616 1631 2925 966 
z
M 5966 800 
Q 5763 -97 5428 -97 
L 4684 -97 
Q 4438 -97 4280 39 
Q 4122 175 4122 341 
L 4122 1966 
L 4609 1966 
L 4609 384 
Q 4634 347 4653 347 
L 5344 347 
Q 5494 416 5556 966 
L 5966 800 
z
" transform="scale(0.015625)"/>
      <path id="ArialUnicodeMS-6a21" d="M 5906 4213 
L 5063 4213 
L 5063 3809 
L 4575 3809 
L 4575 4213 
L 3469 4213 
L 3469 3809 
L 2981 3809 
L 2981 4213 
L 2131 4213 
L 2131 4678 
L 2981 4678 
L 2981 5300 
L 3469 5300 
L 3469 4678 
L 4575 4678 
L 4575 5300 
L 5063 5300 
L 5063 4678 
L 5906 4678 
L 5906 4213 
z
M 2503 1947 
L 2088 1684 
Q 1891 2191 1716 2394 
L 1716 -441 
L 1222 -441 
L 1222 2088 
Q 1066 1534 588 941 
L 197 1281 
Q 1044 2356 1216 3572 
L 397 3572 
L 397 4038 
L 1209 4038 
L 1209 5281 
L 1716 5281 
L 1716 4038 
L 2406 4038 
L 2406 3572 
L 1716 3572 
L 1716 2900 
L 1856 2969 
Q 2316 2422 2503 1947 
z
M 6094 -25 
L 5838 -422 
Q 4453 -172 4025 838 
Q 3584 -53 2241 -428 
L 1972 -6 
Q 3103 253 3506 856 
L 2247 856 
L 2247 1325 
L 3706 1325 
L 3788 1684 
L 2553 1684 
L 2553 3675 
L 5491 3675 
L 5491 1684 
L 4250 1684 
Q 4222 1453 4178 1325 
L 5791 1325 
L 5791 856 
L 4519 856 
Q 4981 197 6094 -25 
z
M 4984 2925 
L 4984 3206 
L 3059 3206 
L 3059 2925 
L 4984 2925 
z
M 4984 2150 
L 4984 2456 
L 3059 2456 
L 3059 2150 
L 4984 2150 
z
" transform="scale(0.015625)"/>
     </defs>
     <use xlink:href="#ArialUnicodeMS-5b63"/>
     <use xlink:href="#ArialUnicodeMS-5ea6" transform="translate(100 0)"/>
     <use xlink:href="#ArialUnicodeMS-5e16" transform="translate(200 0)"/>
     <use xlink:href="#ArialUnicodeMS-5b50" transform="translate(300 0)"/>
     <use xlink:href="#ArialUnicodeMS-4e0e" transform="translate(400 0)"/>
     <use xlink:href="#ArialUnicodeMS-8bc4" transform="translate(500 0)"/>
     <use xlink:href="#ArialUnicodeMS-8bba" transform="translate(600 0)"/>
     <use xlink:href="#ArialUnicodeMS-89c4" transform="translate(700 0)"/>
     <use xlink:href="#ArialUnicodeMS-6a21" transform="translate(800 0)"/>
    </g>
   </g>
   <g id="legend_1">
    <g id="line2d_25">
     <path d="M 51.379531 33.897187 
L 60.379531 33.897187 
L 69.379531 33.897187 
" style="fill: none; stroke: #355070; stroke-width: 2.2; stroke-linecap: square"/>
     <g>
      <use xlink:href="#m4272dac614" x="60.379531" y="33.897187" style="fill: #355070; stroke: #355070"/>
     </g>
    </g>
    <g id="text_19">
     <!-- 帖子数 -->
     <g transform="translate(76.579531 37.047187) scale(0.09 -0.09)">
      <use xlink:href="#ArialUnicodeMS-5e16"/>
      <use xlink:href="#ArialUnicodeMS-5b50" transform="translate(100 0)"/>
      <use xlink:href="#ArialUnicodeMS-6570" transform="translate(200 0)"/>
     </g>
    </g>
    <g id="line2d_26">
     <path d="M 51.379531 46.632187 
L 60.379531 46.632187 
L 69.379531 46.632187 
" style="fill: none; stroke: #c06c54; stroke-width: 2.2; stroke-linecap: square"/>
     <g>
      <use xlink:href="#m8f00998600" x="60.379531" y="46.632187" style="fill: #c06c54; stroke: #c06c54; stroke-linejoin: miter"/>
     </g>
    </g>
    <g id="text_20">
     <!-- 评论数 -->
     <g transform="translate(76.579531 49.782187) scale(0.09 -0.09)">
      <use xlink:href="#ArialUnicodeMS-8bc4"/>
      <use xlink:href="#ArialUnicodeMS-8bba" transform="translate(100 0)"/>
      <use xlink:href="#ArialUnicodeMS-6570" transform="translate(200 0)"/>
     </g>
    </g>
   </g>
  </g>
 </g>
 <defs>
  <clipPath id="pcd90121407">
   <rect x="43.279531" y="22.505156" width="558" height="266.112"/>
  </clipPath>
 </defs>
</svg>
